<svg width="526" height="513" viewBox="0 0 526 513" fill="none" xmlns="http://www.w3.org/2000/svg">
<g clip-path="url(#clip0_6_15331)">
<path d="M486.194 102.297C491.858 100.062 495.888 94.5505 495.912 88.0665C495.949 79.5679 489.131 72.6555 480.678 72.6207C472.225 72.586 465.345 79.4405 465.309 87.9392C465.284 94.4811 469.338 100.05 475.063 102.297C451.512 105.643 452.581 129.761 452.581 129.761L508.272 130.004C508.272 130.004 509.537 105.62 486.194 102.297Z" fill="#F5F5F5"/>
<path d="M157.122 12.1343L120.719 0L84.673 11.9722C80.0658 13.9869 76.0361 15.2027 76.0361 19.1741V38.985C76.0361 52.7404 79.9184 66.3683 87.9041 78.4101C94.6244 88.5413 105.043 98.962 121.063 105.597C135.794 101.15 146.789 89.3171 153.522 79.1858C161.508 67.1557 165.39 53.5161 165.39 39.7608V21.953C165.39 16.2795 162.147 13.5122 157.109 12.1459L157.122 12.1343Z" fill="#F5F5F5"/>
<path d="M132.808 44.1028C132.808 38.8577 128.299 34.6084 122.734 34.6084C117.169 34.6084 112.66 38.8577 112.66 44.1028C112.66 48.4448 115.768 52.0689 119.982 53.192V67.3873H125.486V53.192C129.7 52.0573 132.808 48.4332 132.808 44.1028Z" fill="#EBEBEB"/>
<path d="M466.623 195.736L472.827 198.897L470.039 203.297L463.773 199.811L463.883 206.307H458.527L458.588 199.753L452.323 203.297L449.583 198.897L455.787 195.736L449.583 192.517L452.323 188.117L458.588 191.66L458.527 185.107H463.883L463.773 191.66L470.039 188.117L472.827 192.517L466.623 195.736Z" fill="#E0E0E0"/>
<path d="M492.472 195.736L498.677 198.897L495.888 203.297L489.622 199.811L489.733 206.307H484.376L484.437 199.753L478.172 203.297L475.432 198.897L481.636 195.736L475.432 192.517L478.172 188.117L484.437 191.66L484.376 185.107H489.733L489.622 191.66L495.888 188.117L498.677 192.517L492.472 195.736Z" fill="#E0E0E0"/>
<path d="M518.321 195.736L524.526 198.897L521.737 203.297L515.471 199.811L515.582 206.307H510.225L510.287 199.753L504.021 203.297L501.281 198.897L507.485 195.736L501.281 192.517L504.021 188.117L510.287 191.66L510.225 185.107H515.582L515.471 191.66L521.737 188.117L524.526 192.517L518.321 195.736Z" fill="#E0E0E0"/>
<path d="M255.297 472.88V508.843H311.111H372.662V472.88H255.297Z" fill="#F5F5F5"/>
<path d="M250.383 462.83V472.88H376.766V462.83H311.111H250.383Z" fill="#EBEBEB"/>
<path d="M313.568 508.843H372.662V472.88H376.766V462.83H311.111V471.954L313.568 508.843Z" fill="#EBEBEB"/>
<path d="M295.508 478.681H271.711V484.1H295.508V478.681Z" fill="#E0E0E0"/>
<path d="M299.218 490.862H268.651V502.29H299.218V490.862Z" fill="white"/>
<path d="M273.357 426.913V462.876H329.171H390.722V426.913H273.357Z" fill="#F5F5F5"/>
<path d="M268.43 416.852V426.913H394.825V416.852H329.171H268.43Z" fill="#EBEBEB"/>
<path d="M331.628 462.876H390.722V426.913H394.825V416.852H329.171V425.975L331.628 462.876Z" fill="#EBEBEB"/>
<path d="M313.568 432.714H289.77V438.133H313.568V432.714Z" fill="#E0E0E0"/>
<path d="M317.278 444.895H286.711V456.323H317.278V444.895Z" fill="white"/>
<path d="M526 509.121C526 509.283 408.242 509.422 263.012 509.422C117.783 509.422 0 509.283 0 509.121C0 508.959 117.734 508.82 263.012 508.82C408.291 508.82 526 508.959 526 509.121Z" fill="#263238"/>
<path d="M417.444 21.814H197.972C193.521 21.814 189.912 25.2146 189.912 29.4095V219.703C189.912 223.898 193.521 227.299 197.972 227.299H417.444C421.895 227.299 425.503 223.898 425.503 219.703V29.4095C425.503 25.2146 421.895 21.814 417.444 21.814Z" fill="white"/>
<path d="M417.444 227.299C417.444 227.299 417.64 227.276 418.021 227.252C418.402 227.229 418.979 227.148 419.704 226.951C420.429 226.743 421.314 226.384 422.21 225.747C423.107 225.11 424.029 224.196 424.655 222.934C425.355 221.683 425.491 220.097 425.429 218.372C425.429 216.647 425.429 214.748 425.417 212.698C425.417 208.599 425.405 203.864 425.392 198.538C425.368 177.221 425.331 146.399 425.294 108.317C425.294 89.2707 425.27 68.4061 425.257 46.0132C425.257 40.4207 425.233 34.7356 425.22 28.9464C425.073 26.1443 423.021 23.5044 420.171 22.5318C418.758 21.9761 417.222 22.0687 415.638 22.0687C414.065 22.0687 412.492 22.0687 410.908 22.0687C398.253 22.0687 385.218 22.0687 371.864 22.0803C318.421 22.0803 259.671 22.0919 198.009 22.1034C196.153 22.1034 194.323 22.7402 192.922 23.8865C191.522 25.0212 190.576 26.6422 190.33 28.3559C190.207 29.2011 190.256 30.1158 190.244 31.0189V33.7167C190.244 35.5114 190.244 37.3177 190.244 39.1123C190.244 46.2911 190.244 53.4235 190.244 60.498C190.244 74.647 190.244 88.5991 190.244 102.308C190.244 129.715 190.232 156.16 190.219 181.343C190.219 193.941 190.219 206.214 190.207 218.14C190.207 218.881 190.183 219.645 190.244 220.352C190.33 221.058 190.477 221.776 190.772 222.436C191.337 223.767 192.32 224.914 193.561 225.724C194.802 226.535 196.276 226.986 197.775 227.021C199.323 227.021 200.859 227.021 202.395 227.033C208.537 227.033 214.582 227.033 220.516 227.033C244.277 227.044 266.415 227.056 286.625 227.067C327.033 227.114 359.738 227.137 382.356 227.16C393.646 227.183 402.418 227.206 408.377 227.218C411.35 227.229 413.61 227.241 415.146 227.252C416.67 227.252 417.456 227.287 417.456 227.287C417.456 227.287 416.67 227.31 415.146 227.322C413.61 227.322 411.35 227.334 408.377 227.357C402.418 227.368 393.646 227.391 382.356 227.415C359.75 227.438 327.045 227.472 286.625 227.507C266.415 227.507 244.277 227.53 220.516 227.542C214.57 227.542 208.537 227.542 202.395 227.542C200.859 227.542 199.311 227.542 197.763 227.542C196.166 227.507 194.569 227.021 193.242 226.153C191.915 225.284 190.858 224.057 190.256 222.633C189.937 221.926 189.777 221.162 189.691 220.398C189.63 219.622 189.667 218.893 189.654 218.14C189.654 206.214 189.654 193.929 189.642 181.343C189.642 156.16 189.642 129.726 189.617 102.308C189.617 88.5991 189.617 74.6585 189.617 60.498C189.617 53.4235 189.617 46.2911 189.617 39.1123C189.617 37.3177 189.617 35.523 189.617 33.7167V31.0189C189.617 30.1158 189.568 29.2242 189.716 28.2748C189.986 26.4107 190.993 24.6507 192.517 23.435C194.028 22.1961 196.018 21.5013 198.021 21.5013C259.683 21.5013 318.433 21.5129 371.876 21.5245C385.23 21.5245 398.266 21.5245 410.92 21.5361C412.505 21.5361 414.077 21.5361 415.65 21.5361C417.186 21.5361 418.869 21.4435 420.38 22.0455C423.427 23.0876 425.626 25.9128 425.773 28.9116C425.773 34.7009 425.773 40.3976 425.786 46.0016C425.773 68.3945 425.761 89.2591 425.749 108.306C425.712 146.388 425.675 177.222 425.65 198.526C425.65 203.852 425.626 208.576 425.626 212.687C425.626 214.736 425.626 216.623 425.613 218.36C425.675 220.074 425.515 221.718 424.803 222.98C424.164 224.265 423.218 225.191 422.309 225.817C421.387 226.454 420.49 226.801 419.766 226.998C419.028 227.183 418.451 227.252 418.058 227.264C417.677 227.276 417.48 227.276 417.48 227.276L417.444 227.299Z" fill="#263238"/>
<path d="M207.69 36.0556C207.69 38.1745 205.871 39.8881 203.611 39.8881C201.35 39.8881 199.544 38.1745 199.544 36.0556C199.544 33.9368 201.363 32.2115 203.611 32.2115C205.859 32.2115 207.69 33.9252 207.69 36.0556Z" fill="#263238"/>
<path d="M215.516 39.8882C217.762 39.8882 219.582 38.1723 219.582 36.0556C219.582 33.939 217.762 32.2231 215.516 32.2231C213.27 32.2231 211.449 33.939 211.449 36.0556C211.449 38.1723 213.27 39.8882 215.516 39.8882Z" fill="#263238"/>
<path d="M227.408 39.8882C229.654 39.8882 231.475 38.1723 231.475 36.0556C231.475 33.939 229.654 32.2231 227.408 32.2231C225.162 32.2231 223.342 33.939 223.342 36.0556C223.342 38.1723 225.162 39.8882 227.408 39.8882Z" fill="#263238"/>
<path d="M425.503 46.9511C425.503 47.1132 372.76 47.2521 307.72 47.2521C242.679 47.2521 189.925 47.1132 189.925 46.9511C189.925 46.789 242.655 46.65 307.72 46.65C372.785 46.65 425.503 46.789 425.503 46.9511Z" fill="#263238"/>
<path d="M340.989 124.354C340.989 124.354 341.088 124.226 341.272 123.995C341.321 123.937 341.37 123.868 341.432 123.798C341.481 123.717 341.53 123.636 341.591 123.543C341.702 123.358 341.849 123.138 341.948 122.872C342.009 122.744 342.071 122.605 342.132 122.455C342.181 122.304 342.23 122.142 342.279 121.969C342.341 121.795 342.366 121.621 342.402 121.424C342.427 121.228 342.488 121.042 342.488 120.822C342.587 119.989 342.525 119.016 342.353 117.939C341.997 115.786 341.026 113.25 339.552 110.494C338.065 107.727 336.026 104.763 333.52 101.66C331.014 98.5568 328.003 95.3611 324.527 92.1423C321.062 88.935 317.131 85.7046 312.732 82.6478C310.533 81.1195 308.211 79.6374 305.754 78.248C303.309 76.847 300.729 75.5502 298.002 74.4155C295.287 73.3039 292.412 72.3313 289.377 71.8682C287.866 71.6482 286.306 71.544 284.782 71.764C284.021 71.8798 283.271 72.0766 282.559 72.3661C281.858 72.6903 281.22 73.1071 280.691 73.6513C280.188 74.2071 279.807 74.8555 279.549 75.5386C279.315 76.2333 279.192 76.9628 279.156 77.6922C279.094 79.1511 279.389 80.5984 279.794 81.9879C280.618 84.7667 281.969 87.3487 283.456 89.7687C284.954 92.1886 286.625 94.458 288.37 96.5884C290.114 98.7189 291.945 100.734 293.8 102.621C297.523 106.395 301.368 109.707 305.152 112.59C308.936 115.473 312.659 117.928 316.209 119.919C319.76 121.911 323.126 123.485 326.21 124.562C329.281 125.639 332.07 126.253 334.38 126.345C335.535 126.392 336.567 126.334 337.427 126.149C337.648 126.114 337.844 126.044 338.041 125.998C338.237 125.952 338.434 125.894 338.594 125.824C338.766 125.755 338.938 125.697 339.085 125.639C339.233 125.57 339.38 125.489 339.515 125.419C339.785 125.292 339.994 125.13 340.191 125.002C340.277 124.933 340.375 124.886 340.449 124.829C340.523 124.771 340.584 124.713 340.633 124.655C340.854 124.446 340.977 124.354 340.977 124.354C340.977 124.354 340.867 124.458 340.645 124.666C340.584 124.724 340.523 124.782 340.461 124.84C340.387 124.898 340.301 124.956 340.203 125.025C340.019 125.153 339.81 125.315 339.54 125.442C339.405 125.512 339.269 125.593 339.11 125.662C338.95 125.72 338.79 125.79 338.606 125.859C338.434 125.929 338.25 125.986 338.041 126.033C337.844 126.079 337.636 126.16 337.414 126.183C336.542 126.369 335.51 126.438 334.343 126.392C332.021 126.311 329.22 125.709 326.136 124.632C323.04 123.567 319.674 122.003 316.111 120.012C312.548 118.02 308.826 115.566 305.029 112.683C301.245 109.8 297.388 106.488 293.653 102.714C291.785 100.826 289.955 98.8115 288.21 96.6695C286.453 94.539 284.782 92.2581 283.271 89.8381C281.785 87.4066 280.421 84.8246 279.586 82.011C279.18 80.61 278.885 79.1511 278.947 77.6691C278.971 76.928 279.106 76.187 279.34 75.4691C279.61 74.7628 279.991 74.0913 280.519 73.5239C281.06 72.9682 281.723 72.5282 282.436 72.204C283.161 71.8914 283.935 71.6945 284.709 71.5787C286.269 71.3587 287.842 71.463 289.365 71.6829C292.412 72.1461 295.299 73.1303 298.026 74.2418C300.754 75.3765 303.346 76.6849 305.791 78.0859C308.248 79.4869 310.57 80.969 312.782 82.4973C317.192 85.5656 321.124 88.7961 324.588 92.0149C328.053 95.2338 331.063 98.4526 333.569 101.556C336.075 104.659 338.115 107.646 339.589 110.425C341.063 113.192 342.034 115.739 342.378 117.905C342.55 118.981 342.599 119.966 342.501 120.799C342.501 121.008 342.439 121.204 342.402 121.401C342.366 121.598 342.341 121.772 342.279 121.946C342.23 122.119 342.181 122.281 342.132 122.432C342.071 122.582 342.009 122.721 341.948 122.86C341.837 123.127 341.702 123.347 341.579 123.532C341.518 123.624 341.469 123.717 341.419 123.787C341.358 123.856 341.309 123.925 341.26 123.983C341.063 124.215 340.965 124.331 340.965 124.331L340.989 124.354Z" fill="#FF725E"/>
<path d="M352.133 98.9852C352.133 98.9852 352.12 98.8347 352.096 98.5452C352.096 98.4757 352.084 98.3947 352.071 98.3021C352.059 98.2094 352.034 98.1168 352.01 98.0126C351.961 97.8042 351.912 97.5495 351.801 97.2832C351.752 97.1442 351.703 97.0053 351.641 96.8547C351.568 96.7158 351.482 96.5653 351.408 96.4032C351.334 96.2411 351.224 96.0906 351.113 95.9285C351.002 95.7664 350.904 95.5927 350.757 95.4306C350.241 94.7474 349.504 94.0643 348.619 93.3696C346.838 91.9802 344.319 90.695 341.26 89.5718C338.201 88.4371 334.576 87.4993 330.522 86.7582C326.468 86.0172 321.947 85.5193 317.094 85.2993C312.241 85.0793 307.032 85.1372 301.589 85.6235C298.874 85.8667 296.085 86.2256 293.272 86.7119C290.458 87.2098 287.608 87.8466 284.782 88.715C281.969 89.595 279.131 90.6718 276.551 92.2233C275.273 93.0107 274.032 93.9022 273.05 95.0253C272.558 95.5927 272.14 96.2064 271.821 96.8663C271.526 97.5379 271.354 98.2558 271.342 98.9968C271.354 99.7262 271.526 100.456 271.821 101.127C272.14 101.799 272.558 102.412 273.05 102.98C274.032 104.103 275.273 105.006 276.551 105.782C279.131 107.345 281.969 108.41 284.782 109.29C287.608 110.159 290.458 110.807 293.272 111.293C296.085 111.791 298.862 112.138 301.589 112.382C307.032 112.868 312.241 112.914 317.106 112.706C321.959 112.486 326.468 111.988 330.534 111.247C334.589 110.506 338.213 109.568 341.272 108.433C344.331 107.31 346.838 106.025 348.631 104.636C349.516 103.941 350.253 103.258 350.769 102.575C350.916 102.412 351.015 102.227 351.125 102.077C351.236 101.915 351.346 101.764 351.42 101.602C351.506 101.44 351.58 101.289 351.654 101.15C351.715 101 351.764 100.861 351.813 100.722C351.924 100.456 351.973 100.201 352.022 99.9925C352.047 99.8883 352.071 99.7841 352.084 99.7031C352.084 99.6104 352.096 99.5294 352.108 99.4599C352.133 99.1705 352.145 99.0199 352.145 99.0199C352.145 99.0199 352.145 99.1705 352.12 99.4599C352.12 99.5294 352.12 99.622 352.108 99.7031C352.108 99.7957 352.071 99.8883 352.047 100.004C351.998 100.213 351.961 100.467 351.85 100.734C351.801 100.873 351.752 101.011 351.69 101.162C351.617 101.312 351.543 101.463 351.457 101.614C351.383 101.776 351.273 101.938 351.162 102.1C351.052 102.262 350.953 102.447 350.806 102.609C350.29 103.304 349.565 103.999 348.668 104.693C346.887 106.094 344.368 107.391 341.309 108.526C338.25 109.672 334.626 110.622 330.559 111.363C326.492 112.115 321.984 112.613 317.118 112.845C312.253 113.065 307.044 113.018 301.589 112.544C298.862 112.301 296.073 111.953 293.26 111.455C290.446 110.969 287.584 110.321 284.746 109.452C281.92 108.572 279.082 107.495 276.465 105.921C275.175 105.133 273.922 104.23 272.914 103.084C272.411 102.517 271.981 101.88 271.661 101.197C271.366 100.502 271.182 99.761 271.17 98.9968C271.182 98.2442 271.366 97.4916 271.674 96.7969C271.993 96.1137 272.435 95.4769 272.927 94.9095C273.934 93.7633 275.187 92.8601 276.477 92.0728C279.082 90.5097 281.92 89.4213 284.746 88.5529C287.584 87.6845 290.434 87.0361 293.26 86.5498C296.073 86.0519 298.862 85.7046 301.589 85.4614C307.044 84.9867 312.253 84.9288 317.118 85.1604C321.984 85.392 326.492 85.9014 330.559 86.6425C334.626 87.3951 338.25 88.3445 341.309 89.4792C344.368 90.6139 346.887 91.9107 348.668 93.3117C349.565 94.0064 350.29 94.7011 350.806 95.3958C350.953 95.5579 351.052 95.7432 351.162 95.9053C351.273 96.0674 351.383 96.2295 351.457 96.3916C351.543 96.5537 351.617 96.7042 351.69 96.8432C351.752 96.9937 351.801 97.1442 351.85 97.2716C351.961 97.5379 352.01 97.7926 352.047 98.001C352.071 98.1052 352.096 98.2094 352.108 98.3021C352.108 98.3947 352.108 98.4757 352.12 98.5452C352.145 98.8347 352.145 98.9852 352.145 98.9852H352.133Z" fill="#FF725E"/>
<path d="M337.365 67.3988C337.365 67.3988 337.23 67.3178 336.972 67.1557C336.911 67.121 336.837 67.0746 336.751 67.0167C336.665 66.9704 336.567 66.9357 336.468 66.8894C336.26 66.7968 336.026 66.681 335.731 66.5999C335.584 66.5536 335.436 66.5073 335.277 66.461C335.105 66.4262 334.933 66.3915 334.748 66.3568C334.564 66.3105 334.368 66.2989 334.171 66.2873C333.962 66.2757 333.753 66.241 333.532 66.241C332.648 66.2062 331.616 66.3336 330.498 66.5652C328.237 67.0399 325.62 68.1283 322.807 69.7146C319.981 71.3008 316.983 73.4197 313.875 75.9901C310.767 78.5606 307.585 81.6173 304.427 85.0909C301.27 88.576 298.125 92.4896 295.189 96.8431C293.727 99.0199 292.314 101.301 291.011 103.709C289.697 106.106 288.505 108.619 287.498 111.258C286.502 113.898 285.679 116.666 285.397 119.537C285.274 120.973 285.262 122.443 285.606 123.868C285.778 124.574 286.036 125.269 286.404 125.917C286.785 126.554 287.289 127.121 287.891 127.584C288.517 128.024 289.23 128.337 289.967 128.534C290.717 128.707 291.49 128.777 292.264 128.754C293.812 128.707 295.324 128.337 296.761 127.862C299.648 126.89 302.29 125.442 304.747 123.879C307.204 122.304 309.489 120.579 311.627 118.785C313.764 116.99 315.767 115.137 317.634 113.262C321.369 109.499 324.613 105.654 327.402 101.903C330.19 98.1515 332.537 94.4811 334.404 91.0075C336.272 87.534 337.697 84.2572 338.631 81.2931C339.552 78.329 340.019 75.6659 339.958 73.4892C339.921 72.4008 339.798 71.4398 339.54 70.6293C339.491 70.4208 339.405 70.2356 339.343 70.0619C339.282 69.8767 339.208 69.703 339.122 69.5525C339.036 69.3904 338.962 69.2398 338.889 69.1009C338.803 68.9619 338.717 68.8346 338.631 68.7188C338.483 68.4641 338.299 68.2788 338.152 68.1167C338.078 68.0357 338.016 67.9546 337.943 67.8851C337.869 67.8272 337.808 67.7694 337.746 67.723C337.513 67.5262 337.402 67.422 337.402 67.422C337.402 67.422 337.525 67.5146 337.758 67.7115C337.82 67.7578 337.881 67.8157 337.955 67.8736C338.029 67.943 338.09 68.0125 338.164 68.0936C338.311 68.2557 338.496 68.4409 338.655 68.6956C338.741 68.8114 338.827 68.9388 338.913 69.0777C338.987 69.2167 339.073 69.3788 339.147 69.5293C339.233 69.6798 339.306 69.8651 339.368 70.0388C339.429 70.224 339.528 70.4093 339.577 70.6177C339.835 71.4282 339.97 72.3892 340.019 73.4892C340.105 75.6775 339.65 78.3522 338.729 81.3279C337.808 84.3035 336.382 87.5919 334.527 91.077C332.66 94.5622 330.326 98.2326 327.537 101.996C324.748 105.759 321.504 109.614 317.77 113.377C315.902 115.265 313.9 117.117 311.75 118.912C309.612 120.707 307.314 122.443 304.857 124.018C302.388 125.593 299.746 127.04 296.835 128.024C295.385 128.499 293.849 128.881 292.277 128.927C291.49 128.951 290.692 128.881 289.918 128.707C289.156 128.511 288.419 128.186 287.768 127.735C287.141 127.26 286.625 126.67 286.232 126.021C285.851 125.361 285.593 124.655 285.421 123.925C285.077 122.478 285.09 120.984 285.212 119.549C285.495 116.642 286.33 113.875 287.326 111.224C288.333 108.584 289.537 106.06 290.852 103.663C292.166 101.255 293.579 98.9736 295.041 96.7968C297.977 92.4433 301.135 88.5297 304.304 85.0446C307.474 81.5594 310.668 78.5143 313.789 75.9438C316.91 73.3734 319.92 71.2545 322.758 69.6798C325.583 68.0936 328.212 67.0167 330.485 66.542C331.616 66.3105 332.648 66.1831 333.544 66.2294C333.766 66.2294 333.987 66.2641 334.183 66.2757C334.392 66.2873 334.589 66.3105 334.773 66.3568C334.957 66.3915 335.129 66.4262 335.301 66.461C335.461 66.5073 335.621 66.5652 335.756 66.5999C336.051 66.681 336.284 66.7968 336.493 66.901C336.591 66.9473 336.69 66.9936 336.776 67.0399C336.862 67.0862 336.923 67.1325 336.997 67.1788C337.255 67.3409 337.39 67.4336 337.39 67.4336L337.365 67.3988Z" fill="#FF725E"/>
<path d="M270.801 114.72C271.391 115.276 271.391 116.168 270.801 116.724C270.212 117.279 269.266 117.279 268.676 116.724C268.086 116.168 268.086 115.276 268.676 114.72C269.266 114.165 270.212 114.165 270.801 114.72Z" fill="#FF725E"/>
<path d="M355.56 70.8492C355.56 71.6366 354.885 72.2618 354.062 72.2618C353.238 72.2618 352.563 71.625 352.563 70.8492C352.563 70.0735 353.238 69.4366 354.062 69.4366C354.885 69.4366 355.56 70.0735 355.56 70.8492Z" fill="#FF725E"/>
<path d="M280.286 119.375C280.286 119.572 280.114 119.734 279.905 119.734C279.696 119.734 279.524 119.572 279.524 119.375C279.524 119.178 279.696 119.016 279.905 119.016C280.114 119.016 280.286 119.178 280.286 119.375Z" fill="#FF725E"/>
<path d="M288.431 79.7068C288.431 79.9037 288.259 80.0658 288.05 80.0658C287.842 80.0658 287.67 79.9037 287.67 79.7068C287.67 79.51 287.842 79.3479 288.05 79.3479C288.259 79.3479 288.431 79.51 288.431 79.7068Z" fill="#FF725E"/>
<path d="M348.005 98.9852C348.005 99.182 347.833 99.3441 347.624 99.3441C347.415 99.3441 347.243 99.182 347.243 98.9852C347.243 98.7883 347.415 98.6262 347.624 98.6262C347.833 98.6262 348.005 98.7883 348.005 98.9852Z" fill="#FF725E"/>
<path d="M353.312 82.2078C353.312 82.4046 353.14 82.5667 352.931 82.5667C352.722 82.5667 352.55 82.4046 352.55 82.2078C352.55 82.011 352.722 81.8489 352.931 81.8489C353.14 81.8489 353.312 82.011 353.312 82.2078Z" fill="#FF725E"/>
<path d="M327.586 106.893H322.868V82.671C322.868 76.9743 317.942 72.3313 311.897 72.3313C305.852 72.3313 300.926 76.9743 300.926 82.671V106.893H296.208V82.671C296.208 74.5197 303.248 67.8851 311.897 67.8851C320.546 67.8851 327.586 74.5197 327.586 82.671V106.893Z" fill="#92E3A9" stroke="#E0E0E0" stroke-miterlimit="10"/>
<g opacity="0.3">
<path d="M327.586 106.893H322.868V82.671C322.868 76.9743 317.942 72.3313 311.897 72.3313C305.852 72.3313 300.926 76.9743 300.926 82.671V106.893H296.208V82.671C296.208 74.5197 303.248 67.8851 311.897 67.8851C320.546 67.8851 327.586 74.5197 327.586 82.671V106.893Z" fill="#92E3A9" stroke="#E0E0E0" stroke-miterlimit="10"/>
</g>
<path d="M330.276 96.1252H293.518C291.991 96.1252 290.753 97.2916 290.753 98.7304V119.086C290.753 120.524 291.991 121.691 293.518 121.691H330.276C331.803 121.691 333.041 120.524 333.041 119.086V98.7304C333.041 97.2916 331.803 96.1252 330.276 96.1252Z" fill="#92E3A9" stroke="#E0E0E0" stroke-miterlimit="10"/>
<g opacity="0.3">
<path d="M315.435 105.573C315.435 103.732 313.85 102.239 311.897 102.239C309.944 102.239 308.359 103.732 308.359 105.573C308.359 107.09 309.452 108.364 310.926 108.757V113.736H312.855V108.757C314.33 108.364 315.423 107.09 315.423 105.573H315.435Z" fill="#92E3A9" stroke="#E0E0E0" stroke-miterlimit="10"/>
</g>
<path d="M293.002 119.271C292.903 119.271 292.83 115.01 292.83 109.753C292.83 104.497 292.903 100.224 293.002 100.224C293.1 100.224 293.174 104.485 293.174 109.753C293.174 115.022 293.1 119.271 293.002 119.271Z" fill="#FAFAFA"/>
<path d="M309.133 109.846C309.133 109.846 308.973 109.8 308.715 109.626C308.469 109.452 308.138 109.174 307.806 108.746C307.142 107.935 306.54 106.453 306.934 104.856C307.339 103.258 308.592 102.192 309.563 101.741C310.054 101.509 310.484 101.394 310.791 101.347C311.098 101.301 311.27 101.301 311.27 101.324C311.283 101.382 310.595 101.451 309.686 101.949C308.789 102.424 307.658 103.455 307.278 104.937C306.909 106.407 307.437 107.808 308.015 108.619C308.592 109.452 309.182 109.8 309.133 109.846Z" fill="#FAFAFA"/>
<path d="M374.677 143.597H244.485C238.162 143.597 233.035 148.429 233.035 154.389V155.708C233.035 161.668 238.162 166.5 244.485 166.5H374.677C381.001 166.5 386.127 161.668 386.127 155.708V154.389C386.127 148.429 381.001 143.597 374.677 143.597Z" fill="#F5F5F5"/>
<path d="M375.795 175.01H245.603C239.28 175.01 234.153 179.841 234.153 185.801V187.121C234.153 193.081 239.28 197.912 245.603 197.912H375.795C382.119 197.912 387.245 193.081 387.245 187.121V185.801C387.245 179.841 382.119 175.01 375.795 175.01Z" fill="#F5F5F5"/>
<path d="M257.226 154.875V151.552H258.675V154.817C258.675 155.94 259.191 156.403 260.076 156.403C260.961 156.403 261.477 155.94 261.477 154.817V151.552H262.914V154.875C262.914 156.623 261.857 157.584 260.064 157.584C258.27 157.584 257.213 156.623 257.213 154.875H257.226Z" fill="#263238"/>
<path d="M263.786 157.063L264.253 156.114C264.683 156.38 265.334 156.554 265.936 156.554C266.587 156.554 266.821 156.392 266.821 156.137C266.821 155.396 263.909 156.149 263.909 154.331C263.909 153.462 264.732 152.86 266.145 152.86C266.809 152.86 267.546 152.999 268 153.254L267.533 154.192C267.054 153.937 266.575 153.856 266.145 153.856C265.519 153.856 265.248 154.041 265.248 154.284C265.248 155.06 268.172 154.308 268.172 156.102C268.172 156.947 267.337 157.55 265.887 157.55C265.064 157.55 264.241 157.341 263.799 157.063H263.786Z" fill="#263238"/>
<path d="M273.738 155.581H270.089C270.224 156.148 270.74 156.496 271.465 156.496C271.981 156.496 272.349 156.357 272.681 156.056L273.431 156.82C272.976 157.306 272.313 157.561 271.44 157.561C269.769 157.561 268.688 156.565 268.688 155.222C268.688 153.879 269.794 152.883 271.268 152.883C272.743 152.883 273.787 153.775 273.787 155.245C273.787 155.35 273.775 155.488 273.762 155.604L273.738 155.581ZM270.064 154.805H272.448C272.349 154.226 271.895 153.856 271.268 153.856C270.642 153.856 270.175 154.215 270.077 154.805H270.064Z" fill="#263238"/>
<path d="M277.694 152.86V154.076C277.571 154.076 277.485 154.064 277.374 154.064C276.6 154.064 276.084 154.458 276.084 155.338V157.492H274.684V152.941H276.023V153.543C276.367 153.103 276.944 152.872 277.681 152.872L277.694 152.86Z" fill="#263238"/>
<path d="M283.468 154.875V157.48H282.067V155.072C282.067 154.331 281.711 153.995 281.084 153.995C280.409 153.995 279.93 154.389 279.93 155.222V157.468H278.529V152.918H279.868V153.451C280.249 153.057 280.814 152.849 281.465 152.849C282.608 152.849 283.468 153.474 283.468 154.863V154.875Z" fill="#263238"/>
<path d="M289.009 154.886V157.48H287.694V156.913C287.436 157.33 286.933 157.55 286.22 157.55C285.09 157.55 284.414 156.959 284.414 156.172C284.414 155.384 285.016 154.805 286.49 154.805H287.608C287.608 154.238 287.252 153.914 286.49 153.914C285.974 153.914 285.446 154.076 285.102 154.342L284.598 153.416C285.127 153.057 285.913 152.86 286.687 152.86C288.161 152.86 289.009 153.509 289.009 154.886ZM287.608 156.044V155.581H286.65C285.999 155.581 285.79 155.813 285.79 156.114C285.79 156.45 286.085 156.67 286.576 156.67C287.043 156.67 287.449 156.461 287.608 156.056V156.044Z" fill="#263238"/>
<path d="M298.432 154.875V157.48H297.031V155.072C297.031 154.331 296.675 153.995 296.11 153.995C295.483 153.995 295.041 154.377 295.041 155.187V157.468H293.641V155.06C293.641 154.319 293.309 153.983 292.719 153.983C292.105 153.983 291.663 154.365 291.663 155.176V157.457H290.262V152.907H291.601V153.428C291.957 153.034 292.498 152.837 293.125 152.837C293.8 152.837 294.378 153.08 294.709 153.578C295.09 153.115 295.729 152.837 296.454 152.837C297.609 152.837 298.432 153.462 298.432 154.852V154.875Z" fill="#263238"/>
<path d="M304.452 155.581H300.803C300.938 156.148 301.454 156.496 302.179 156.496C302.695 156.496 303.064 156.357 303.395 156.056L304.145 156.82C303.69 157.306 303.027 157.561 302.154 157.561C300.484 157.561 299.402 156.565 299.402 155.222C299.402 153.879 300.508 152.883 301.982 152.883C303.457 152.883 304.501 153.775 304.501 155.245C304.501 155.35 304.489 155.488 304.476 155.604L304.452 155.581ZM300.778 154.805H303.162C303.064 154.226 302.609 153.856 301.982 153.856C301.356 153.856 300.889 154.215 300.791 154.805H300.778Z" fill="#263238"/>
<path d="M313.715 155.164C313.715 156.681 312.978 157.538 311.872 157.538C311.258 157.538 310.828 157.283 310.644 156.797C310.324 157.272 309.821 157.538 309.108 157.538C307.953 157.538 307.032 156.67 307.032 155.396C307.032 154.122 307.941 153.265 309.108 153.265C309.698 153.265 310.165 153.462 310.496 153.821V153.323H311.713V156.068C311.713 156.473 311.897 156.612 312.143 156.612C312.56 156.612 312.806 156.16 312.806 155.176C312.806 153.462 311.455 152.27 309.464 152.27C307.474 152.27 306.123 153.555 306.123 155.326C306.123 157.098 307.437 158.406 309.428 158.406C309.993 158.406 310.632 158.291 311.197 158.036L311.479 158.812C310.926 159.078 310.128 159.217 309.428 159.217C306.835 159.217 305.115 157.561 305.115 155.326C305.115 153.092 306.848 151.471 309.464 151.471C312.081 151.471 313.715 153.034 313.715 155.164ZM310.509 155.396C310.509 154.655 310.03 154.25 309.391 154.25C308.752 154.25 308.273 154.678 308.273 155.396C308.273 156.114 308.727 156.565 309.391 156.565C310.054 156.565 310.509 156.137 310.509 155.396Z" fill="#263238"/>
<path d="M322.868 154.875V157.48H321.468V155.072C321.468 154.331 321.111 153.995 320.546 153.995C319.92 153.995 319.477 154.377 319.477 155.187V157.468H318.077V155.06C318.077 154.319 317.745 153.983 317.155 153.983C316.541 153.983 316.099 154.365 316.099 155.176V157.457H314.698V152.907H316.037V153.428C316.394 153.034 316.934 152.837 317.561 152.837C318.236 152.837 318.814 153.08 319.146 153.578C319.526 153.115 320.165 152.837 320.89 152.837C322.045 152.837 322.868 153.462 322.868 154.852V154.875Z" fill="#263238"/>
<path d="M328.397 154.886V157.48H327.082V156.913C326.824 157.33 326.32 157.55 325.608 157.55C324.478 157.55 323.802 156.959 323.802 156.172C323.802 155.384 324.404 154.805 325.878 154.805H326.996C326.996 154.238 326.64 153.914 325.878 153.914C325.362 153.914 324.834 154.076 324.49 154.342L323.986 153.416C324.514 153.057 325.301 152.86 326.075 152.86C327.549 152.86 328.397 153.509 328.397 154.886ZM326.996 156.044V155.581H326.038C325.387 155.581 325.178 155.813 325.178 156.114C325.178 156.45 325.473 156.67 325.964 156.67C326.431 156.67 326.836 156.461 326.996 156.056V156.044Z" fill="#263238"/>
<path d="M329.502 151.552C329.502 151.135 329.859 150.811 330.375 150.811C330.891 150.811 331.247 151.112 331.247 151.517C331.247 151.957 330.891 152.281 330.375 152.281C329.859 152.281 329.502 151.957 329.502 151.54V151.552ZM329.674 152.918H331.075V157.468H329.674V152.918Z" fill="#263238"/>
<path d="M332.365 151.204H333.766V157.48H332.365V151.204Z" fill="#263238"/>
<path d="M334.736 156.716C334.736 156.23 335.117 155.905 335.608 155.905C336.1 155.905 336.481 156.23 336.481 156.716C336.481 157.202 336.1 157.55 335.608 157.55C335.117 157.55 334.736 157.202 334.736 156.716Z" fill="#263238"/>
<path d="M337.009 155.199C337.009 153.833 338.127 152.86 339.7 152.86C340.719 152.86 341.518 153.277 341.862 154.018L340.781 154.574C340.523 154.145 340.13 153.949 339.7 153.949C338.987 153.949 338.434 154.412 338.434 155.211C338.434 156.01 338.987 156.473 339.7 156.473C340.142 156.473 340.523 156.287 340.781 155.848L341.862 156.403C341.506 157.133 340.707 157.55 339.7 157.55C338.127 157.55 337.009 156.577 337.009 155.211V155.199Z" fill="#263238"/>
<path d="M342.243 155.199C342.243 153.833 343.361 152.86 344.896 152.86C346.432 152.86 347.55 153.833 347.55 155.199C347.55 156.565 346.432 157.538 344.896 157.538C343.361 157.538 342.243 156.565 342.243 155.199ZM346.125 155.199C346.125 154.412 345.597 153.937 344.896 153.937C344.196 153.937 343.656 154.412 343.656 155.199C343.656 155.986 344.196 156.461 344.896 156.461C345.597 156.461 346.125 155.986 346.125 155.199Z" fill="#263238"/>
<path d="M356.654 154.875V157.48H355.253V155.072C355.253 154.331 354.897 153.995 354.332 153.995C353.705 153.995 353.263 154.377 353.263 155.187V157.468H351.862V155.06C351.862 154.319 351.531 153.983 350.941 153.983C350.327 153.983 349.884 154.365 349.884 155.176V157.457H348.484V152.907H349.823V153.428C350.179 153.034 350.72 152.837 351.346 152.837C352.022 152.837 352.6 153.08 352.931 153.578C353.312 153.115 353.951 152.837 354.676 152.837C355.831 152.837 356.654 153.462 356.654 154.852V154.875Z" fill="#263238"/>
<path d="M275.986 186.589L278.259 187.746L277.239 189.356L274.942 188.082L274.979 190.467H273.013L273.037 188.071L270.74 189.367L269.733 187.758L272.005 186.6L269.733 185.419L270.74 183.81L273.037 185.106L273.013 182.71H274.979L274.942 185.106L277.239 183.81L278.259 185.419L275.986 186.6V186.589Z" fill="#263238"/>
<path d="M285.458 186.589L287.731 187.746L286.711 189.356L284.414 188.082L284.451 190.467H282.485L282.51 188.071L280.212 189.367L279.205 187.758L281.478 186.6L279.205 185.419L280.212 183.81L282.51 185.106L282.485 182.71H284.451L284.414 185.106L286.711 183.81L287.731 185.419L285.458 186.6V186.589Z" fill="#263238"/>
<path d="M294.931 186.589L297.203 187.746L296.184 189.356L293.886 188.082L293.923 190.467H291.957L291.982 188.071L289.685 189.367L288.677 187.758L290.95 186.6L288.677 185.419L289.685 183.81L291.982 185.106L291.957 182.71H293.923L293.886 185.106L296.184 183.81L297.203 185.419L294.931 186.6V186.589Z" fill="#263238"/>
<path d="M304.391 186.589L306.663 187.746L305.644 189.356L303.346 188.082L303.383 190.467H301.417L301.442 188.071L299.145 189.367L298.137 187.758L300.41 186.6L298.137 185.419L299.145 183.81L301.442 185.106L301.417 182.71H303.383L303.346 185.106L305.644 183.81L306.663 185.419L304.391 186.6V186.589Z" fill="#263238"/>
<path d="M313.863 186.589L316.136 187.746L315.116 189.356L312.819 188.082L312.855 190.467H310.89L310.914 188.071L308.617 189.367L307.609 187.758L309.882 186.6L307.609 185.419L308.617 183.81L310.914 185.106L310.89 182.71H312.855L312.819 185.106L315.116 183.81L316.136 185.419L313.863 186.6V186.589Z" fill="#263238"/>
<path d="M323.335 186.589L325.608 187.746L324.588 189.356L322.291 188.082L322.328 190.467H320.362L320.387 188.071L318.089 189.367L317.082 187.758L319.355 186.6L317.082 185.419L318.089 183.81L320.387 185.106L320.362 182.71H322.328L322.291 185.106L324.588 183.81L325.608 185.419L323.335 186.6V186.589Z" fill="#263238"/>
<path d="M332.795 186.589L335.068 187.746L334.048 189.356L331.751 188.082L331.788 190.467H329.822L329.846 188.071L327.549 189.367L326.542 187.758L328.814 186.6L326.542 185.419L327.549 183.81L329.846 185.106L329.822 182.71H331.788L331.751 185.106L334.048 183.81L335.068 185.419L332.795 186.6V186.589Z" fill="#263238"/>
<path d="M342.267 186.589L344.54 187.746L343.52 189.356L341.223 188.082L341.26 190.467H339.294L339.319 188.071L337.021 189.367L336.014 187.758L338.287 186.6L336.014 185.419L337.021 183.81L339.319 185.106L339.294 182.71H341.26L341.223 185.106L343.52 183.81L344.54 185.419L342.267 186.6V186.589Z" fill="#263238"/>
<path d="M445.799 250.421H262.717C258.388 250.421 254.879 253.728 254.879 257.808V347.125C254.879 351.205 258.388 354.512 262.717 354.512H445.799C450.128 354.512 453.637 351.205 453.637 347.125V257.808C453.637 253.728 450.128 250.421 445.799 250.421Z" fill="white"/>
<path d="M445.799 354.512C445.799 354.512 446.327 354.512 447.347 354.339C448.33 354.13 449.853 353.656 451.291 352.313C451.991 351.641 452.642 350.761 453.06 349.673C453.293 349.128 453.404 348.526 453.502 347.901C453.551 347.276 453.539 346.604 453.539 345.91C453.539 343.131 453.527 339.923 453.514 336.323C453.49 321.884 453.453 301.02 453.416 275.234C453.416 272.015 453.416 268.704 453.416 265.334C453.416 263.644 453.416 261.942 453.416 260.217C453.367 258.491 453.613 256.72 452.863 255.145C452.187 253.571 450.885 252.216 449.227 251.428C448.403 251.035 447.507 250.792 446.573 250.699C445.664 250.63 444.669 250.676 443.698 250.664C439.816 250.664 435.86 250.664 431.842 250.664C415.748 250.664 398.56 250.687 380.464 250.687C344.282 250.687 304.501 250.699 262.742 250.711C261.489 250.711 260.248 251.012 259.142 251.567C258.061 252.146 257.103 252.945 256.427 253.941C255.764 254.925 255.321 256.06 255.248 257.229C255.186 258.399 255.235 259.649 255.223 260.853C255.223 265.716 255.223 270.545 255.223 275.338C255.223 284.925 255.223 294.362 255.223 303.648C255.223 312.922 255.223 322.046 255.223 330.973C255.223 335.431 255.223 339.854 255.223 344.219C255.223 345.308 255.199 346.419 255.235 347.473C255.285 348.515 255.592 349.545 256.095 350.46C257.127 352.301 259.044 353.644 261.182 354.072C262.238 354.304 263.356 354.211 264.487 354.235C265.605 354.235 266.735 354.235 267.853 354.235C270.089 354.235 272.3 354.235 274.512 354.235C278.922 354.235 283.271 354.235 287.559 354.235C296.135 354.235 304.452 354.235 312.499 354.246C328.593 354.258 343.582 354.269 357.268 354.281C384.628 354.316 406.767 354.35 422.088 354.374C429.729 354.397 435.676 354.42 439.705 354.431C441.708 354.443 443.243 354.455 444.288 354.466C445.32 354.466 445.848 354.501 445.848 354.501C445.848 354.501 445.32 354.524 444.288 354.536C443.243 354.536 441.708 354.547 439.705 354.57C435.663 354.582 429.729 354.605 422.088 354.628C406.767 354.651 384.628 354.686 357.268 354.721C343.582 354.721 328.593 354.744 312.499 354.756C304.452 354.756 296.135 354.756 287.559 354.767C283.271 354.767 278.922 354.767 274.512 354.767C272.313 354.767 270.089 354.767 267.853 354.767C266.735 354.767 265.617 354.767 264.487 354.767C263.381 354.744 262.226 354.848 261.059 354.605C258.761 354.154 256.697 352.695 255.579 350.715C255.027 349.731 254.695 348.619 254.646 347.496C254.609 346.384 254.646 345.319 254.621 344.219C254.621 339.854 254.621 335.431 254.621 330.973C254.621 322.046 254.621 312.934 254.621 303.648C254.621 294.373 254.621 284.925 254.621 275.338C254.621 270.545 254.621 265.716 254.621 260.853C254.633 259.626 254.584 258.445 254.658 257.183C254.744 255.909 255.223 254.682 255.948 253.617C256.673 252.54 257.717 251.672 258.897 251.046C260.088 250.444 261.44 250.12 262.803 250.12C304.563 250.12 344.344 250.132 380.525 250.143C398.622 250.143 415.81 250.166 431.904 250.166C435.921 250.166 439.877 250.166 443.76 250.166C444.742 250.178 445.676 250.132 446.683 250.201C447.666 250.294 448.637 250.56 449.509 250.989C451.266 251.822 452.654 253.269 453.367 254.948C453.735 255.794 453.92 256.685 453.944 257.588C453.944 258.457 453.944 259.325 453.944 260.193C453.944 261.919 453.944 263.621 453.944 265.311C453.944 268.681 453.944 271.992 453.944 275.211C453.907 300.996 453.871 321.861 453.846 336.299C453.846 339.9 453.822 343.108 453.822 345.886C453.822 346.581 453.822 347.253 453.772 347.901C453.674 348.538 453.551 349.152 453.305 349.707C452.863 350.819 452.2 351.71 451.475 352.382C450.001 353.725 448.453 354.2 447.457 354.385C446.941 354.466 446.561 354.501 446.29 354.501C446.032 354.501 445.897 354.501 445.897 354.501L445.799 354.512Z" fill="#263238"/>
<path d="M324.134 287.206V288.503H318.384V281.498H323.998V282.795H320.092V284.312H323.544V285.574H320.092V287.195H324.134V287.206Z" fill="#263238"/>
<path d="M332.316 281.498V288.503H330.903L327.205 284.254V288.503H325.51V281.498H326.935L330.633 285.747V281.498H332.328H332.316Z" fill="#263238"/>
<path d="M335.608 282.818H333.237V281.498H339.712V282.818H337.341V288.503H335.621V282.818H335.608Z" fill="#263238"/>
<path d="M346.383 287.206V288.503H340.633V281.498H346.248V282.795H342.341V284.312H345.793V285.574H342.341V287.195H346.383V287.206Z" fill="#263238"/>
<path d="M352.489 288.503L351.052 286.558H349.467V288.503H347.747V281.498H350.966C352.944 281.498 354.184 282.471 354.184 284.034C354.184 285.087 353.619 285.851 352.661 286.245L354.332 288.491H352.489V288.503ZM350.88 282.818H349.479V285.261H350.88C351.936 285.261 352.464 284.798 352.464 284.045C352.464 283.293 351.936 282.829 350.88 282.829V282.818Z" fill="#263238"/>
<path d="M358.091 285.006C358.091 282.899 359.811 281.382 362.121 281.382C363.399 281.382 364.48 281.822 365.18 282.621L364.074 283.582C363.571 283.038 362.944 282.76 362.207 282.76C360.819 282.76 359.836 283.675 359.836 284.995C359.836 286.315 360.819 287.229 362.207 287.229C362.944 287.229 363.571 286.951 364.074 286.396L365.18 287.357C364.48 288.167 363.411 288.607 362.109 288.607C359.811 288.607 358.091 287.102 358.091 284.983V285.006Z" fill="#263238"/>
<path d="M365.708 285.006C365.708 282.922 367.428 281.382 369.775 281.382C372.122 281.382 373.842 282.911 373.842 285.006C373.842 287.102 372.109 288.63 369.775 288.63C367.441 288.63 365.708 287.09 365.708 285.006ZM372.097 285.006C372.097 283.675 371.102 282.772 369.775 282.772C368.448 282.772 367.453 283.686 367.453 285.006C367.453 286.326 368.448 287.241 369.775 287.241C371.102 287.241 372.097 286.326 372.097 285.006Z" fill="#263238"/>
<path d="M375.144 281.498H378.522C380.955 281.498 382.613 282.876 382.613 284.995C382.613 287.114 380.943 288.491 378.522 288.491H375.144V281.486V281.498ZM378.436 287.172C379.911 287.172 380.881 286.338 380.881 285.006C380.881 283.675 379.911 282.841 378.436 282.841H376.864V287.183H378.436V287.172Z" fill="#263238"/>
<path d="M389.653 287.206V288.503H383.904V281.498H389.518V282.795H385.611V284.312H389.064V285.574H385.611V287.195H389.653V287.206Z" fill="#263238"/>
<path d="M295.95 299.676H277.903C275.222 299.676 273.05 301.724 273.05 304.25V330.73C273.05 333.256 275.222 335.304 277.903 335.304H295.95C298.63 335.304 300.803 333.256 300.803 330.73V304.25C300.803 301.724 298.63 299.676 295.95 299.676Z" fill="#EBEBEB"/>
<path d="M330.608 299.676H312.56C309.88 299.676 307.708 301.724 307.708 304.25V330.73C307.708 333.256 309.88 335.304 312.56 335.304H330.608C333.288 335.304 335.461 333.256 335.461 330.73V304.25C335.461 301.724 333.288 299.676 330.608 299.676Z" fill="#EBEBEB"/>
<path d="M365.266 299.676H347.218C344.538 299.676 342.366 301.724 342.366 304.25V330.73C342.366 333.256 344.538 335.304 347.218 335.304H365.266C367.946 335.304 370.119 333.256 370.119 330.73V304.25C370.119 301.724 367.946 299.676 365.266 299.676Z" fill="#EBEBEB"/>
<path d="M399.912 299.676H381.864C379.184 299.676 377.011 301.724 377.011 304.25V330.73C377.011 333.256 379.184 335.304 381.864 335.304H399.912C402.592 335.304 404.765 333.256 404.765 330.73V304.25C404.765 301.724 402.592 299.676 399.912 299.676Z" fill="#EBEBEB"/>
<path d="M434.57 299.676H416.522C413.842 299.676 411.669 301.724 411.669 304.25V330.73C411.669 333.256 413.842 335.304 416.522 335.304H434.57C437.25 335.304 439.423 333.256 439.423 330.73V304.25C439.423 301.724 437.25 299.676 434.57 299.676Z" fill="#EBEBEB"/>
<path d="M292.977 320.24C292.977 322.787 290.889 324.431 288.063 324.431C284.181 324.431 282.141 321.803 282.141 317.45C282.141 312.737 284.795 310.317 288.702 310.317C289.967 310.317 291.147 310.514 292.056 311.035L291.613 311.845C290.852 311.394 289.82 311.209 288.702 311.209C285.385 311.209 283.222 313.258 283.222 317.287C283.222 317.704 283.247 318.318 283.345 318.955C283.959 317.125 285.815 316.095 288.051 316.095C290.999 316.095 292.989 317.727 292.989 320.228L292.977 320.24ZM291.896 320.263C291.896 318.272 290.373 316.986 287.891 316.986C285.409 316.986 283.8 318.434 283.8 320.309C283.8 321.942 285.249 323.563 288.014 323.563C290.311 323.563 291.896 322.266 291.896 320.263Z" fill="#FF725E"/>
<path d="M327.254 320.483H324.158V324.339H323.102V320.483H314.686V319.742L322.696 310.421H323.9L316.037 319.58H323.126V316.176H324.158V319.58H327.254V320.471V320.483Z" fill="#FF725E"/>
<path d="M362.993 326.319C362.993 326.481 360.118 326.62 356.568 326.62C353.017 326.62 350.142 326.481 350.142 326.319C350.142 326.156 353.017 326.018 356.568 326.018C360.118 326.018 362.993 326.156 362.993 326.319Z" fill="#FF725E"/>
<path d="M267.497 263.644C269.159 263.644 270.507 262.374 270.507 260.807C270.507 259.24 269.159 257.97 267.497 257.97C265.834 257.97 264.487 259.24 264.487 260.807C264.487 262.374 265.834 263.644 267.497 263.644Z" fill="#263238"/>
<path d="M279.18 260.807C279.18 262.37 277.829 263.644 276.17 263.644C274.512 263.644 273.16 262.37 273.16 260.807C273.16 259.244 274.512 257.97 276.17 257.97C277.829 257.97 279.18 259.244 279.18 260.807Z" fill="#263238"/>
<path d="M284.684 263.644C286.347 263.644 287.694 262.374 287.694 260.807C287.694 259.24 286.347 257.97 284.684 257.97C283.022 257.97 281.674 259.24 281.674 260.807C281.674 262.374 283.022 263.644 284.684 263.644Z" fill="#263238"/>
<path d="M453.932 268.796C453.932 268.958 409.433 269.097 354.553 269.097C299.673 269.097 255.162 268.958 255.162 268.796C255.162 268.634 299.648 268.495 354.553 268.495C409.458 268.495 453.932 268.634 453.932 268.796Z" fill="#263238"/>
<path d="M230.689 122.629H134.983C132.231 122.629 130.007 124.724 130.007 127.318V168.41C130.007 171.004 132.231 173.1 134.983 173.1H175.133L183.659 183.404L190.76 173.1H230.676C233.428 173.1 235.652 171.004 235.652 168.41V127.318C235.652 124.724 233.428 122.629 230.676 122.629H230.689Z" fill="white"/>
<path d="M230.689 122.629C230.689 122.629 230.848 122.629 231.168 122.629C231.475 122.663 231.954 122.698 232.531 122.918C233.109 123.126 233.809 123.485 234.423 124.122C235.05 124.747 235.591 125.674 235.738 126.808C235.824 131.289 235.812 137.785 235.849 146.029C235.849 150.151 235.873 154.701 235.885 159.634C235.885 162.1 235.885 164.67 235.898 167.322C235.885 167.982 235.947 168.665 235.799 169.371C235.652 170.066 235.345 170.738 234.89 171.316C233.993 172.486 232.507 173.273 230.922 173.32C218.882 173.331 205.38 173.354 190.772 173.377L191.018 173.25C188.782 176.492 186.374 179.989 183.917 183.555L183.684 183.891L183.426 183.578C180.735 180.325 177.836 176.828 174.887 173.273L175.133 173.389C164.076 173.389 152.502 173.389 140.634 173.389H136.494C135.794 173.377 135.143 173.412 134.393 173.354C133.668 173.273 132.956 173.053 132.329 172.706C131.064 172.023 130.142 170.83 129.823 169.487C129.651 168.815 129.7 168.132 129.688 167.507V165.597C129.688 160.514 129.688 155.5 129.688 150.568C129.688 145.647 129.688 140.807 129.688 136.06C129.688 133.686 129.688 131.347 129.688 129.032V127.295C129.688 126.681 129.811 126.079 130.044 125.512C130.511 124.377 131.42 123.427 132.55 122.883C133.116 122.605 133.73 122.432 134.356 122.362C134.995 122.304 135.573 122.339 136.175 122.328C137.354 122.328 138.534 122.328 139.713 122.328C142.047 122.328 144.357 122.328 146.642 122.328C151.188 122.328 155.611 122.328 159.886 122.339C168.425 122.351 176.386 122.362 183.647 122.374C198.156 122.409 209.914 122.443 218.059 122.466C222.101 122.49 225.258 122.513 227.408 122.524C228.465 122.536 229.276 122.548 229.841 122.559C230.394 122.559 230.664 122.594 230.664 122.594C230.664 122.594 230.381 122.617 229.841 122.629C229.276 122.629 228.465 122.64 227.408 122.663C225.246 122.675 222.101 122.698 218.059 122.721C209.914 122.744 198.156 122.779 183.647 122.814C176.386 122.814 168.425 122.837 159.886 122.849C155.611 122.849 151.2 122.849 146.642 122.86C144.369 122.86 142.06 122.86 139.713 122.86C138.546 122.86 137.366 122.86 136.175 122.86C135.585 122.86 134.971 122.849 134.43 122.895C133.877 122.953 133.324 123.115 132.821 123.358C131.813 123.844 131.002 124.69 130.597 125.697C130.388 126.195 130.29 126.739 130.278 127.283V129.02C130.278 131.336 130.278 133.686 130.278 136.048C130.278 140.784 130.278 145.624 130.278 150.556C130.278 155.477 130.278 160.49 130.278 165.585V167.496C130.278 168.144 130.241 168.758 130.4 169.336C130.671 170.506 131.494 171.56 132.6 172.162C133.152 172.463 133.767 172.66 134.406 172.729C135.02 172.787 135.757 172.752 136.433 172.764C137.809 172.764 139.197 172.764 140.573 172.764C152.441 172.764 164.014 172.764 175.071 172.764H175.219L175.317 172.88C178.253 176.434 181.153 179.931 183.843 183.184L183.352 183.208C185.809 179.641 188.229 176.145 190.465 172.903L190.551 172.775H190.711C205.306 172.787 218.808 172.798 230.836 172.81C232.273 172.764 233.625 172.057 234.436 171.004C234.841 170.483 235.136 169.869 235.271 169.244C235.406 168.619 235.357 167.947 235.369 167.287C235.369 164.636 235.369 162.065 235.382 159.599C235.394 154.666 235.406 150.116 235.419 145.994C235.443 137.773 235.455 131.266 235.468 126.785C235.345 125.697 234.841 124.794 234.239 124.18C233.649 123.543 232.974 123.184 232.421 122.964C231.278 122.536 230.615 122.64 230.615 122.594L230.689 122.629Z" fill="#263238"/>
<path d="M164.911 134.219V135.735H163.854V134.207L162.085 131.451H163.203L164.419 133.362L165.636 131.451H166.668L164.899 134.219H164.911Z" fill="#263238"/>
<path d="M166.643 133.593C166.643 132.32 167.7 131.37 169.137 131.37C170.575 131.37 171.631 132.308 171.631 133.593C171.631 134.879 170.575 135.817 169.137 135.817C167.7 135.817 166.643 134.867 166.643 133.593ZM170.562 133.593C170.562 132.783 169.948 132.216 169.137 132.216C168.326 132.216 167.712 132.771 167.712 133.593C167.712 134.416 168.326 134.971 169.137 134.971C169.948 134.971 170.562 134.416 170.562 133.593Z" fill="#263238"/>
<path d="M172.393 133.86V131.451H173.449V133.813C173.449 134.624 173.83 134.971 174.469 134.971C175.108 134.971 175.489 134.636 175.489 133.813V131.451H176.533V133.86C176.533 135.122 175.771 135.817 174.469 135.817C173.167 135.817 172.405 135.122 172.405 133.86H172.393Z" fill="#263238"/>
<path d="M180.465 135.747L179.592 134.554H178.622V135.747H177.565V131.451H179.531C180.747 131.451 181.509 132.042 181.509 133.003C181.509 133.651 181.165 134.114 180.575 134.358L181.595 135.735H180.465V135.747ZM179.482 132.262H178.622V133.756H179.482C180.121 133.756 180.452 133.478 180.452 133.003C180.452 132.528 180.133 132.25 179.482 132.25V132.262Z" fill="#263238"/>
<path d="M183.905 133.593C183.905 132.297 184.961 131.37 186.374 131.37C187.16 131.37 187.824 131.637 188.241 132.135L187.566 132.725C187.259 132.389 186.878 132.227 186.423 132.227C185.575 132.227 184.961 132.795 184.961 133.605C184.961 134.416 185.563 134.983 186.423 134.983C186.878 134.983 187.259 134.809 187.566 134.473L188.241 135.064C187.811 135.562 187.16 135.828 186.362 135.828C184.949 135.828 183.892 134.902 183.892 133.605L183.905 133.593Z" fill="#263238"/>
<path d="M188.585 133.593C188.585 132.32 189.642 131.37 191.079 131.37C192.517 131.37 193.573 132.308 193.573 133.593C193.573 134.879 192.517 135.817 191.079 135.817C189.642 135.817 188.585 134.867 188.585 133.593ZM192.505 133.593C192.505 132.783 191.89 132.216 191.079 132.216C190.269 132.216 189.654 132.771 189.654 133.593C189.654 134.416 190.269 134.971 191.079 134.971C191.89 134.971 192.505 134.416 192.505 133.593Z" fill="#263238"/>
<path d="M194.36 131.451H196.424C197.91 131.451 198.93 132.297 198.93 133.593C198.93 134.89 197.91 135.735 196.424 135.735H194.36V131.44V131.451ZM196.375 134.925C197.284 134.925 197.873 134.416 197.873 133.593C197.873 132.771 197.284 132.262 196.375 132.262H195.416V134.925H196.375Z" fill="#263238"/>
<path d="M203.267 134.948V135.747H199.741V131.451H203.181V132.25H200.785V133.177H202.898V133.952H200.785V134.948H203.267Z" fill="#263238"/>
<path d="M221.339 140.251H144.32C141.911 140.251 139.959 142.091 139.959 144.361V159.692C139.959 161.962 141.911 163.802 144.32 163.802H221.339C223.748 163.802 225.701 161.962 225.701 159.692V144.361C225.701 142.091 223.748 140.251 221.339 140.251Z" fill="#F5F5F5"/>
<path d="M157.392 153.462C157.392 155.546 155.684 156.901 153.362 156.901C150.18 156.901 148.51 154.747 148.51 151.181C148.51 147.326 150.684 145.334 153.878 145.334C154.91 145.334 155.881 145.496 156.63 145.925L156.262 146.596C155.635 146.226 154.788 146.075 153.878 146.075C151.163 146.075 149.382 147.754 149.382 151.054C149.382 151.401 149.394 151.899 149.48 152.42C149.984 150.927 151.507 150.07 153.338 150.07C155.758 150.07 157.38 151.401 157.38 153.462H157.392ZM156.508 153.474C156.508 151.841 155.267 150.788 153.227 150.788C151.188 150.788 149.873 151.98 149.873 153.509C149.873 154.84 151.065 156.183 153.326 156.183C155.205 156.183 156.508 155.13 156.508 153.485V153.474Z" fill="#FF725E"/>
<path d="M173.449 153.659H170.906V156.82H170.046V153.659H163.154V153.057L169.727 145.415H170.71L164.26 152.93H170.071V150.139H170.919V152.93H173.462V153.659H173.449Z" fill="#FF725E"/>
<path d="M186.89 153.613C186.89 155.5 185.44 156.901 182.651 156.901C180.87 156.901 179.224 156.287 178.388 155.373L178.843 154.736C179.58 155.535 181.005 156.137 182.664 156.137C184.838 156.137 186.005 155.164 186.005 153.613C186.005 152.061 184.9 151.089 182.479 151.089H181.718V150.487L185.293 146.168H178.843V145.415H186.435V146.006L182.811 150.394C185.563 150.463 186.902 151.76 186.902 153.624L186.89 153.613Z" fill="#FF725E"/>
<path d="M201.51 145.415V146.006L196.313 156.82H195.343L200.49 146.168H193.696V148.356H192.836V145.427H201.51V145.415Z" fill="#FF725E"/>
<path d="M207.69 151.123C207.69 147.557 209.643 145.346 212.42 145.346C215.196 145.346 217.15 147.557 217.15 151.123C217.15 154.69 215.196 156.901 212.42 156.901C209.643 156.901 207.69 154.69 207.69 151.123ZM216.277 151.123C216.277 147.951 214.705 146.11 212.42 146.11C210.135 146.11 208.562 147.951 208.562 151.123C208.562 154.296 210.135 156.137 212.42 156.137C214.705 156.137 216.277 154.296 216.277 151.123Z" fill="#FF725E"/>
<path d="M471.12 449.329C487.202 442.892 505.827 430.236 514.132 414.721C496.784 421.286 481.489 433.606 471.12 449.329Z" fill="#263238"/>
<path d="M474.547 425.246C490.629 418.808 509.254 406.153 517.56 390.638C500.212 397.203 484.916 409.522 474.547 425.246Z" fill="#263238"/>
<path d="M479.191 401.823C495.273 395.385 513.898 382.73 522.204 367.214C504.856 373.779 489.561 386.099 479.191 401.823Z" fill="#263238"/>
<path d="M485.027 377.299C500.2 368.812 517.117 353.829 523.42 337.376C507.006 346.164 493.345 360.36 485.027 377.299Z" fill="#263238"/>
<path d="M491.268 358.53C502.325 344.902 512.633 324.617 512.498 307.04C500.397 321.421 492.841 339.738 491.268 358.53Z" fill="#263238"/>
<path d="M488.172 367.446C485.936 349.013 478.331 325.844 465.419 312.019C467.471 331.772 475.567 351.479 488.172 367.446Z" fill="#263238"/>
<path d="M482.975 387.604C479.044 368.604 469.093 345.099 454.423 331.772C458.281 352.162 468.441 372.019 482.975 387.604Z" fill="#263238"/>
<path d="M477.005 412.197C473.073 393.197 463.122 369.692 448.453 356.365C452.31 376.755 462.471 396.612 477.005 412.197Z" fill="#263238"/>
<path d="M472.213 442.371C468.282 423.37 458.33 399.866 443.661 386.539C447.519 406.929 457.679 426.786 472.213 442.371Z" fill="#263238"/>
<path d="M492.018 354.918C492.018 354.918 491.969 355.01 491.895 355.207C491.809 355.427 491.711 355.717 491.588 356.053C491.317 356.851 490.949 357.951 490.47 359.341C489.499 362.201 488.197 366.357 486.661 371.522C485.125 376.686 483.43 382.857 481.673 389.758C479.953 396.659 478.209 404.277 476.599 412.313C475.002 420.36 473.7 428.048 472.643 435.076C471.611 442.093 470.813 448.438 470.26 453.776C469.695 459.113 469.314 463.432 469.105 466.419C469.007 467.878 468.933 469.036 468.871 469.858C468.859 470.229 468.835 470.518 468.822 470.75C468.822 470.947 468.822 471.051 468.822 471.062C468.822 471.062 468.847 470.958 468.884 470.761C468.908 470.53 468.945 470.229 468.994 469.87C469.08 469.036 469.191 467.89 469.338 466.431C469.609 463.444 470.063 459.137 470.69 453.81C471.304 448.484 472.139 442.162 473.208 435.146C474.302 428.141 475.616 420.453 477.213 412.417C478.823 404.393 480.555 396.774 482.238 389.874C483.958 382.984 485.605 376.801 487.091 371.626C488.565 366.45 489.806 362.282 490.703 359.41C491.133 357.998 491.465 356.898 491.711 356.087C491.809 355.728 491.895 355.45 491.956 355.219C492.005 355.022 492.03 354.918 492.018 354.918Z" fill="#263238"/>
<path d="M463.281 459.368C470.1 445.902 475.063 426.983 471.709 412.208C464.141 426.496 461.144 443.262 463.281 459.368Z" fill="#455A64"/>
<path d="M451.942 441.942C458.76 428.476 463.724 409.557 460.37 394.783C452.802 409.071 449.804 425.836 451.942 441.942Z" fill="#455A64"/>
<path d="M441.769 424.216C448.588 410.75 453.551 391.83 450.197 377.056C442.629 391.344 439.631 408.11 441.769 424.216Z" fill="#455A64"/>
<path d="M431.744 405.099C436.818 390.846 439.361 371.429 434.189 357.21C428.476 372.378 427.616 389.399 431.744 405.099Z" fill="#455A64"/>
<path d="M425.22 389.445C424.717 374.289 419.987 355.3 409.998 344.103C410.244 360.348 415.65 376.477 425.22 389.445Z" fill="#455A64"/>
<path d="M428.23 396.96C416.399 386.435 398.413 375.991 382.233 374.625C394.69 386.099 411.043 394.042 428.23 396.96Z" fill="#455A64"/>
<path d="M436.216 412.903C422.96 403.004 403.253 393.706 386.225 393.671C400.219 404.509 417.996 411.352 436.216 412.903Z" fill="#455A64"/>
<path d="M446.18 432.135C432.923 422.236 413.217 412.938 396.189 412.903C410.183 423.741 427.96 430.584 446.18 432.135Z" fill="#455A64"/>
<path d="M460.075 454.273C446.819 444.374 427.112 435.076 410.084 435.042C424.078 445.879 441.855 452.722 460.075 454.273Z" fill="#455A64"/>
<path d="M423.672 386.689C423.672 386.689 423.685 386.782 423.746 386.944C423.82 387.141 423.906 387.372 424.016 387.662C424.287 388.333 424.655 389.237 425.122 390.383C426.093 392.745 427.567 396.149 429.459 400.306C433.243 408.642 438.845 420.012 445.811 432.193C449.3 438.283 452.802 443.992 456.082 449.133C459.387 454.25 462.446 458.824 465.124 462.587C467.778 466.361 469.989 469.383 471.562 471.444C472.324 472.44 472.926 473.228 473.38 473.806C473.577 474.05 473.737 474.246 473.859 474.409C473.97 474.548 474.031 474.605 474.044 474.605C474.044 474.605 474.007 474.524 473.909 474.374C473.786 474.2 473.651 473.992 473.479 473.737C473.061 473.146 472.483 472.336 471.759 471.317C470.247 469.221 468.097 466.165 465.481 462.367C462.864 458.569 459.841 453.996 456.561 448.866C453.318 443.714 449.841 438.006 446.352 431.927C439.398 419.758 433.734 408.434 429.852 400.144C427.911 395.998 426.375 392.629 425.343 390.29C424.827 389.156 424.422 388.264 424.127 387.604C423.992 387.326 423.881 387.095 423.795 386.909C423.721 386.759 423.672 386.678 423.66 386.678L423.672 386.689Z" fill="#263238"/>
<path d="M430.798 460.989H498.566V473.309H491.6L485.74 508.415H443.845L437.813 473.309H430.798V460.989Z" fill="#92E3A9"/>
<path d="M430.798 473.042C430.798 472.88 445.86 472.741 464.436 472.741C483.012 472.741 498.074 472.869 498.074 473.042C498.074 473.216 483.012 473.343 464.436 473.343C445.86 473.343 430.798 473.216 430.798 473.042Z" fill="#263238"/>
<path d="M42.6068 508.427H31.6111L27.5322 461.765H40.4814L42.6068 508.427Z" fill="#263238"/>
<path d="M137.932 508.427H148.94L153.018 461.765H140.057L137.932 508.427Z" fill="#263238"/>
<path d="M160.574 467.67L18.9937 470.808L14.6814 384.628C14.2637 376.188 21.4017 369.136 30.3702 369.136H151.004C160.107 369.136 167.307 376.408 166.668 384.964L160.574 467.682V467.67Z" fill="#92E3A9"/>
<path d="M167.835 384.327C167.835 384.327 167.7 384.351 167.442 384.362C167.147 384.362 166.766 384.385 166.287 384.397C165.23 384.408 163.731 384.432 161.827 384.455C157.908 384.466 152.318 384.49 145.413 384.513C131.555 384.536 112.414 384.385 91.2827 384.848C70.139 385.508 50.9856 385.393 37.1273 385.196C30.1982 385.092 24.5959 384.964 20.7136 384.86C18.8094 384.802 17.3105 384.756 16.2539 384.721C15.7748 384.698 15.3939 384.686 15.0991 384.663C14.8411 384.652 14.7059 384.64 14.7059 384.628C14.7059 384.617 14.8411 384.605 15.0991 384.605C15.3939 384.605 15.7748 384.605 16.2539 384.605C17.3105 384.605 18.8094 384.629 20.7136 384.64C24.6328 384.675 30.2228 384.721 37.1273 384.791C50.9856 384.883 70.1267 384.93 91.2704 384.258C112.414 383.795 131.568 384.015 145.426 384.096C152.318 384.154 157.92 384.2 161.839 384.235C163.744 384.258 165.243 384.27 166.299 384.281C166.778 384.281 167.159 384.304 167.454 384.304C167.712 384.304 167.847 384.327 167.847 384.339L167.835 384.327Z" fill="#263238"/>
<path d="M66.3304 370.479C66.3673 370.676 61.8953 370.757 57.1407 373.085C52.3493 375.354 49.6587 378.723 49.5113 378.573C49.4499 378.538 50.0396 377.647 51.2682 376.431C52.4967 375.215 54.4256 373.721 56.8582 372.552C59.2907 371.383 61.711 370.792 63.4679 370.572C65.237 370.352 66.3427 370.422 66.3427 370.491L66.3304 370.479Z" fill="#263238"/>
<path d="M124.565 213.787L141.875 243.578L167.233 230.217L179.555 234.049C179.555 234.049 148.448 265.832 143.399 267.453C138.349 269.074 128.791 269.364 123.336 262.926C118.36 257.056 103.875 226.245 103.875 226.245L124.565 213.787Z" fill="#FFBE9D"/>
<path d="M195.809 194.335C195.355 193.814 194.655 193.547 193.942 193.64L181.89 195.203C180.833 195.354 179.899 195.933 179.31 196.778L154.271 233.042L156.2 234.061L169.53 233.667L196.19 194.786L195.809 194.346V194.335Z" fill="#263238"/>
<path d="M187.271 199.047C187.529 199.256 187.983 199.175 188.278 198.85C188.573 198.526 188.61 198.098 188.352 197.878C188.094 197.658 187.64 197.75 187.345 198.075C187.05 198.399 187.013 198.827 187.271 199.047Z" fill="white"/>
<path d="M196.19 194.775C196.19 194.775 195.367 194.972 193.856 195.215C192.222 195.458 190.072 195.77 187.467 196.153C186.104 196.338 184.629 196.546 183.045 196.766C182.283 196.836 181.607 197.206 181.177 197.797C180.71 198.468 180.243 199.175 179.752 199.881C177.774 202.741 175.624 205.879 173.363 209.167C168.806 215.743 164.653 221.683 161.618 225.967C160.144 228.028 158.916 229.73 157.994 231.016C157.122 232.197 156.618 232.845 156.581 232.81C156.544 232.787 156.962 232.092 157.761 230.865C158.633 229.545 159.8 227.808 161.201 225.701C164.125 221.359 168.216 215.373 172.774 208.796C175.059 205.52 177.233 202.393 179.211 199.533C179.715 198.827 180.194 198.132 180.673 197.449C181.202 196.708 182.123 196.245 182.971 196.199C184.556 196.014 186.042 195.828 187.406 195.666C190.023 195.377 192.197 195.134 193.831 194.948C195.355 194.798 196.19 194.728 196.203 194.775H196.19Z" fill="#455A64"/>
<path d="M182.811 207.743C182.811 207.743 181.73 207.557 181.153 210.336C180.563 213.104 178.671 221.058 178.671 221.058L173.044 218.244L166.004 219.113C166.004 219.113 164.469 220.456 165.599 221.174C166.729 221.903 171.177 222.644 171.177 222.644L174.457 227.09L165.034 222.806C165.034 222.806 161.889 223.582 162.81 225.388C163.731 227.195 170.083 232.857 170.083 232.857L165.365 232.521L159.751 229.314C159.751 229.314 158.031 229.383 158.67 230.772C159.309 232.15 165.157 237.152 165.157 237.152L172.233 240.394C172.233 240.394 176.103 240.105 176.472 239.039C176.84 237.974 176.939 236.446 176.939 236.446C176.939 236.446 178.99 235.925 179.371 234.987C179.752 234.049 179.506 232.567 179.506 232.567C179.506 232.567 182.725 233.1 183.131 231.409C183.536 229.719 183.192 226.384 182.873 225.087C182.553 223.791 184.249 211.691 184.113 211.32C183.978 210.95 184.851 206.967 182.836 207.766L182.811 207.743Z" fill="#FFBE9D"/>
<path d="M176.705 239.028C176.73 239.109 176.042 239.387 174.862 239.572C173.683 239.757 171.987 239.769 170.194 239.375C168.4 238.97 166.901 238.241 165.931 237.569C164.96 236.909 164.481 236.365 164.542 236.307C164.677 236.133 166.913 237.963 170.366 238.715C173.793 239.514 176.668 238.831 176.705 239.04V239.028Z" fill="#EB996E"/>
<path d="M175.022 236.643C174.911 236.793 173.658 236.18 172.319 235.138C170.98 234.107 170.083 233.065 170.231 232.938C170.378 232.799 171.471 233.598 172.786 234.617C174.101 235.635 175.145 236.492 175.034 236.643H175.022Z" fill="#EB996E"/>
<path d="M178.757 230.877C178.646 231.027 177.405 230.425 176.152 229.325C174.887 228.237 174.15 227.114 174.309 226.998C174.469 226.882 175.427 227.774 176.644 228.827C177.848 229.881 178.88 230.715 178.757 230.877Z" fill="#EB996E"/>
<path d="M182.664 226.245C182.467 226.326 181.755 225.064 180.637 223.71C179.531 222.332 178.425 221.371 178.548 221.209C178.659 221.058 180.022 221.834 181.202 223.293C182.393 224.74 182.836 226.187 182.651 226.245H182.664Z" fill="#EB996E"/>
<path d="M187.455 440.981C187.455 440.981 187.541 440.588 187.418 439.881C187.295 439.187 186.988 438.168 186.239 437.091C186.042 436.825 185.858 436.547 185.539 436.28C185.244 436.026 184.715 435.829 184.224 436.003C183.978 436.084 183.733 436.292 183.647 436.558C183.548 436.825 183.597 437.091 183.671 437.299C183.831 437.739 184.077 438.052 184.285 438.422C184.74 439.152 185.121 439.87 185.698 440.68C185.993 441.097 186.657 441.445 187.259 441.34C187.861 441.271 188.34 440.993 188.77 440.715C189.605 440.136 190.355 439.488 190.993 438.781C191.313 438.434 191.608 438.075 191.866 437.705C192.111 437.346 192.406 436.975 192.529 436.477C192.64 435.991 192.443 435.354 191.866 435.134C191.276 434.937 190.785 435.215 190.465 435.435C189.789 435.956 189.396 436.5 188.979 437.022C188.205 438.064 187.762 439.013 187.529 439.685C187.295 440.356 187.234 440.738 187.271 440.75C187.394 440.796 187.787 439.256 189.372 437.299C189.765 436.836 190.256 436.269 190.797 435.887C191.079 435.702 191.423 435.574 191.632 435.678C191.853 435.748 191.976 436.072 191.903 436.373C191.829 436.686 191.583 437.021 191.325 437.369C191.067 437.716 190.785 438.052 190.477 438.376C189.863 439.036 189.163 439.65 188.364 440.194C187.983 440.449 187.566 440.669 187.185 440.703C186.792 440.75 186.497 440.599 186.239 440.287C185.747 439.627 185.293 438.805 184.838 438.121C184.617 437.763 184.359 437.415 184.249 437.126C184.126 436.813 184.199 436.605 184.433 436.524C184.961 436.315 185.489 436.883 185.846 437.369C187.345 439.372 187.32 441.039 187.467 440.993L187.455 440.981Z" fill="#263238"/>
<path d="M157.269 441.954L142.281 472.579L118.09 462.043L133.595 424.146L157.269 441.954Z" fill="#FFBE9D"/>
<path d="M145.106 470.53L136.347 486.277C136.347 486.277 158.768 508.125 156.667 513.012L103.962 489.194L118.446 457.62L145.119 470.541L145.106 470.53Z" fill="#455A64"/>
<path d="M121.149 476.759C119.995 476.562 118.741 477.326 118.483 478.403C118.225 479.48 119.036 480.696 120.191 480.904C121.346 481.124 122.882 480.244 123.005 479.156C123.127 478.056 122.095 476.69 120.928 476.736" fill="#E0E0E0"/>
<g opacity="0.6">
<path d="M103.962 489.183L106.148 485.223L155.856 509.538C155.856 509.538 157.712 511.564 156.655 513L103.949 489.183H103.962Z" fill="white"/>
</g>
<path d="M137.33 486.404C137.194 486.647 135.855 486.173 134.197 486.381C132.526 486.543 131.346 487.307 131.15 487.099C130.941 486.948 132.059 485.663 134.074 485.455C136.089 485.223 137.502 486.207 137.33 486.404Z" fill="#263238"/>
<path d="M141.765 491.059C141.703 491.325 140.376 491.232 138.988 491.858C137.575 492.448 136.789 493.455 136.531 493.328C136.273 493.259 136.814 491.753 138.57 491.001C140.315 490.237 141.875 490.816 141.765 491.047V491.059Z" fill="#263238"/>
<path d="M141.728 498.712C141.47 498.654 141.728 497.288 143.067 496.257C144.394 495.215 145.88 495.238 145.88 495.493C145.93 495.759 144.775 496.118 143.694 496.975C142.588 497.809 141.998 498.805 141.728 498.712Z" fill="#263238"/>
<path d="M139.848 480.337C139.627 480.511 138.62 479.642 137.121 479.075C135.634 478.484 134.27 478.426 134.234 478.16C134.172 477.917 135.732 477.523 137.489 478.206C139.258 478.878 140.069 480.198 139.848 480.337Z" fill="#263238"/>
<path d="M150.045 466.443L189.556 373.235C189.556 373.235 188.672 357.338 185.563 352.313C182.455 347.288 88.322 317.994 88.322 317.994C88.322 317.994 64.3403 312.552 48.3566 317.994C32.3729 323.436 20.382 342.263 22.6057 352.73C24.8295 363.197 34.1912 370.873 34.1912 370.873L103.421 372.807L141.15 385.775L115.744 454.401L150.045 466.419V466.443Z" fill="#263238"/>
<path d="M185.195 402.761L186.079 436.466L159.444 437.079L155.611 396.624L185.195 402.761Z" fill="#FFBE9D"/>
<path d="M187.676 433.455L187.185 451.228C187.185 451.228 217.531 461.499 217.936 466.767L159.493 467.323L157.699 432.969L187.676 433.467V433.455Z" fill="#455A64"/>
<path d="M169.088 449.005C167.958 449.306 167.196 450.511 167.466 451.587C167.737 452.664 169.039 453.405 170.169 453.127C171.299 452.849 172.27 451.425 171.877 450.383C171.471 449.341 169.911 448.542 168.879 449.075" fill="#E0E0E0"/>
<g opacity="0.6">
<path d="M159.481 467.311L159.591 462.842L215.589 463.976C215.589 463.976 218.206 465.018 217.924 466.744L159.481 467.299V467.311Z" fill="white"/>
</g>
<path d="M188.131 450.939C188.131 451.205 186.693 451.344 185.305 452.224C183.88 453.069 183.18 454.239 182.909 454.135C182.651 454.088 183.057 452.467 184.765 451.437C186.46 450.383 188.192 450.696 188.131 450.939Z" fill="#263238"/>
<path d="M194.286 453.266C194.36 453.521 193.119 453.996 192.161 455.142C191.165 456.265 190.932 457.492 190.649 457.481C190.379 457.527 190.17 455.952 191.387 454.551C192.591 453.139 194.274 453.012 194.274 453.266H194.286Z" fill="#263238"/>
<path d="M197.837 460.144C197.579 460.202 197.161 458.859 197.886 457.388C198.586 455.906 199.925 455.304 200.06 455.536C200.22 455.756 199.36 456.554 198.795 457.782C198.193 458.998 198.131 460.132 197.849 460.155L197.837 460.144Z" fill="#263238"/>
<path d="M187.541 444.443C187.418 444.687 186.116 444.328 184.494 444.443C182.885 444.536 181.632 445.057 181.484 444.825C181.312 444.629 182.529 443.621 184.433 443.506C186.337 443.378 187.676 444.223 187.541 444.432V444.443Z" fill="#263238"/>
<path d="M169.641 309.159C169.641 309.159 185.6 307.955 187.382 324.281C189.163 340.607 190.908 416.771 190.908 416.771L153.608 419.7L147.834 341.869L88.3342 318.017C88.3342 318.017 158.989 307.087 169.653 309.171L169.641 309.159Z" fill="#263238"/>
<path d="M103.851 287.137C103.851 287.137 113.532 312.737 111.689 315.585C109.846 318.434 84.931 330.174 84.931 330.174L22.6057 352.73C22.6057 352.73 16.2048 343.131 16.2048 328.391C16.2048 313.652 37.8891 287.125 37.8891 287.125H103.851V287.137Z" fill="#263238"/>
<path d="M85.3733 316.697C85.3733 316.697 85.4716 316.755 85.6682 316.848C85.9016 316.952 86.1841 317.079 86.5527 317.23C87.3759 317.577 88.5307 318.063 90.005 318.677C93.0641 319.939 97.4624 321.734 102.966 323.991C114.085 328.507 129.663 334.829 147.699 342.135L147.502 341.869C148.067 349.557 148.682 357.859 149.308 366.45C150.819 386.527 152.22 405.053 153.326 419.7L153.35 419.966L153.633 419.943C164.972 419.005 174.285 418.229 180.809 417.697C184.015 417.419 186.534 417.187 188.291 417.037C189.114 416.956 189.765 416.886 190.244 416.84C190.686 416.794 190.907 416.759 190.907 416.747C190.907 416.736 190.674 416.747 190.232 416.759C189.753 416.782 189.101 416.828 188.266 416.875C186.509 417.002 183.978 417.176 180.772 417.396C174.248 417.882 164.935 418.577 153.584 419.422L153.878 419.665C152.81 405.007 151.458 386.493 149.996 366.404C149.357 357.812 148.731 349.511 148.166 341.822V341.626L147.969 341.556C129.897 334.331 114.282 328.079 103.138 323.621C97.6098 321.433 93.187 319.684 90.1033 318.468C88.6044 317.89 87.4373 317.438 86.6141 317.114C86.2333 316.975 85.9384 316.859 85.705 316.778C85.4962 316.709 85.3979 316.674 85.3856 316.685L85.3733 316.697Z" fill="#455A64"/>
<path d="M35.8005 319.256C35.8005 319.256 36.4394 319.14 37.5451 318.804C38.7859 318.434 40.3585 317.948 42.2382 317.38C46.1942 316.199 51.6859 314.543 57.9393 313.64C64.1928 312.726 69.9793 313.015 74.0213 313.837C78.0756 314.625 80.4099 315.724 80.459 315.597C80.4713 315.562 79.9062 315.261 78.8373 314.821C77.7685 314.381 76.159 313.849 74.1196 313.386C70.0531 312.436 64.1559 312.077 57.8288 312.992C51.5016 313.907 45.9976 315.643 42.0662 316.94C40.1005 317.6 38.5279 318.156 37.4345 318.561C36.3534 318.966 35.7637 319.21 35.7759 319.256H35.8005Z" fill="#455A64"/>
<path d="M44.6094 305.767C44.6217 305.871 46.6979 305.489 50.0642 305.732C51.7474 305.848 53.7376 306.08 55.9614 306.323C58.1851 306.577 60.6176 306.855 63.1485 307.307C68.2102 308.152 72.5716 309.819 75.3605 311.579C78.1739 313.305 79.5008 314.879 79.5991 314.798C79.6236 314.775 79.3411 314.358 78.6899 313.698C78.0388 313.038 77.0436 312.124 75.6308 311.209C72.8542 309.31 68.3945 307.538 63.2714 306.682C60.7159 306.23 58.2588 305.964 56.0351 305.744C53.8114 305.535 51.7965 305.338 50.0888 305.281C48.3811 305.223 46.9928 305.315 46.0591 305.454C45.1131 305.593 44.6094 305.744 44.6217 305.778L44.6094 305.767Z" fill="#455A64"/>
<path d="M72.1415 100.074C64.9666 98.9273 58.6641 101.532 52.6195 105.342C46.5749 109.151 42.0169 114.906 39.3878 121.297C36.6235 128.036 35.9478 135.608 38.0732 142.544C40.1987 149.479 45.2481 155.685 52.0789 158.962C61.4038 163.431 73.3455 161.868 81.6875 155.929C90.0294 149.977 94.8086 140.147 95.2017 130.294C95.472 123.509 93.752 116.561 89.7346 110.923C85.7049 105.284 79.2795 101.069 72.1538 100.085" fill="#263238"/>
<path d="M51.7473 123.057C52.7916 120.475 52.3861 117.58 52.8038 114.848C53.713 108.815 58.873 103.976 64.8438 101.625C70.397 99.4368 77.1787 99.9115 83.8621 101.949C88.4447 103.35 92.7569 105.782 95.8161 109.29C99.8704 113.945 101.296 120.533 99.5141 126.311L66.7481 121.818C63.6767 124.215 60.5438 126.646 56.8213 127.978C55.7278 128.372 54.5607 128.661 53.4058 128.487C52.251 128.314 51.133 127.573 50.8627 126.507C50.5678 125.338 51.305 124.192 51.7596 123.069L51.7473 123.057Z" fill="#263238"/>
<path d="M84.5624 110.471L55.9613 116.179C53.197 116.353 51.0224 118.495 50.9733 121.112L51.3173 179.456C51.3418 183.439 52.7547 187.307 55.347 190.456L58.0744 193.767C64.291 201.328 76.8961 200.564 81.6384 192.112C81.9701 191.521 82.2035 191 82.3018 190.583C82.4001 190.062 82.5475 189.715 82.5721 189.263L83.1127 183.578C83.3952 178.379 83.4321 173.111 83.4321 173.158C83.4321 173.158 95.1404 171.768 98.1381 157.55C99.6246 150.475 99.7352 138.804 99.4895 129.252C99.2684 120.649 93.6661 109.904 84.5624 110.471Z" fill="#FFBE9D"/>
<path d="M95.1403 140.193C95.1403 141.166 94.268 141.965 93.1869 141.976C92.118 141.988 91.2457 141.224 91.2457 140.251C91.2457 139.279 92.118 138.48 93.1992 138.468C94.268 138.456 95.1403 139.221 95.1403 140.193Z" fill="#263238"/>
<path d="M96.5532 135.214C96.3075 135.446 94.8701 134.358 92.7815 134.288C90.6929 134.184 89.1081 135.145 88.8992 134.902C88.7886 134.786 89.0589 134.369 89.7469 133.929C90.4226 133.501 91.5652 133.096 92.8675 133.142C94.1698 133.2 95.2509 133.686 95.8652 134.172C96.4918 134.659 96.6883 135.099 96.5655 135.203L96.5532 135.214Z" fill="#263238"/>
<path d="M76.3677 139.753C76.3677 140.726 75.4954 141.525 74.4143 141.536C73.3454 141.548 72.4731 140.784 72.4731 139.811C72.4731 138.839 73.3454 138.04 74.4266 138.028C75.4954 138.017 76.3677 138.781 76.3677 139.753Z" fill="#263238"/>
<path d="M76.6749 134.74C76.4169 134.971 74.9917 133.883 72.8909 133.813C70.8023 133.709 69.2174 134.67 69.0086 134.427C68.898 134.311 69.1683 133.895 69.8563 133.455C70.532 133.026 71.6746 132.621 72.9769 132.667C74.2792 132.725 75.3603 133.211 75.9746 133.698C76.6011 134.184 76.7977 134.624 76.6749 134.728V134.74Z" fill="#263238"/>
<path d="M82.953 149.746C82.953 149.63 84.2552 149.468 86.3807 149.294C86.9212 149.259 87.425 149.178 87.5355 148.842C87.6707 148.483 87.4741 147.928 87.2407 147.337C86.7861 146.098 86.3192 144.802 85.8155 143.447C83.8498 137.901 82.437 133.35 82.6827 133.281C82.9161 133.211 84.7098 137.646 86.6878 143.192C87.1547 144.558 87.6092 145.867 88.0392 147.106C88.2235 147.685 88.543 148.345 88.2358 149.097C88.0761 149.468 87.6707 149.722 87.3267 149.803C86.9827 149.885 86.6755 149.884 86.4175 149.884C84.2921 149.919 82.9775 149.885 82.9652 149.769L82.953 149.746Z" fill="#263238"/>
<path d="M83.4443 173.157C83.4443 173.157 73.2103 173.401 63.3326 167.31C63.3326 167.31 68.0381 177.395 83.2846 176.619L83.4566 173.169L83.4443 173.157Z" fill="#EB996E"/>
<path d="M81.8718 154.47C81.1592 153.509 79.857 152.941 78.5424 153.022C77.6333 153.08 76.6995 153.462 76.1098 154.134C75.5324 154.805 75.3727 155.801 75.8518 156.484C76.3801 157.248 77.5595 157.468 78.567 157.237C79.5744 157.005 80.459 156.415 81.3067 155.824C81.5401 155.662 81.7735 155.489 81.9332 155.257C82.0807 155.025 82.1298 154.724 81.9578 154.528" fill="#EB996E"/>
<path d="M76.7363 150.892C77.0803 150.892 76.9943 153.034 78.874 154.62C80.7537 156.218 83.1863 156.067 83.1863 156.369C83.2109 156.507 82.6334 156.762 81.6014 156.751C80.594 156.751 79.1443 156.392 77.9894 155.419C76.8346 154.446 76.38 153.184 76.3432 152.293C76.294 151.39 76.5643 150.869 76.724 150.892H76.7363Z" fill="#263238"/>
<path d="M76.5521 128.881C76.3187 129.414 74.2424 129.078 71.773 129.263C69.3035 129.402 67.2887 130.016 66.9815 129.518C66.8464 129.286 67.215 128.788 68.0381 128.302C68.849 127.816 70.139 127.364 71.6255 127.26C73.1121 127.167 74.4512 127.434 75.3235 127.804C76.2081 128.175 76.6504 128.615 76.5521 128.87V128.881Z" fill="#263238"/>
<path d="M96.3075 126.565C95.9266 127.005 94.5015 126.484 92.7569 126.392C91.0246 126.253 89.5381 126.577 89.2186 126.091C89.0835 125.859 89.3292 125.419 89.9926 125.014C90.6438 124.609 91.7126 124.308 92.9043 124.389C94.096 124.47 95.1158 124.91 95.6932 125.396C96.2829 125.882 96.4672 126.345 96.2952 126.565H96.3075Z" fill="#263238"/>
<path d="M46.5012 118.9C49.4621 110.691 62.4112 99.5063 71.5763 100.282L86.0612 108.839C85.0783 113.528 81.1346 117.557 76.2449 118.854C73.6403 119.549 70.5075 119.699 68.9226 121.76C67.3009 123.879 68.1609 127.017 66.6498 129.194C64.5612 132.216 59.0081 131.973 57.4232 135.261C56.7229 136.697 57.0424 138.433 56.3175 139.858C55.3592 141.756 50.1624 144.084 48.0492 143.412C45.9361 142.741 45.9975 139.325 45.3464 137.519C44.2284 134.439 44.7444 132.864 45.1744 131.162C46.1818 127.133 45.1007 122.802 46.5135 118.889L46.5012 118.9Z" fill="#263238"/>
<path d="M54.2904 145.23C54.3273 144.165 53.1233 141.606 52.0175 141.397C49.0567 140.853 43.6756 140.876 43.3316 148.009C42.8647 157.758 53.3444 156.195 53.3813 155.917C53.4058 155.697 54.1553 148.912 54.2904 145.23Z" fill="#FFBE9D"/>
<path d="M50.3958 152.084C50.3958 152.084 50.2115 152.2 49.9044 152.316C49.5972 152.432 49.0812 152.501 48.5529 152.281C47.4841 151.853 46.6364 150.186 46.6732 148.426C46.6855 147.534 46.9312 146.7 47.2998 146.017C47.6438 145.323 48.1598 144.836 48.7127 144.767C49.2655 144.674 49.6341 144.998 49.7569 145.276C49.8798 145.554 49.8061 145.751 49.8675 145.763C49.8921 145.786 50.1009 145.612 50.0272 145.207C49.9904 145.01 49.8798 144.778 49.6464 144.582C49.4129 144.385 49.0444 144.269 48.6635 144.292C47.8649 144.315 47.1155 144.975 46.7101 145.728C46.2678 146.48 45.9729 147.418 45.9607 148.414C45.9361 150.382 46.9067 152.27 48.3809 152.733C49.0935 152.941 49.7201 152.768 50.0395 152.548C50.3712 152.316 50.4327 152.108 50.3958 152.084Z" fill="#EB996E"/>
<path d="M44.2898 116.365C44.3267 113.319 40.2847 111.316 37.1273 110.633C33.9699 109.938 30.6404 110.842 27.8024 112.312C26.1439 113.169 24.473 114.385 24.1044 116.145C23.7359 117.893 25.5173 119.977 27.2864 119.352C23.8956 120.452 22.1633 124.724 23.9324 127.665C25.7016 130.606 30.4807 131.417 33.2204 129.24C32.3359 132.03 30.407 134.52 27.8393 136.164C33.159 136.882 38.8104 134.74 42.1276 130.745C45.4447 126.762 46.2924 121.077 44.2776 116.376L44.2898 116.365Z" fill="#263238"/>
<path d="M37.1149 131.88C37.0412 131.88 36.7587 130.78 36.7341 128.95C36.6972 127.121 36.9798 124.574 37.9258 121.911C38.8841 119.259 40.2846 117.059 41.5009 115.624C42.7049 114.188 43.6386 113.458 43.6878 113.516C43.8844 113.644 40.4075 116.886 38.5769 122.108C36.6727 127.318 37.3607 131.868 37.1272 131.868L37.1149 131.88Z" fill="#FF725E"/>
<path d="M83.0512 105.886C83.9972 109.858 90.4104 114.941 93.2115 118.032C98.5681 123.925 99.6246 125.882 99.5755 139.07C102.106 134.52 104.047 130.062 103.851 124.921C103.654 119.78 101.652 114.639 97.8555 110.946C94.0715 107.252 88.4446 105.157 83.0389 105.886" fill="#263238"/>
<path d="M126.936 214.366C126.936 214.366 115.793 196.847 112.697 193.304C109.797 189.981 106.062 188.024 103.568 186.994C102.18 186.427 100.718 186.033 99.2315 185.79L83.1987 182.444C83.1987 182.444 83.1741 192.76 71.6993 193.397C60.2367 194.034 50.5802 178.982 50.5802 178.982C50.5802 178.982 32.0533 181.679 27.6182 183.833C23.1831 185.987 16.2171 188.708 12.3839 206.805L9.69336 224.497L41.6362 227.276L44.6953 272.004L60.5316 282.401C60.5316 282.401 104.453 293.158 107.254 293.876C110.055 294.582 110.989 227.276 110.989 227.276C110.989 227.276 122.267 220.398 126.936 214.377V214.366Z" fill="#263238"/>
<path d="M105.903 206.84C105.903 206.84 106.161 207.28 106.517 208.125C106.886 208.97 107.352 210.209 107.868 211.76C108.913 214.864 110.055 219.252 110.694 224.196C111.333 229.14 111.345 233.656 111.136 236.909C111.026 238.53 110.903 239.85 110.756 240.742C110.62 241.645 110.534 242.143 110.485 242.131C110.436 242.131 110.448 241.622 110.51 240.718C110.571 239.815 110.633 238.507 110.682 236.886C110.78 233.656 110.682 229.175 110.068 224.265C109.429 219.368 108.36 215.002 107.438 211.876C106.984 210.313 106.578 209.063 106.284 208.194C106.001 207.326 105.866 206.84 105.903 206.828V206.84Z" fill="#455A64"/>
<path d="M104.539 280.12L44.4005 267.778L41.6239 227.264L14.8779 224.937C14.8779 224.937 15.8731 252.633 16.8928 260.865C18.3671 272.71 25.7999 288.862 30.1491 292.093C34.4982 295.323 107.242 293.864 107.242 293.864L104.539 280.109V280.12Z" fill="#FFBE9D"/>
<path d="M138.681 287.461C138.263 288.249 137.379 288.77 136.445 288.688C136.261 288.677 136.064 288.642 135.868 288.573C134.541 288.167 134.664 285.62 134.664 285.62L128.287 284.636C128.287 284.636 119.994 289.673 117.046 293.007C114.097 296.342 106.578 293.644 106.578 293.644L103.974 280.838L115.707 270.834C115.707 270.834 114.982 271.425 115.793 269.561C116.604 267.685 120.289 268.403 120.289 268.403C120.867 267.477 123.275 267.152 123.275 267.152L133.57 268.275C135.696 268.507 137.588 269.63 138.73 271.332L143.079 277.828C143.079 277.828 145.377 282.506 145.008 283.594C144.455 285.238 142.612 284.868 142.612 284.868C142.612 284.868 142.109 287.936 141.249 288.052C140.389 288.156 138.706 287.473 138.706 287.473L138.681 287.461Z" fill="#FFBE9D"/>
<path d="M116.775 278.268C116.775 278.372 118.151 278.245 120.351 278.337C122.537 278.441 125.572 278.8 128.754 279.819C130.339 280.317 131.801 280.931 133.079 281.568C134.319 282.228 135.622 282.772 136.015 283.629C136.211 284.046 136.125 284.474 135.904 284.787C135.683 285.099 135.388 285.308 135.13 285.4C134.59 285.609 134.246 285.47 134.233 285.528C134.209 285.539 134.553 285.794 135.216 285.632C135.536 285.551 135.904 285.342 136.211 284.983C136.519 284.636 136.691 284.022 136.457 283.467C136.236 282.899 135.72 282.459 135.179 282.1C134.614 281.753 134.037 281.406 133.373 281.07C132.083 280.387 130.585 279.75 128.963 279.24C125.719 278.198 122.599 277.897 120.363 277.909C118.127 277.932 116.763 278.21 116.775 278.279V278.268Z" fill="#EB996E"/>
<path d="M116.063 284.451C116.063 284.636 120.265 284.474 125.412 284.752C130.56 285.018 134.7 285.632 134.737 285.447C134.75 285.365 133.73 285.111 132.059 284.833C130.388 284.555 128.054 284.277 125.449 284.138C122.857 283.999 120.498 284.034 118.803 284.138C117.107 284.231 116.063 284.381 116.063 284.462V284.451Z" fill="#EB996E"/>
<path d="M138.619 287.206C138.619 287.206 138.705 286.848 138.755 286.176C138.792 285.504 138.841 284.543 138.755 283.339C138.705 282.737 138.644 282.077 138.472 281.371C138.312 280.665 137.956 279.912 137.465 279.252C136.543 277.932 135.253 276.554 133.607 275.535C131.973 274.516 130.339 273.66 128.68 273.196C127.034 272.733 125.498 272.617 124.233 272.56C122.955 272.513 121.936 272.548 121.223 272.56C120.51 272.583 120.13 272.617 120.13 272.664C120.13 272.768 121.702 272.814 124.208 272.988C125.462 273.092 126.948 273.254 128.496 273.729C130.044 274.192 131.641 275.061 133.226 276.033C134.811 277.029 136.015 278.291 136.961 279.565C137.956 280.792 138.14 282.193 138.3 283.362C138.546 285.713 138.484 287.206 138.632 287.195L138.619 287.206Z" fill="#EB996E"/>
<path d="M123.754 269.619C123.754 269.711 125.289 269.746 127.747 270.012C130.118 270.36 133.902 270.522 136.064 273.59C138.398 276.392 140.389 279.032 141.261 281.197C142.182 283.351 142.096 284.844 142.231 284.833C142.268 284.833 142.33 284.462 142.293 283.802C142.268 283.142 142.109 282.17 141.691 281.047C140.905 278.754 138.927 276.022 136.58 273.208C135.978 272.502 135.327 271.83 134.577 271.297C133.828 270.753 132.956 270.441 132.157 270.221C130.535 269.792 129.037 269.665 127.796 269.572C125.302 269.41 123.754 269.538 123.754 269.607V269.619Z" fill="#EB996E"/>
<path d="M119.294 290.946C119.294 290.946 119.515 290.807 119.908 290.506C120.351 290.17 120.916 289.742 121.628 289.198C123.152 288.086 125.412 286.512 128.385 284.81L128.238 284.833C130.142 285.134 132.28 285.481 134.602 285.852L134.381 285.597C134.369 286.083 134.393 286.57 134.504 287.067C134.614 287.554 134.774 288.086 135.229 288.515C135.462 288.723 135.794 288.851 136.076 288.885C136.359 288.955 136.666 288.978 136.973 288.932C137.575 288.851 138.153 288.549 138.558 288.11C138.656 288.005 138.755 287.878 138.841 287.751L138.902 287.658L138.927 287.612V287.588H138.939C139.025 287.554 138.226 287.832 138.57 287.716H138.583L138.779 287.797C139.049 287.901 139.32 287.994 139.602 288.075C139.885 288.156 140.167 288.225 140.475 288.283C140.622 288.306 140.782 288.329 140.954 288.329C141.113 288.329 141.298 288.329 141.543 288.225C141.9 287.982 142.035 287.704 142.17 287.426C142.293 287.148 142.403 286.882 142.489 286.604C142.661 286.049 142.797 285.493 142.895 284.902L142.526 285.145C143.349 285.284 144.332 285.099 144.897 284.381C145.155 284.045 145.364 283.64 145.34 283.177C145.315 282.76 145.217 282.39 145.119 282.019C144.676 280.549 144.037 279.136 143.362 277.7L143.349 277.666C142.612 276.566 141.826 275.385 141.027 274.204C140.536 273.463 140.045 272.733 139.553 272.004C139.062 271.297 138.632 270.51 137.944 269.873C137.28 269.248 136.494 268.75 135.634 268.426C134.786 268.079 133.84 267.998 133.005 267.916C129.589 267.558 126.346 267.21 123.299 266.886H123.262H123.225C122.623 266.979 122.071 267.118 121.53 267.303C121.002 267.511 120.437 267.731 120.056 268.275L120.412 268.171C119.319 267.754 118.065 267.743 117.107 268.345C116.149 268.935 115.707 269.896 115.473 270.8L115.547 270.672C112.181 273.532 109.429 275.859 107.463 277.527C106.554 278.314 105.829 278.939 105.288 279.414C104.797 279.854 104.539 280.086 104.563 280.109C104.576 280.12 104.858 279.923 105.387 279.518C105.952 279.067 106.713 278.465 107.647 277.724C109.65 276.091 112.451 273.822 115.879 271.02L115.94 270.973L115.965 270.892C116.186 270.093 116.616 269.225 117.402 268.762C118.176 268.275 119.282 268.287 120.191 268.646L120.412 268.739L120.547 268.542C120.768 268.218 121.26 267.974 121.751 267.801C122.243 267.627 122.795 267.5 123.336 267.419H123.262C126.297 267.754 129.553 268.113 132.956 268.495C133.828 268.588 134.639 268.658 135.413 268.982C136.187 269.271 136.899 269.723 137.501 270.29C138.103 270.846 138.521 271.587 139.025 272.316C139.516 273.046 139.995 273.775 140.499 274.516C141.298 275.697 142.084 276.878 142.821 277.978L142.797 277.944C143.472 279.345 144.099 280.757 144.529 282.158C144.627 282.505 144.725 282.864 144.738 283.177C144.775 283.455 144.627 283.756 144.431 283.999C144.062 284.497 143.313 284.648 142.686 284.555L142.367 284.509L142.317 284.798C142.219 285.342 142.096 285.898 141.937 286.419C141.789 286.917 141.556 287.519 141.273 287.716C141.261 287.716 141.15 287.751 141.015 287.739C140.892 287.739 140.757 287.716 140.622 287.704C140.352 287.658 140.094 287.6 139.823 287.519C139.553 287.438 139.295 287.357 139.037 287.264L138.853 287.195C139.185 287.079 138.398 287.357 138.472 287.322V287.345L138.447 287.38L138.398 287.461C138.337 287.554 138.263 287.658 138.177 287.739C137.858 288.086 137.415 288.329 136.949 288.399C136.715 288.434 136.482 288.422 136.248 288.364C135.99 288.329 135.831 288.26 135.671 288.133C135.069 287.542 134.983 286.477 134.971 285.62V285.4L134.749 285.365C132.427 285.018 130.277 284.705 128.373 284.428H128.287L128.226 284.451C125.24 286.222 123.017 287.855 121.542 289.013C120.805 289.603 120.252 290.078 119.884 290.402C119.515 290.738 119.343 290.912 119.355 290.923L119.294 290.946Z" fill="#EB996E"/>
<path d="M216.707 250.213L137.489 250.815C134.921 250.815 132.464 251.973 132.083 254.37L123.422 308.777H82.6212C81.3067 308.777 80.2378 309.785 80.2378 311.024C80.2378 312.262 81.3067 313.27 82.6212 313.27H212.936L221.843 255.84C222.322 252.876 219.889 250.213 216.707 250.213Z" fill="#E0E0E0"/>
<path d="M216.707 250.213C216.707 250.213 217.137 250.167 217.961 250.329C218.759 250.502 220 250.966 220.983 252.216C221.474 252.83 221.843 253.652 221.966 254.601C222.101 255.562 221.806 256.581 221.671 257.67C221.339 259.869 220.958 262.405 220.528 265.242C218.784 276.647 216.277 293.088 213.181 313.305L213.157 313.501H212.948C179.224 313.525 134.909 313.548 86.5158 313.571H83.1127C82.5844 313.594 81.8595 313.571 81.3067 313.247C80.7415 312.957 80.3115 312.471 80.0904 311.904C79.6112 310.769 80.1887 309.368 81.319 308.8C81.8595 308.488 82.5844 308.465 83.1004 308.488H84.7712C89.231 308.488 93.6538 308.488 98.0152 308.488C106.738 308.488 115.227 308.488 123.422 308.488L123.115 308.731C126.235 289.244 129.135 271.066 131.752 254.752C131.838 253.721 132.341 252.598 133.214 251.903C134.074 251.186 135.167 250.803 136.248 250.641C137.354 250.479 138.398 250.572 139.443 250.537C140.487 250.537 141.519 250.526 142.551 250.514C146.667 250.491 150.647 250.468 154.48 250.433C162.147 250.387 169.235 250.34 175.673 250.306C188.536 250.248 198.783 250.19 205.847 250.155C209.361 250.155 212.063 250.155 213.919 250.143C214.828 250.143 215.516 250.143 216.007 250.143C216.474 250.143 216.72 250.167 216.72 250.167C216.72 250.167 216.486 250.19 216.007 250.201C215.516 250.201 214.828 250.224 213.919 250.248C212.063 250.271 209.348 250.306 205.847 250.352C198.783 250.421 188.536 250.537 175.673 250.664C169.235 250.722 162.147 250.792 154.48 250.861C150.647 250.896 146.667 250.931 142.551 250.966C141.519 250.966 140.487 250.989 139.443 250.989C138.398 251.023 137.329 250.942 136.322 251.093C135.315 251.243 134.319 251.602 133.558 252.239C132.784 252.876 132.366 253.768 132.268 254.786C129.688 271.101 126.813 289.279 123.717 308.777L123.68 309.02H123.41C115.227 309.02 106.726 309.02 98.0029 309.02C93.6415 309.02 89.2309 309.02 84.759 309.02H83.0881C82.4984 309.009 82.0561 309.02 81.6138 309.264C80.7415 309.692 80.3115 310.757 80.6801 311.626C80.8521 312.054 81.1838 312.436 81.6138 312.656C82.0561 312.899 82.4984 312.922 83.1004 312.899C84.2307 312.899 85.361 312.899 86.5035 312.899C134.897 312.922 179.211 312.957 212.936 312.969L212.69 313.166C215.872 292.961 218.452 276.531 220.246 265.138C220.7 262.289 221.106 259.765 221.45 257.565C221.585 256.465 221.892 255.458 221.769 254.543C221.671 253.629 221.315 252.83 220.848 252.228C219.914 250.989 218.698 250.514 217.924 250.329C217.125 250.143 216.695 250.178 216.695 250.155L216.707 250.213Z" fill="#263238"/>
<path d="M173.744 285.736C176.486 285.736 178.708 283.642 178.708 281.058C178.708 278.475 176.486 276.38 173.744 276.38C171.003 276.38 168.781 278.475 168.781 281.058C168.781 283.642 171.003 285.736 173.744 285.736Z" fill="white"/>
<path d="M126.641 312.772C126.752 312.795 129.27 298.936 132.268 281.834C135.266 264.721 137.6 250.838 137.489 250.827C137.379 250.803 134.86 264.663 131.862 281.776C128.865 298.878 126.53 312.76 126.641 312.783V312.772Z" fill="#263238"/>
</g>
<defs>
<clipPath id="clip0_6_15331">
<rect width="526" height="513" fill="white"/>
</clipPath>
</defs>
</svg>
