<svg width="522" height="406" viewBox="0 0 522 406" fill="none" xmlns="http://www.w3.org/2000/svg">
<g clip-path="url(#clip0_14_177)">
<path d="M112.844 125.013C111.444 125.013 110.101 125.498 109.11 126.361C108.12 127.224 107.564 128.395 107.564 129.616C107.564 130.837 108.12 132.007 109.11 132.871C110.101 133.734 111.444 134.219 112.844 134.219H179.218V132.211C179.218 130.784 179.624 129.379 180.401 128.123C181.177 126.866 182.3 125.798 183.667 125.013H112.844Z" fill="#E6E6E6"/>
<path d="M173.241 114.656H150.8C149.399 114.656 148.056 114.171 147.066 113.308C146.076 112.445 145.519 111.274 145.519 110.053C145.519 108.833 146.076 107.662 147.066 106.799C148.056 105.935 149.399 105.45 150.8 105.45H173.241C174.642 105.45 175.985 105.935 176.975 106.799C177.965 107.662 178.522 108.833 178.522 110.053C178.522 111.274 177.965 112.445 176.975 113.308C175.985 114.171 174.642 114.656 173.241 114.656Z" fill="#E6E6E6"/>
<path d="M122.909 81.8604H35.7834C34.383 81.8604 33.0399 81.3755 32.0496 80.5123C31.0594 79.649 30.5031 78.4783 30.5031 77.2575C30.5031 76.0367 31.0594 74.866 32.0496 74.0027C33.0399 73.1395 34.383 72.6546 35.7834 72.6546H122.909C124.31 72.6546 125.653 73.1395 126.643 74.0027C127.633 74.866 128.19 76.0367 128.19 77.2575C128.19 78.4783 127.633 79.649 126.643 80.5123C125.653 81.3755 124.31 81.8604 122.909 81.8604Z" fill="#E6E6E6"/>
<path d="M84.9567 62.298H73.736C72.3355 62.298 70.9925 61.813 70.0022 60.9498C69.0119 60.0866 68.4556 58.9158 68.4556 57.6951C68.4556 56.4743 69.0119 55.3035 70.0022 54.4403C70.9925 53.5771 72.3355 53.0921 73.736 53.0921H84.9567C86.3572 53.0921 87.7003 53.5771 88.6905 54.4403C89.6808 55.3035 90.2371 56.4743 90.2371 57.6951C90.2371 58.9158 89.6808 60.0866 88.6905 60.9498C87.7003 61.813 86.3572 62.298 84.9567 62.298Z" fill="#E6E6E6"/>
<path d="M178.555 217.586H96.4208C93.4459 217.583 90.5938 216.552 88.4902 214.718C86.3866 212.884 85.2034 210.398 85.2 207.805V94.55C85.2034 91.9567 86.3866 89.4705 88.4902 87.6368C90.5938 85.8031 93.4459 84.7716 96.4208 84.7687H227.62C230.595 84.7716 233.447 85.8031 235.551 87.6368C237.654 89.4705 238.838 91.9567 238.841 94.55V122.621H237.521V94.55C237.518 92.2618 236.474 90.0681 234.618 88.4501C232.762 86.8322 230.245 85.9221 227.62 85.9195H96.4208C93.7959 85.9221 91.2793 86.8322 89.4232 88.4501C87.5671 90.0681 86.5231 92.2618 86.5201 94.55V207.805C86.5231 210.093 87.5671 212.287 89.4232 213.905C91.2793 215.523 93.7959 216.433 96.4208 216.435H178.555V217.586Z" fill="#CCCCCC"/>
<path d="M85.8601 149.787H25.9879C23.0129 149.784 20.1609 148.753 18.0573 146.919C15.9537 145.086 14.7704 142.599 14.7671 140.006V47.9138C14.7704 45.3206 15.9537 42.8344 18.0573 41.0007C20.1609 39.167 23.0129 38.1355 25.9879 38.1326H132.705C135.68 38.1355 138.532 39.167 140.635 41.0007C142.739 42.8344 143.922 45.3206 143.926 47.9138V85.3441H142.605V47.9138C142.602 45.6257 141.558 43.432 139.702 41.814C137.846 40.196 135.33 39.2859 132.705 39.2833H25.9879C23.3629 39.2859 20.8464 40.196 18.9903 41.814C17.1342 43.432 16.0901 45.6257 16.0872 47.9138V140.006C16.0901 142.294 17.1342 144.488 18.9903 146.106C20.8464 147.724 23.3629 148.634 25.9879 148.637H85.8601V149.787Z" fill="#CCCCCC"/>
<path d="M353.1 125.013C354.468 125.798 355.59 126.866 356.366 128.123C357.143 129.379 357.549 130.784 357.549 132.211V134.219H423.923C425.323 134.219 426.666 133.734 427.657 132.871C428.647 132.007 429.203 130.837 429.203 129.616C429.203 128.395 428.647 127.224 427.657 126.361C426.666 125.498 425.323 125.013 423.923 125.013H353.1Z" fill="#E6E6E6"/>
<path d="M358.245 110.053C358.247 108.833 358.804 107.663 359.794 106.8C360.784 105.937 362.126 105.452 363.526 105.45H385.967C387.368 105.45 388.711 105.935 389.701 106.799C390.691 107.662 391.248 108.833 391.248 110.053C391.248 111.274 390.691 112.445 389.701 113.308C388.711 114.171 387.368 114.656 385.967 114.656H363.526C362.126 114.655 360.784 114.17 359.794 113.307C358.804 112.444 358.247 111.274 358.245 110.053Z" fill="#E6E6E6"/>
<path d="M408.577 77.2575C408.579 76.0372 409.136 74.8672 410.126 74.0043C411.116 73.1414 412.458 72.656 413.858 72.6546H500.984C502.384 72.6546 503.727 73.1395 504.717 74.0027C505.708 74.866 506.264 76.0367 506.264 77.2575C506.264 78.4783 505.708 79.649 504.717 80.5123C503.727 81.3755 502.384 81.8604 500.984 81.8604H413.858C412.458 81.859 411.116 81.3736 410.126 80.5107C409.136 79.6478 408.579 78.4779 408.577 77.2575Z" fill="#E6E6E6"/>
<path d="M446.53 57.6951C446.532 56.4747 447.088 55.3048 448.078 54.4418C449.068 53.5789 450.41 53.0935 451.81 53.0921H463.031C464.432 53.0921 465.775 53.5771 466.765 54.4403C467.755 55.3035 468.311 56.4743 468.311 57.6951C468.311 58.9158 467.755 60.0866 466.765 60.9498C465.775 61.813 464.432 62.298 463.031 62.298H451.81C450.41 62.2966 449.068 61.8112 448.078 60.9483C447.088 60.0854 446.532 58.9154 446.53 57.6951Z" fill="#E6E6E6"/>
<path d="M358.212 217.586H440.346C443.321 217.583 446.173 216.552 448.277 214.718C450.38 212.884 451.564 210.398 451.567 207.805V94.55C451.564 91.9567 450.38 89.4705 448.277 87.6368C446.173 85.8031 443.321 84.7716 440.346 84.7687H309.147C306.172 84.7716 303.32 85.8031 301.216 87.6368C299.113 89.4705 297.929 91.9567 297.926 94.55V122.621H299.246V94.55C299.249 92.2618 300.293 90.0681 302.149 88.4501C304.005 86.8322 306.522 85.9221 309.147 85.9195H440.346C442.971 85.9221 445.488 86.8322 447.344 88.4501C449.2 90.0681 450.244 92.2618 450.247 94.55V207.805C450.244 210.093 449.2 212.287 447.344 213.905C445.488 215.523 442.971 216.433 440.346 216.435H358.212V217.586Z" fill="#CCCCCC"/>
<path d="M450.907 149.787H510.779C513.754 149.784 516.606 148.753 518.71 146.919C520.813 145.086 521.997 142.599 522 140.006V47.9138C521.997 45.3206 520.813 42.8344 518.71 41.0007C516.606 39.167 513.754 38.1355 510.779 38.1326H404.062C401.087 38.1355 398.235 39.167 396.132 41.0007C394.028 42.8344 392.845 45.3206 392.841 47.9138V85.3441H394.162V47.9138C394.165 45.6257 395.209 43.432 397.065 41.814C398.921 40.196 401.437 39.2859 404.062 39.2833H510.779C513.404 39.2859 515.921 40.196 517.777 41.814C519.633 43.432 520.677 45.6257 520.68 47.9138V140.006C520.677 142.294 519.633 144.488 517.777 146.106C515.921 147.724 513.404 148.634 510.779 148.637H450.907V149.787Z" fill="#CCCCCC"/>
<path d="M347.371 122.429H189.119C186.145 122.435 183.294 123.467 181.191 125.3C179.088 127.133 177.904 129.618 177.898 132.211V268.854C177.901 271.448 179.084 273.934 181.188 275.768C183.292 277.602 186.144 278.633 189.119 278.636H347.371C350.346 278.633 353.198 277.602 355.302 275.768C357.406 273.934 358.589 271.448 358.592 268.854V132.211C358.589 129.617 357.406 127.131 355.302 125.297C353.198 123.464 350.346 122.432 347.371 122.429ZM357.272 268.854C357.269 271.143 356.224 273.336 354.368 274.954C352.512 276.572 349.996 277.482 347.371 277.485H189.119C186.494 277.482 183.978 276.572 182.122 274.954C180.266 273.336 179.221 271.143 179.218 268.854V132.211C179.222 129.923 180.267 127.73 182.123 126.112C183.978 124.494 186.494 123.584 189.119 123.58H347.371C349.996 123.583 352.512 124.493 354.368 126.111C356.224 127.729 357.269 129.923 357.272 132.211V268.854Z" fill="#3F3D56"/>
<path d="M334.909 175.645H201.58C200.179 175.645 198.836 175.16 197.846 174.297C196.856 173.434 196.299 172.263 196.299 171.042C196.299 169.821 196.856 168.651 197.846 167.787C198.836 166.924 200.179 166.439 201.58 166.439H334.909C336.309 166.439 337.652 166.924 338.643 167.787C339.633 168.651 340.189 169.821 340.189 171.042C340.189 172.263 339.633 173.434 338.643 174.297C337.652 175.16 336.309 175.645 334.909 175.645Z" fill="#CCCCCC"/>
<path d="M296.956 156.083H239.532C238.132 156.083 236.789 155.598 235.799 154.734C234.808 153.871 234.252 152.701 234.252 151.48C234.252 150.259 234.808 149.088 235.799 148.225C236.789 147.362 238.132 146.877 239.532 146.877H296.956C298.357 146.877 299.7 147.362 300.69 148.225C301.68 149.088 302.237 150.259 302.237 151.48C302.237 152.701 301.68 153.871 300.69 154.734C299.7 155.598 298.357 156.083 296.956 156.083Z" fill="#6C63FF"/>
<path d="M258.674 203.263H201.25C199.849 203.263 198.506 202.778 197.516 201.915C196.526 201.051 195.969 199.881 195.969 198.66C195.969 197.439 196.526 196.268 197.516 195.405C198.506 194.542 199.849 194.057 201.25 194.057H258.674C260.074 194.057 261.417 194.542 262.407 195.405C263.398 196.268 263.954 197.439 263.954 198.66C263.954 199.881 263.398 201.051 262.407 201.915C261.417 202.778 260.074 203.263 258.674 203.263Z" fill="#CCCCCC"/>
<path d="M258.674 223.4H201.25C199.849 223.4 198.506 222.916 197.516 222.052C196.526 221.189 195.969 220.018 195.969 218.798C195.969 217.577 196.526 216.406 197.516 215.543C198.506 214.68 199.849 214.195 201.25 214.195H258.674C260.074 214.195 261.417 214.68 262.407 215.543C263.398 216.406 263.954 217.577 263.954 218.798C263.954 220.018 263.398 221.189 262.407 222.052C261.417 222.916 260.074 223.4 258.674 223.4Z" fill="#CCCCCC"/>
<path d="M258.674 243.538H201.25C199.849 243.538 198.506 243.053 197.516 242.19C196.526 241.327 195.969 240.156 195.969 238.935C195.969 237.715 196.526 236.544 197.516 235.681C198.506 234.817 199.849 234.332 201.25 234.332H258.674C260.074 234.332 261.417 234.817 262.407 235.681C263.398 236.544 263.954 237.715 263.954 238.935C263.954 240.156 263.398 241.327 262.407 242.19C261.417 243.053 260.074 243.538 258.674 243.538Z" fill="#CCCCCC"/>
<path d="M330.293 207.209C335.735 207.209 340.146 203.363 340.146 198.619C340.146 193.875 335.735 190.029 330.293 190.029C324.85 190.029 320.439 193.875 320.439 198.619C320.439 203.363 324.85 207.209 330.293 207.209Z" fill="#6C63FF"/>
<path d="M329.316 201.896C329.094 201.896 328.879 201.834 328.701 201.718L328.69 201.71L326.375 200.166C326.158 200.021 326.016 199.808 325.98 199.572C325.945 199.336 326.018 199.097 326.184 198.908C326.35 198.72 326.595 198.596 326.866 198.565C327.136 198.534 327.41 198.598 327.627 198.742L329.127 199.745L332.671 195.714C332.754 195.62 332.856 195.542 332.973 195.483C333.09 195.424 333.219 195.386 333.353 195.371C333.487 195.355 333.623 195.363 333.754 195.393C333.884 195.424 334.006 195.476 334.114 195.548L334.092 195.575L334.114 195.548C334.331 195.693 334.472 195.907 334.508 196.143C334.544 196.378 334.471 196.617 334.305 196.806L330.136 201.545C330.039 201.654 329.915 201.742 329.773 201.803C329.631 201.864 329.475 201.895 329.317 201.895L329.316 201.896Z" fill="white"/>
<path d="M79.3463 26.7023C76.317 26.7023 73.3558 25.9192 70.8371 24.4522C68.3184 22.9851 66.3554 20.9 65.1961 18.4604C64.0369 16.0207 63.7336 13.3363 64.3246 10.7464C64.9156 8.15656 66.3743 5.77762 68.5163 3.91044C70.6583 2.04326 73.3873 0.771691 76.3584 0.25654C79.3294 -0.258611 82.4089 0.00578651 85.2076 1.0163C88.0062 2.02682 90.3983 3.73807 92.0812 5.93365C93.7642 8.12924 94.6624 10.7105 94.6624 13.3511C94.6578 16.8909 93.0427 20.2844 90.1713 22.7874C87.3 25.2903 83.4069 26.6983 79.3463 26.7023ZM79.3463 1.15074C76.5781 1.15075 73.8722 1.86631 71.5706 3.20691C69.2689 4.54752 67.4751 6.45296 66.4157 8.6823C65.3564 10.9116 65.0793 13.3647 65.6193 15.7314C66.1594 18.098 67.4924 20.2719 69.4497 21.9781C71.4071 23.6844 73.9009 24.8464 76.6159 25.3171C79.3309 25.7879 82.145 25.5463 84.7024 24.6228C87.2598 23.6994 89.4457 22.1357 90.9836 20.1293C92.5215 18.123 93.3423 15.7641 93.3423 13.3511C93.3381 10.1165 91.8622 7.0154 89.2383 4.72817C86.6145 2.44094 83.057 1.15438 79.3463 1.15074Z" fill="#CCCCCC"/>
<path d="M77.894 18.2247C77.5642 18.2252 77.2433 18.1322 76.9795 17.9598L76.9631 17.9491L73.5188 15.6523C73.3592 15.5457 73.2254 15.4127 73.1248 15.261C73.0242 15.1093 72.9589 14.9418 72.9326 14.7681C72.9062 14.5944 72.9194 14.4178 72.9714 14.2486C73.0233 14.0793 73.113 13.9206 73.2353 13.7815C73.3576 13.6425 73.5101 13.5258 73.6841 13.4381C73.8582 13.3504 74.0503 13.2935 74.2496 13.2706C74.4489 13.2476 74.6514 13.2591 74.8455 13.3044C75.0397 13.3497 75.2218 13.4278 75.3813 13.5344L77.6123 15.0258L82.8843 9.03031C83.0065 8.89131 83.159 8.77466 83.3329 8.68702C83.5069 8.59938 83.699 8.54246 83.8982 8.51953C84.0974 8.49659 84.2998 8.50808 84.4939 8.55334C84.688 8.59861 84.87 8.67675 85.0294 8.78332L84.9971 8.82322L85.0307 8.78361C85.3524 8.99914 85.5629 9.31711 85.616 9.66775C85.669 10.0184 85.5603 10.3731 85.3137 10.6539L79.1128 17.7028C78.9693 17.8652 78.7849 17.9966 78.5738 18.0868C78.3626 18.1771 78.1305 18.2237 77.8953 18.2231L77.894 18.2247Z" fill="#CCCCCC"/>
<path d="M176.502 73.3069C173.473 73.3069 170.512 72.5238 167.993 71.0568C165.474 69.5897 163.511 67.5045 162.352 65.0649C161.193 62.6253 160.889 59.9409 161.48 57.351C162.071 54.7612 163.53 52.3822 165.672 50.5151C167.814 48.6479 170.543 47.3763 173.514 46.8612C176.485 46.346 179.565 46.6104 182.363 47.621C185.162 48.6315 187.554 50.3427 189.237 52.5383C190.92 54.7339 191.818 57.3152 191.818 59.9558C191.814 63.4955 190.199 66.8891 187.327 69.3921C184.456 71.895 180.563 73.303 176.502 73.3069ZM176.502 47.7554C173.734 47.7554 171.028 48.471 168.726 49.8116C166.425 51.1522 164.631 53.0577 163.572 55.287C162.512 57.5163 162.235 59.9694 162.775 62.336C163.315 64.7027 164.648 66.8766 166.606 68.5828C168.563 70.2891 171.057 71.451 173.772 71.9218C176.487 72.3925 179.301 72.1509 181.858 71.2275C184.416 70.304 186.602 68.7403 188.139 66.7339C189.677 64.7276 190.498 62.3688 190.498 59.9558C190.494 56.7211 189.018 53.62 186.394 51.3328C183.77 49.0456 180.213 47.759 176.502 47.7554Z" fill="#CCCCCC"/>
<path d="M175.05 64.8294C174.72 64.8298 174.399 64.7369 174.135 64.5644L174.119 64.5537L170.675 62.2569C170.352 62.0416 170.142 61.7236 170.088 61.3727C170.035 61.0219 170.144 60.667 170.391 60.3862C170.638 60.1054 171.003 59.9216 171.405 59.8752C171.808 59.8289 172.215 59.9238 172.537 60.1391L174.768 61.6305L180.04 55.635C180.162 55.496 180.315 55.3793 180.489 55.2917C180.663 55.204 180.855 55.1471 181.054 55.1242C181.253 55.1013 181.456 55.1127 181.65 55.158C181.844 55.2033 182.026 55.2814 182.185 55.388L182.153 55.4279L182.187 55.3883C182.508 55.6038 182.719 55.9218 182.772 56.2724C182.825 56.623 182.716 56.9777 182.47 57.2586L176.269 64.3074C176.125 64.4698 175.941 64.6013 175.73 64.6915C175.518 64.7817 175.286 64.8284 175.051 64.8278L175.05 64.8294Z" fill="#CCCCCC"/>
<path d="M330.293 227.346C335.735 227.346 340.146 223.501 340.146 218.757C340.146 214.013 335.735 210.167 330.293 210.167C324.85 210.167 320.439 214.013 320.439 218.757C320.439 223.501 324.85 227.346 330.293 227.346Z" fill="#6C63FF"/>
<path d="M329.316 222.034C329.094 222.034 328.879 221.971 328.701 221.855L328.69 221.848L326.375 220.304C326.267 220.232 326.177 220.143 326.11 220.041C326.042 219.939 325.998 219.826 325.98 219.71C325.963 219.593 325.972 219.474 326.006 219.36C326.041 219.246 326.102 219.14 326.184 219.046C326.266 218.953 326.369 218.874 326.486 218.815C326.603 218.756 326.732 218.718 326.866 218.703C327 218.687 327.136 218.695 327.267 218.725C327.397 218.756 327.52 218.808 327.627 218.88L329.127 219.883L332.671 215.852C332.754 215.758 332.856 215.68 332.973 215.621C333.09 215.562 333.219 215.524 333.353 215.508C333.487 215.493 333.623 215.501 333.754 215.531C333.884 215.561 334.006 215.614 334.114 215.686L334.092 215.713L334.114 215.686C334.331 215.831 334.472 216.045 334.508 216.28C334.544 216.516 334.471 216.755 334.305 216.943L330.136 221.683C330.039 221.792 329.915 221.88 329.773 221.941C329.631 222.001 329.475 222.033 329.317 222.032L329.316 222.034Z" fill="white"/>
<path d="M330.293 247.525C335.735 247.525 340.146 243.679 340.146 238.935C340.146 234.191 335.735 230.346 330.293 230.346C324.85 230.346 320.439 234.191 320.439 238.935C320.439 243.679 324.85 247.525 330.293 247.525Z" fill="#6C63FF"/>
<path d="M329.316 242.212C329.095 242.212 328.879 242.15 328.701 242.034L328.69 242.027L326.375 240.483C326.158 240.338 326.017 240.124 325.981 239.888C325.946 239.652 326.019 239.414 326.185 239.225C326.351 239.037 326.596 238.913 326.866 238.882C327.137 238.851 327.41 238.914 327.627 239.059L329.127 240.061L332.671 236.03C332.754 235.937 332.856 235.858 332.973 235.8C333.09 235.741 333.219 235.702 333.353 235.687C333.487 235.671 333.623 235.679 333.754 235.71C333.884 235.74 334.006 235.793 334.114 235.864L334.092 235.891L334.115 235.864C334.331 236.009 334.472 236.223 334.508 236.459C334.544 236.695 334.471 236.933 334.305 237.122L330.136 241.861C330.039 241.97 329.915 242.059 329.773 242.119C329.631 242.18 329.475 242.211 329.317 242.211L329.316 242.212Z" fill="white"/>
<path d="M268.259 110.706C257.864 110.551 253.14 103.676 253.14 97.3535C253.141 91.0309 257.865 84.1566 268.237 84.0034H268.26C278.633 84.1577 283.357 91.0329 283.356 97.3554C283.356 103.678 278.631 110.553 268.259 110.706ZM268.249 85.1542C258.776 85.2986 254.461 91.5781 254.46 97.3535C254.46 103.131 258.778 109.414 268.259 109.555C277.717 109.415 282.036 103.133 282.036 97.3554C282.037 91.5801 277.722 85.3006 268.249 85.1542Z" fill="#6C63FF"/>
<path d="M271.686 98.0797C274.335 102.092 267.063 103.659 264.28 101.242L264.977 99.9437C269.501 103.35 273.487 97.4498 266.577 98.0105V96.5881C272.905 97.033 269.351 91.4809 265.136 94.7654L264.454 93.4674C267.89 90.3595 275.602 94.1175 270.157 97.2233C270.765 97.3472 271.304 97.6496 271.686 98.0797Z" fill="#6C63FF"/>
<path d="M361.315 73.3069C358.285 73.3069 355.324 72.5238 352.806 71.0568C350.287 69.5897 348.324 67.5045 347.165 65.0649C346.005 62.6253 345.702 59.9409 346.293 57.351C346.884 54.7612 348.343 52.3822 350.485 50.5151C352.627 48.6479 355.356 47.3763 358.327 46.8612C361.298 46.346 364.377 46.6104 367.176 47.621C369.975 48.6315 372.367 50.3427 374.05 52.5383C375.733 54.7339 376.631 57.3152 376.631 59.9558C376.626 63.4955 375.011 66.8891 372.14 69.3921C369.268 71.895 365.375 73.303 361.315 73.3069ZM361.315 47.7554C358.546 47.7554 355.84 48.471 353.539 49.8116C351.237 51.1522 349.443 53.0577 348.384 55.287C347.325 57.5163 347.048 59.9694 347.588 62.336C348.128 64.7027 349.461 66.8766 351.418 68.5828C353.376 70.2891 355.869 71.451 358.584 71.9218C361.299 72.3925 364.113 72.1509 366.671 71.2275C369.228 70.304 371.414 68.7403 372.952 66.7339C374.49 64.7276 375.311 62.3688 375.311 59.9558C375.307 56.7211 373.831 53.62 371.207 51.3328C368.583 49.0456 365.025 47.759 361.315 47.7554Z" fill="#CCCCCC"/>
<path d="M365.568 62.9523H363.968V64.8716H361.972V62.9523H357.061V61.6265L362.336 55.0399H363.968V61.5577H365.568V62.9523ZM361.972 61.5577V57.8153L358.994 61.5577H361.972Z" fill="#CCCCCC"/>
<path d="M457.421 26.7023C454.391 26.7022 451.43 25.9192 448.912 24.4521C446.393 22.9851 444.43 20.8999 443.271 18.4603C442.111 16.0207 441.808 13.3362 442.399 10.7464C442.99 8.1565 444.449 5.77757 446.591 3.9104C448.733 2.04322 451.462 0.771663 454.433 0.256518C457.404 -0.258627 460.483 0.00577982 463.282 1.0163C466.081 2.02682 468.473 3.73807 470.156 5.93365C471.839 8.12923 472.737 10.7105 472.737 13.3511C472.732 16.8909 471.117 20.2844 468.246 22.7874C465.374 25.2904 461.481 26.6983 457.421 26.7023ZM457.421 1.15073C454.653 1.15075 451.947 1.86632 449.645 3.20693C447.343 4.54755 445.55 6.453 444.49 8.68234C443.431 10.9117 443.154 13.3648 443.694 15.7314C444.234 18.098 445.567 20.2719 447.524 21.9782C449.482 23.6844 451.975 24.8464 454.69 25.3171C457.405 25.7879 460.22 25.5462 462.777 24.6228C465.334 23.6994 467.52 22.1356 469.058 20.1293C470.596 18.1229 471.417 15.7641 471.417 13.3511C471.413 10.1165 469.937 7.01536 467.313 4.72813C464.689 2.4409 461.131 1.15435 457.421 1.15073Z" fill="#CCCCCC"/>
<path d="M459.702 12.3224C460.232 12.5779 460.667 12.9615 460.953 13.4271C461.257 13.9311 461.41 14.494 461.397 15.0633C461.411 15.6616 461.235 16.2517 460.89 16.7689C460.544 17.2676 460.037 17.6663 459.432 17.9148C458.744 18.1968 457.991 18.3362 457.231 18.3222C456.519 18.3216 455.812 18.2166 455.14 18.0115C454.516 17.8357 453.939 17.5515 453.445 17.1763L454.126 15.878C455.011 16.515 456.115 16.8749 457.262 16.9001C457.852 16.9353 458.434 16.7694 458.886 16.4374C459.251 16.0738 459.451 15.6062 459.448 15.1229C459.446 14.6396 459.24 14.1739 458.87 13.8137C458.663 13.6465 458.42 13.517 458.155 13.4329C457.889 13.3487 457.608 13.3115 457.326 13.3235C456.896 13.321 456.471 13.3938 456.074 13.5375C455.683 13.6802 455.332 13.8945 455.045 14.1657H453.809V8.37999H460.874V9.76082H455.805V12.4396C456.405 12.0916 457.113 11.9133 457.833 11.9288C458.484 11.9169 459.128 12.0525 459.702 12.3224Z" fill="#CCCCCC"/>
<path d="M97.8149 299.68C97.4143 298.909 97.2123 298.072 97.2232 297.226C97.2341 296.38 97.4576 295.547 97.8779 294.784C98.2983 294.022 98.9053 293.349 99.6562 292.813C100.407 292.278 101.284 291.892 102.224 291.684L104.225 271.197L113.848 277.814L110.472 296.254C110.77 297.655 110.467 299.101 109.622 300.32C108.777 301.539 107.449 302.446 105.889 302.868C104.329 303.29 102.645 303.199 101.157 302.611C99.6688 302.023 98.4797 300.98 97.8149 299.68Z" fill="#FFB8B8"/>
<path d="M104.004 289.533C103.311 289.453 102.673 289.163 102.202 288.714C101.731 288.264 101.456 287.685 101.427 287.076L100.313 263.827C99.9127 255.471 101.864 247.157 105.996 239.608L115.875 221.562C116.537 220.477 117.487 219.545 118.644 218.844C119.802 218.142 121.136 217.692 122.533 217.53C123.89 217.363 125.273 217.485 126.564 217.884C127.855 218.284 129.016 218.95 129.949 219.825C130.422 220.265 130.847 220.743 131.218 221.253C131.963 222.307 132.395 223.506 132.474 224.743C132.552 225.979 132.275 227.213 131.668 228.332L116.519 264.407L115.354 287.91C115.336 288.266 115.234 288.615 115.055 288.935C114.875 289.255 114.622 289.54 114.31 289.771C113.998 290.001 113.636 290.174 113.244 290.277C112.853 290.38 112.441 290.411 112.035 290.369L104.043 289.538L104.004 289.533Z" fill="#6C63FF"/>
<path d="M75.6609 391.112L83.0706 393.947L99.1414 370.383L88.2058 366.199L75.6609 391.112Z" fill="#FFB8B8"/>
<path d="M74.8327 388.28L89.4249 393.863C90.6461 394.331 91.7503 395.003 92.6734 395.842C93.5965 396.682 94.3209 397.671 94.8054 398.754C95.2898 399.837 95.5248 400.993 95.4968 402.155C95.4689 403.318 95.1786 404.464 94.6425 405.528L94.5098 405.792L70.6182 396.65L74.8327 388.28Z" fill="#2F2E41"/>
<path d="M175.138 398.954H183.23L187.079 371.746L175.136 371.746L175.138 398.954Z" fill="#FFB8B8"/>
<path d="M173.074 396.651L189.01 396.65C190.343 396.65 191.665 396.879 192.897 397.324C194.129 397.769 195.248 398.421 196.191 399.243C197.135 400.065 197.883 401.041 198.393 402.115C198.903 403.189 199.166 404.341 199.166 405.503V405.791L173.074 405.792L173.074 396.651Z" fill="#2F2E41"/>
<path d="M93.6339 391.218C93.3227 391.218 93.0135 391.176 92.7173 391.092L78.9966 387.248C78.2556 387.037 77.6386 386.582 77.2776 385.98C76.9166 385.378 76.8403 384.676 77.065 384.026L122.565 257.724L156.647 251.898L156.767 252.069C179.298 284.029 186.819 332.851 191.591 384.58C191.649 385.255 191.403 385.924 190.905 386.444C190.408 386.964 189.697 387.295 188.924 387.366L173.924 388.673C173.224 388.737 172.521 388.581 171.941 388.233C171.361 387.885 170.943 387.368 170.762 386.776L143.296 302.078C143.242 301.905 143.128 301.751 142.97 301.638C142.811 301.524 142.616 301.456 142.411 301.443C142.206 301.431 142.002 301.474 141.826 301.567C141.651 301.66 141.513 301.798 141.432 301.963L96.3537 389.652C96.1261 390.117 95.747 390.513 95.2635 390.791C94.78 391.07 94.2134 391.218 93.6339 391.218Z" fill="#2F2E41"/>
<path d="M140.174 207.149C149.127 207.149 156.385 200.822 156.385 193.018C156.385 185.213 149.127 178.886 140.174 178.886C131.221 178.886 123.963 185.213 123.963 193.018C123.963 200.822 131.221 207.149 140.174 207.149Z" fill="#FFB8B8"/>
<path d="M119.666 261.464L119.555 261.262C119.48 261.124 112.011 247.312 112.706 231.38C112.936 226.151 115.45 221.196 119.733 217.529C124.016 213.862 129.745 211.761 135.747 211.655C141.278 211.56 146.671 213.171 150.974 216.202C155.277 219.233 158.216 223.49 159.271 228.225C161.353 237.487 161.301 246.26 159.117 254.299L159.068 254.478L158.861 254.515L119.666 261.464Z" fill="#6C63FF"/>
<path d="M202.319 281.4C201.36 281.276 200.442 280.97 199.633 280.504C198.823 280.038 198.14 279.423 197.633 278.702C197.125 277.981 196.805 277.172 196.695 276.332C196.586 275.491 196.688 274.64 196.997 273.838L178.324 261.276L189.918 257.809L205.872 270.269C207.383 270.81 208.614 271.815 209.332 273.094C210.05 274.374 210.205 275.838 209.767 277.21C209.329 278.582 208.329 279.766 206.957 280.538C205.584 281.311 203.934 281.617 202.319 281.4Z" fill="#FFB8B8"/>
<path d="M156.497 253.706L156.454 253.645L136.769 225.856C136.081 224.784 135.696 223.583 135.647 222.355C135.598 221.127 135.885 219.906 136.486 218.794C137.06 217.709 137.926 216.762 139.011 216.032C140.096 215.302 141.367 214.812 142.716 214.603C143.397 214.495 144.088 214.442 144.78 214.446C146.2 214.47 147.59 214.804 148.825 215.416C150.06 216.028 151.1 216.899 151.851 217.95L178.435 248.59L200.468 262.173C200.802 262.378 201.084 262.642 201.295 262.947C201.507 263.252 201.644 263.592 201.698 263.945C201.752 264.299 201.721 264.658 201.609 265.001C201.496 265.343 201.303 265.662 201.042 265.937L195.913 271.343C195.465 271.819 194.836 272.139 194.14 272.246C193.445 272.353 192.729 272.239 192.121 271.926L156.497 253.706Z" fill="#6C63FF"/>
<path d="M137.275 192.141C138.47 190.428 141.106 189.943 143.396 190.139C145.685 190.334 147.911 191.036 150.211 191.02C156.598 190.977 161.528 184.192 158.842 179.14C156.64 174.997 151.14 173.178 146.165 171.75C135.734 168.757 123.751 165.881 114.285 170.734C111.269 172.327 108.795 174.593 107.119 177.297C105.442 180.002 104.625 183.048 104.751 186.12C104.964 189.94 106.642 193.864 105.223 197.483C103.585 201.658 98.3935 203.898 93.4871 204.981C84.8863 206.88 75.818 206.575 67.1634 208.278C58.5088 209.982 49.6402 214.505 47.3073 221.967C45.7749 226.869 47.3739 232.145 50.0218 236.671C52.7235 241.288 56.4779 245.376 61.0552 248.684C65.6325 251.992 70.9363 254.451 76.6418 255.909C82.3474 257.368 88.3345 257.796 94.2364 257.168C100.138 256.539 105.831 254.867 110.966 252.253C121.428 246.927 128.982 237.927 133.486 228.122C136.039 222.402 137.837 216.448 138.844 210.374C139.852 204.688 138.996 198.942 137.17 193.413C137.083 193.206 137.048 192.986 137.066 192.767C137.084 192.548 137.155 192.334 137.275 192.141Z" fill="#2F2E41"/>
<path d="M252.137 406H0.660045C0.48499 406 0.317104 405.939 0.193322 405.831C0.0695397 405.724 0 405.577 0 405.425C0 405.272 0.0695397 405.126 0.193322 405.018C0.317104 404.91 0.48499 404.849 0.660045 404.849H252.137C252.312 404.849 252.48 404.91 252.604 405.018C252.728 405.126 252.797 405.272 252.797 405.425C252.797 405.577 252.728 405.724 252.604 405.831C252.48 405.939 252.312 406 252.137 406Z" fill="#3F3D56"/>
</g>
<defs>
<clipPath id="clip0_14_177">
<rect width="522" height="406" fill="white"/>
</clipPath>
</defs>
</svg>
