<svg width="634" height="600" viewBox="0 0 634 600" fill="none" xmlns="http://www.w3.org/2000/svg">
<g clip-path="url(#clip0_6_13071)">
<path d="M619.209 337.868C601.118 392.098 562.133 451.525 504.749 470.883C418.063 500.12 410.311 570.419 252.978 569.942C228.45 569.876 205.679 567.33 184.665 562.689C173.373 560.196 162.577 557.081 152.318 553.408C59.1412 520.154 8.10046 441.103 0.818503 356.63C-8.78349 245.532 67.6972 189.473 117.531 156.457C167.365 123.442 224.186 0.729464 378.864 0.000214619C402.439 -0.105858 426.069 2.18796 449.082 7.41204C501.597 19.332 555.642 48.0777 588.096 91.8724C590.537 95.1607 592.87 98.5417 595.11 101.976C638.895 169.332 643.884 263.922 619.209 337.855V337.868Z" fill="#92E3A9"/>
<path opacity="0.7" d="M619.209 337.868C601.118 392.098 562.133 451.525 504.749 470.883C418.063 500.12 410.311 570.419 252.978 569.942C228.45 569.876 205.679 567.33 184.665 562.689C173.373 560.196 162.577 557.081 152.318 553.408C59.1412 520.154 8.10046 441.103 0.818503 356.63C-8.78349 245.532 67.6972 189.473 117.531 156.457C167.365 123.442 224.186 0.729464 378.864 0.000214619C402.439 -0.105858 426.069 2.18796 449.082 7.41204C501.597 19.332 555.642 48.0777 588.096 91.8724C590.537 95.1607 592.87 98.5417 595.11 101.976C638.895 169.332 643.884 263.922 619.209 337.855V337.868Z" fill="white"/>
<path d="M21.7922 577.579H619.289" stroke="#263238" stroke-linecap="round" stroke-linejoin="round"/>
<path d="M110.865 181.119C110.865 191.169 106.105 200.133 98.6752 205.9C93.2708 210.13 86.4179 212.636 78.9885 212.636C71.559 212.636 64.6927 210.117 59.2883 205.9C51.8454 200.146 47.098 191.183 47.098 181.119C47.098 163.697 61.3669 149.589 78.9885 149.589C96.61 149.589 110.865 163.697 110.865 181.119Z" stroke="#263238" stroke-linecap="round" stroke-linejoin="round"/>
<path d="M85.9797 187.374C92.2357 183.55 94.1726 175.437 90.3057 169.252C86.4389 163.066 78.2327 161.151 71.9766 164.974C65.7206 168.798 63.7837 176.911 67.6506 183.096C71.5174 189.282 79.7236 191.197 85.9797 187.374Z" stroke="#263238" stroke-linecap="round" stroke-linejoin="round"/>
<path d="M98.6752 205.887C93.2707 210.117 86.4179 212.623 78.9884 212.623C71.5589 212.623 64.6927 210.104 59.2882 205.887C61.2596 196.937 69.3328 190.228 78.9884 190.228C88.644 190.228 96.6904 196.937 98.6752 205.887Z" stroke="#263238" stroke-linecap="round" stroke-linejoin="round"/>
<path d="M604.041 506.828C604.041 516.879 599.28 525.842 591.85 531.61C586.446 535.839 579.593 538.345 572.164 538.345C564.734 538.345 557.868 535.826 552.463 531.61C545.021 525.855 540.273 516.892 540.273 506.828C540.273 489.406 554.542 475.298 572.164 475.298C589.785 475.298 604.041 489.406 604.041 506.828Z" stroke="#263238" stroke-linecap="round" stroke-linejoin="round"/>
<path d="M574.313 514.836C581.572 513.668 586.498 506.902 585.316 499.725C584.134 492.548 577.291 487.677 570.032 488.846C562.773 490.015 557.846 496.781 559.029 503.958C560.211 511.135 567.054 516.005 574.313 514.836Z" stroke="#263238" stroke-linecap="round" stroke-linejoin="round"/>
<path d="M591.837 531.596C586.433 535.826 579.58 538.332 572.15 538.332C564.721 538.332 557.855 535.813 552.45 531.596C554.421 522.647 562.495 515.938 572.15 515.938C581.806 515.938 589.852 522.647 591.837 531.596Z" stroke="#263238" stroke-linecap="round" stroke-linejoin="round"/>
<path d="M37.2278 248.608L35.6052 247.64L37.6302 244.829L34.5994 243.689L35.2699 241.965L38.1666 243.49L37.8581 239.989H39.9368L39.6015 243.49L42.525 241.965L43.1687 243.689L40.1379 244.855L42.1898 247.64L40.5269 248.608L38.8774 245.439L37.2144 248.608H37.2278Z" fill="#263238"/>
<path d="M47.4467 248.608L45.824 247.64L47.849 244.829L44.8182 243.689L45.4888 241.965L48.3855 243.49L48.077 239.989H50.1557L49.8204 243.49L52.7439 241.965L53.3876 243.689L50.3568 244.855L52.4086 247.64L50.7457 248.608L49.0962 245.439L47.4333 248.608H47.4467Z" fill="#263238"/>
<path d="M57.6656 248.608L56.0429 247.64L58.0679 244.829L55.0371 243.689L55.7076 241.965L58.6043 243.49L58.2959 239.989H60.3745L60.0393 243.49L62.9628 241.965L63.6065 243.689L60.5757 244.855L62.6275 247.64L60.9646 248.608L59.3151 245.439L57.6522 248.608H57.6656Z" fill="#263238"/>
<path d="M67.8845 248.608L66.2618 247.64L68.2868 244.829L65.256 243.689L65.9265 241.965L68.8232 243.49L68.5148 239.989H70.5934L70.2581 243.49L73.1817 241.965L73.8254 243.689L70.7946 244.855L72.8464 247.64L71.1835 248.608L69.534 245.439L67.8711 248.608H67.8845Z" fill="#263238"/>
<path d="M78.1033 248.608L76.4806 247.64L78.5057 244.829L75.4749 243.689L76.1454 241.965L79.0421 243.49L78.7336 239.989H80.8123L80.477 243.49L83.4005 241.965L84.0442 243.689L81.0134 244.855L83.0653 247.64L81.4023 248.608L79.7528 245.439L78.0899 248.608H78.1033Z" fill="#263238"/>
<path d="M88.3223 248.608L86.6996 247.64L88.7246 244.829L85.6938 243.689L86.3644 241.965L89.2611 243.49L88.9526 239.989H91.0313L90.696 243.49L93.6195 241.965L94.2632 243.689L91.2324 244.855L93.2842 247.64L91.6213 248.608L89.9718 245.439L88.3089 248.608H88.3223Z" fill="#263238"/>
<path d="M98.5278 248.608L96.9051 247.64L98.9301 244.829L95.8993 243.689L96.5698 241.965L99.4665 243.49L99.1581 239.989H101.237L100.901 243.49L103.825 241.965L104.469 243.689L101.438 244.855L103.49 247.64L101.827 248.608L100.177 245.439L98.5144 248.608H98.5278Z" fill="#263238"/>
<path d="M108.747 248.608L107.124 247.64L109.149 244.829L106.118 243.689L106.789 241.965L109.685 243.49L109.377 239.989H111.456L111.12 243.49L114.044 241.965L114.688 243.689L111.657 244.855L113.709 247.64L112.046 248.608L110.396 245.439L108.733 248.608H108.747Z" fill="#263238"/>
<path d="M118.966 248.608L117.343 247.64L119.368 244.829L116.337 243.689L117.008 241.965L119.904 243.49L119.596 239.989H121.674L121.339 243.49L124.263 241.965L124.906 243.689L121.876 244.855L123.927 247.64L122.265 248.608L120.615 245.439L118.952 248.608H118.966Z" fill="#263238"/>
<path d="M210.211 32.5245L208.589 31.5566L210.614 28.7457L207.583 27.6054L208.253 25.8817L211.15 27.4065L210.842 23.9061H212.92L212.585 27.4065L215.508 25.8817L216.152 27.6054L213.121 28.7722L215.173 31.5566L213.51 32.5245L211.861 29.3556L210.198 32.5245H210.211Z" fill="#263238"/>
<path d="M220.43 32.5245L218.807 31.5566L220.832 28.7457L217.802 27.6054L218.472 25.8817L221.369 27.4065L221.06 23.9061H223.139L222.804 27.4065L225.727 25.8817L226.371 27.6054L223.34 28.7722L225.392 31.5566L223.729 32.5245L222.08 29.3556L220.417 32.5245H220.43Z" fill="#263238"/>
<path d="M230.649 32.5245L229.026 31.5566L231.051 28.7457L228.021 27.6054L228.691 25.8817L231.588 27.4065L231.279 23.9061H233.358L233.023 27.4065L235.946 25.8817L236.59 27.6054L233.559 28.7722L235.611 31.5566L233.948 32.5245L232.298 29.3556L230.636 32.5245H230.649Z" fill="#263238"/>
<path d="M240.855 32.5245L239.232 31.5566L241.257 28.7457L238.226 27.6054L238.897 25.8817L241.793 27.4065L241.485 23.9061H243.563L243.228 27.4065L246.152 25.8817L246.795 27.6054L243.765 28.7722L245.816 31.5566L244.154 32.5245L242.504 29.3556L240.841 32.5245H240.855Z" fill="#263238"/>
<path d="M251.073 32.5245L249.451 31.5566L251.476 28.7457L248.445 27.6054L249.115 25.8817L252.012 27.4065L251.704 23.9061H253.782L253.447 27.4065L256.371 25.8817L257.014 27.6054L253.984 28.7722L256.035 31.5566L254.372 32.5245L252.723 29.3556L251.06 32.5245H251.073Z" fill="#263238"/>
<path d="M261.292 32.5245L259.67 31.5566L261.695 28.7457L258.664 27.6054L259.334 25.8817L262.231 27.4065L261.923 23.9061H264.001L263.666 27.4065L266.589 25.8817L267.233 27.6054L264.202 28.7722L266.254 31.5566L264.591 32.5245L262.942 29.3556L261.279 32.5245H261.292Z" fill="#263238"/>
<path d="M271.511 32.5245L269.888 31.5566L271.913 28.7457L268.883 27.6054L269.553 25.8817L272.45 27.4065L272.141 23.9061H274.22L273.885 27.4065L276.808 25.8817L277.452 27.6054L274.421 28.7722L276.473 31.5566L274.81 32.5245L273.161 29.3556L271.498 32.5245H271.511Z" fill="#263238"/>
<path d="M281.73 32.5245L280.107 31.5566L282.132 28.7457L279.102 27.6054L279.772 25.8817L282.669 27.4065L282.36 23.9061H284.439L284.104 27.4065L287.027 25.8817L287.671 27.6054L284.64 28.7722L286.692 31.5566L285.029 32.5245L283.38 29.3556L281.717 32.5245H281.73Z" fill="#263238"/>
<path d="M291.949 32.5245L290.326 31.5566L292.351 28.7457L289.32 27.6054L289.991 25.8817L292.888 27.4065L292.579 23.9061H294.658L294.323 27.4065L297.246 25.8817L297.89 27.6054L294.859 28.7722L296.911 31.5566L295.248 32.5245L293.598 29.3556L291.935 32.5245H291.949Z" fill="#263238"/>
<path d="M522.719 165.076L521.096 164.108L523.121 161.297L520.09 160.156L520.761 158.433L523.658 159.958L523.349 156.457H525.428L525.092 159.958L528.016 158.433L528.66 160.156L525.629 161.323L527.681 164.108L526.018 165.076L524.368 161.907L522.705 165.076H522.719Z" fill="#263238"/>
<path d="M532.938 165.076L531.315 164.108L533.34 161.297L530.309 160.156L530.98 158.433L533.876 159.958L533.568 156.457H535.647L535.311 159.958L538.235 158.433L538.879 160.156L535.848 161.323L537.9 164.108L536.237 165.076L534.587 161.907L532.924 165.076H532.938Z" fill="#263238"/>
<path d="M543.143 165.076L541.52 164.108L543.545 161.297L540.515 160.156L541.185 158.433L544.082 159.958L543.773 156.457H545.852L545.517 159.958L548.44 158.433L549.084 160.156L546.053 161.323L548.105 164.108L546.442 165.076L544.793 161.907L543.13 165.076H543.143Z" fill="#263238"/>
<path d="M553.362 165.076L551.739 164.108L553.764 161.297L550.734 160.156L551.404 158.433L554.301 159.958L553.992 156.457H556.071L555.736 159.958L558.659 158.433L559.303 160.156L556.272 161.323L558.324 164.108L556.661 165.076L555.011 161.907L553.349 165.076H553.362Z" fill="#263238"/>
<path d="M563.581 165.076L561.958 164.108L563.983 161.297L560.952 160.156L561.623 158.433L564.52 159.958L564.211 156.457H566.29L565.955 159.958L568.878 158.433L569.522 160.156L566.491 161.323L568.543 164.108L566.88 165.076L565.23 161.907L563.567 165.076H563.581Z" fill="#263238"/>
<path d="M573.8 165.076L572.177 164.108L574.202 161.297L571.171 160.156L571.842 158.433L574.738 159.958L574.43 156.457H576.509L576.173 159.958L579.097 158.433L579.741 160.156L576.71 161.323L578.762 164.108L577.099 165.076L575.449 161.907L573.786 165.076H573.8Z" fill="#263238"/>
<path d="M584.019 165.076L582.396 164.108L584.421 161.297L581.39 160.156L582.061 158.433L584.957 159.958L584.649 156.457H586.728L586.392 159.958L589.316 158.433L589.96 160.156L586.929 161.323L588.981 164.108L587.318 165.076L585.668 161.907L584.005 165.076H584.019Z" fill="#263238"/>
<path d="M594.238 165.076L592.615 164.108L594.64 161.297L591.609 160.156L592.28 158.433L595.176 159.958L594.868 156.457H596.947L596.611 159.958L599.535 158.433L600.179 160.156L597.148 161.323L599.2 164.108L597.537 165.076L595.887 161.907L594.224 165.076H594.238Z" fill="#263238"/>
<path d="M604.457 165.076L602.834 164.108L604.859 161.297L601.828 160.156L602.499 158.433L605.395 159.958L605.087 156.457H607.165L606.83 159.958L609.754 158.433L610.397 160.156L607.367 161.323L609.418 164.108L607.756 165.076L606.106 161.907L604.443 165.076H604.457Z" fill="#263238"/>
<path d="M591.019 84.0228H538.503V134.818H591.019V84.0228Z" stroke="#263238" stroke-linecap="round" stroke-linejoin="round"/>
<path d="M548.132 84.0493V72.3548C548.132 63.2989 555.588 55.9268 564.748 55.9268C573.907 55.9268 581.363 63.2989 581.363 72.3548V84.0493H589.007V72.3548C589.007 59.1223 578.118 48.3691 564.748 48.3691C551.377 48.3691 540.488 59.1355 540.488 72.3548V84.0493H548.132Z" stroke="#263238" stroke-miterlimit="10"/>
<path d="M570.796 103.726C570.796 100.424 568.087 97.746 564.748 97.746C561.408 97.746 558.699 100.424 558.699 103.726C558.699 106.258 560.295 108.406 562.548 109.281V121.108H566.947V109.281C569.2 108.406 570.796 106.258 570.796 103.726Z" stroke="#263238" stroke-linecap="round" stroke-linejoin="round"/>
<path d="M104.066 502.996H51.5504V553.792H104.066V502.996Z" stroke="#263238" stroke-linecap="round" stroke-linejoin="round"/>
<path d="M61.1926 503.01V491.315C61.1926 482.259 68.6489 474.887 77.8084 474.887C86.9678 474.887 94.4241 482.259 94.4241 491.315V503.01H102.068V491.315C102.068 478.083 91.1788 467.33 77.8084 467.33C64.438 467.33 53.5486 478.096 53.5486 491.315V503.01H61.1926Z" stroke="#263238" stroke-miterlimit="10"/>
<path d="M83.8566 522.686C83.8566 519.385 81.1477 516.706 77.8084 516.706C74.4692 516.706 71.7603 519.385 71.7603 522.686C71.7603 525.219 73.3561 527.367 75.6091 528.242V540.069H80.0078V528.242C82.2608 527.367 83.8566 525.219 83.8566 522.686Z" stroke="#263238" stroke-linecap="round" stroke-linejoin="round"/>
<path d="M34.2373 437.59C38.9713 435.044 46.1594 425.444 46.1594 425.444C46.2398 425.338 38.3276 422.686 37.8046 422.567C31.7966 421.281 19.432 422.275 15.9855 428.162C13.5045 432.405 15.7039 437.51 20.0355 439.446C24.461 441.421 30.2007 439.764 34.2239 437.603L34.2373 437.59Z" fill="#919191"/>
<path d="M64.4112 455.529C68.1393 451.976 72.2832 441.673 72.6051 440.851C78.4118 443.185 84.5673 445.107 90.8971 446.712C94.518 447.64 98.1925 448.449 101.88 449.231C100.137 449.125 98.5814 449.045 98.3668 449.059C92.2382 449.377 80.571 453.567 78.8142 460.143C77.5402 464.877 81.0403 469.239 85.734 469.968C90.535 470.724 95.6311 467.621 98.9301 464.479C102.283 461.284 105.984 452.572 106.936 450.252C108.358 450.53 109.766 450.835 111.187 451.114C118.013 452.44 124.826 453.739 131.464 455.211C133.811 455.728 136.091 456.325 138.384 456.908C136.842 456.815 135.541 456.749 135.34 456.762C129.211 457.08 117.544 461.27 115.787 467.847C114.527 472.58 118.013 476.943 122.707 477.672C127.508 478.428 132.604 475.325 135.903 472.182C139.108 469.133 142.595 461.124 143.735 458.367C146.055 459.043 148.388 459.706 150.615 460.461C152.117 461.005 153.605 461.429 155.094 462.066C156.569 462.662 158.044 463.259 159.492 463.843C162.242 465.076 165.098 466.322 167.753 467.595C169.604 468.457 171.361 469.319 173.131 470.18C170.811 469.637 166.238 468.669 165.836 468.629C159.72 468.032 147.557 470.419 144.808 476.664C142.836 481.159 145.612 485.985 150.145 487.417C154.772 488.876 160.284 486.582 164.025 483.97C168.156 481.093 173.641 471.917 174.325 470.777C177.248 472.209 180.064 473.641 182.706 475.02C188.553 478.07 193.689 480.92 197.981 483.4L200.743 479.873C196.224 477.393 190.793 474.503 184.557 471.427C181.606 469.955 178.415 468.443 175.129 466.919C175.371 466.097 176.712 461.416 177.396 456.895C182.559 456.457 191.624 452.121 192.791 451.551C194.427 454.336 195.983 457.067 197.418 459.666C200.422 465.089 202.996 470.035 205.129 474.291L208.119 470.485C206.067 466.667 203.694 462.358 200.971 457.704C199.322 454.866 197.511 451.856 195.621 448.793C196.626 447.945 204.82 440.984 206.966 436.449C208.911 432.339 210.238 426.571 207.972 422.328C205.759 418.178 200.462 416.309 196.331 419.014C190.605 422.779 190.35 435.044 192.027 440.878C192.12 441.223 193.609 444.842 194.588 447.11C193.81 445.863 193.059 444.643 192.241 443.371C190.645 440.838 188.969 438.359 187.172 435.68C186.26 434.421 185.335 433.148 184.409 431.862C183.511 430.562 182.398 429.316 181.392 428.016C178.991 425.06 176.417 422.196 173.761 419.358C176.001 417.966 183.873 412.901 186.448 409.122C188.996 405.357 191.195 399.854 189.599 395.32C188.044 390.878 183.095 388.239 178.603 390.308C172.367 393.172 170.234 405.251 170.985 411.284C171.026 411.655 172.058 415.924 172.675 418.258C171.066 416.561 169.456 414.863 167.78 413.206C162.912 408.406 157.829 403.713 152.787 398.992C151.245 397.547 149.716 396.089 148.187 394.643C148.992 394.153 158.487 388.345 161.356 384.102C163.904 380.337 166.104 374.834 164.508 370.3C162.952 365.858 158.004 363.219 153.511 365.288C147.275 368.152 145.143 380.231 145.894 386.264C145.948 386.714 147.45 392.853 147.906 394.391C144.54 391.196 141.214 387.974 138.062 384.673C133.704 380.125 129.694 375.404 126.14 370.565C126.516 370.339 136.453 364.32 139.39 359.971C141.938 356.205 144.137 350.703 142.541 346.168C140.986 341.726 136.037 339.088 131.545 341.156C125.309 344.02 123.176 356.099 123.927 362.132C123.981 362.609 125.604 369.199 125.979 370.379C125.765 370.088 125.523 369.809 125.309 369.531C121.581 364.307 118.644 358.791 116.136 353.487C114.674 350.411 113.454 347.388 112.341 344.418C114.312 343.49 123.257 339.114 126.341 335.495C129.292 332.021 132.081 326.797 131.008 322.116C129.949 317.529 125.336 314.373 120.628 315.937C114.111 318.112 110.651 329.886 110.731 335.959C110.731 336.29 111.161 339.645 111.496 342.071C111.013 340.719 110.49 339.34 110.047 338.04C108.385 333.161 107.178 328.6 106.132 324.556C105.555 322.249 105.086 320.154 104.656 318.178C106.105 316.269 111.831 308.486 112.864 303.951C113.87 299.523 113.91 293.609 110.772 289.95C107.701 286.356 102.122 285.667 98.6887 289.194C93.9145 294.086 96.3284 306.112 99.2385 311.469C99.4933 311.933 104.254 318.722 104.321 318.616C104.321 318.616 104.388 318.523 104.415 318.496C104.777 320.393 105.193 322.434 105.702 324.649C106.655 328.732 107.781 333.333 109.337 338.266C110.879 343.198 112.703 348.502 115.13 353.938C117.557 359.374 120.387 364.983 124.062 370.379C124.102 370.446 124.155 370.499 124.196 370.565C122.627 369.319 118.121 365.964 117.745 365.752C112.448 362.676 100.392 359.812 95.2556 364.333C91.5542 367.595 92.037 373.124 95.5506 376.306C99.1312 379.555 105.112 379.74 109.618 378.918C114.701 377.99 123.914 371.652 124.638 371.148C128.179 376.253 132.242 381.212 136.627 386.012C139.135 388.756 141.737 391.435 144.392 394.1C142.997 393.066 141.75 392.151 141.562 392.031C136.265 388.955 124.209 386.091 119.073 390.613C115.371 393.874 115.854 399.417 119.368 402.586C122.948 405.834 128.93 406.02 133.436 405.211C138.009 404.376 145.975 399.125 148.053 397.706C149.086 398.714 150.092 399.735 151.124 400.743C156.073 405.569 161.035 410.369 165.742 415.221C167.405 416.932 168.974 418.669 170.556 420.419C169.322 419.504 168.263 418.735 168.102 418.642C162.805 415.566 150.749 412.702 145.612 417.224C141.911 420.485 142.394 426.028 145.907 429.197C149.488 432.445 155.469 432.631 159.975 431.809C164.347 431.013 171.736 426.24 174.217 424.556C175.786 426.386 177.355 428.215 178.79 430.058C179.742 431.345 180.748 432.511 181.62 433.837C182.518 435.137 183.417 436.436 184.302 437.722C185.911 440.255 187.588 442.853 189.103 445.359C190.162 447.096 191.141 448.767 192.134 450.451C190.498 448.727 187.226 445.426 186.917 445.187C183.752 442.641 177.624 439.751 172.165 439.181C171.696 438.796 171.2 438.465 170.677 438.173C166.506 435.919 161.048 437.245 159.117 441.766C156.435 448.024 163.073 458.393 167.727 462.358C167.995 462.596 171.267 464.797 173.346 466.163C171.991 465.553 170.69 464.93 169.309 464.32C166.56 463.087 163.784 461.933 160.793 460.674C159.331 460.117 157.856 459.56 156.354 458.99C154.893 458.393 153.256 457.955 151.701 457.425C148.053 456.272 144.298 455.277 140.503 454.362C141.589 451.976 145.344 443.463 145.371 438.902C145.398 434.368 144.151 428.587 140.302 425.67C136.52 422.819 130.928 423.31 128.326 427.486C124.719 433.28 129.694 444.511 133.677 449.138C133.932 449.43 137.164 452.413 138.974 454.031C136.681 453.5 134.401 452.957 132.068 452.493C125.336 451.154 118.469 450 111.63 448.82C109.538 448.462 107.446 448.077 105.367 447.706C105.769 446.858 110.436 436.834 110.463 431.729C110.49 427.194 109.243 421.413 105.394 418.496C101.612 415.646 96.02 416.136 93.4183 420.313C89.8109 426.107 94.7728 437.338 98.7692 441.952C99.0642 442.297 103.744 446.606 104.978 447.64C100.378 446.805 95.8054 445.943 91.3397 444.895C85.1708 443.477 79.1897 441.74 73.5304 439.631C73.7181 439.234 78.6398 428.786 78.6801 423.561C78.7069 419.027 77.4597 413.246 73.6109 410.329C69.8291 407.478 64.2368 407.969 61.6352 412.145C58.0277 417.94 63.0031 429.17 66.986 433.784C67.2945 434.142 72.3234 438.77 73.3024 439.539C72.9671 439.419 72.6051 439.326 72.2698 439.194C66.2484 436.874 60.7098 433.877 55.6675 430.814C52.7305 429.037 50.035 427.194 47.4468 425.325C48.5598 423.469 53.5888 414.943 54.1386 410.249C54.6617 405.741 54.0716 399.854 50.5714 396.539C47.1383 393.291 41.5193 393.185 38.4751 397.043C34.2507 402.413 37.9386 414.121 41.3852 419.133C41.5729 419.411 43.7991 421.97 45.4352 423.813C44.2818 422.952 43.0749 422.09 41.9752 421.241C37.8716 418.085 34.3178 414.943 31.1797 412.132C29.4095 410.514 27.8404 409.03 26.3921 407.611C26.5262 405.224 26.9688 395.611 25.3058 391.262C23.6697 387.019 20.411 382.074 15.7441 380.721C11.1845 379.409 6.14207 381.862 5.24356 386.688C3.99638 393.371 12.7267 402.082 18.1312 404.972C18.6005 405.224 26.3519 408.287 26.3653 408.168C26.3653 408.168 26.3653 408.048 26.3653 408.022C27.7332 409.414 29.2217 410.873 30.8712 412.45C33.9423 415.328 37.4424 418.563 41.4924 421.825C45.529 425.1 50.0082 428.534 55.064 431.729C60.1198 434.938 65.6047 438.067 71.6797 440.573C71.7468 440.599 71.8272 440.626 71.8943 440.652C69.8827 440.467 64.2637 440.135 63.8211 440.162C57.6925 440.48 46.0252 444.67 44.2684 451.246C43.0078 455.98 46.4946 460.342 51.1883 461.071C55.9893 461.827 61.0853 458.725 64.3843 455.582L64.4112 455.529Z" fill="#919191"/>
<path d="M111.201 343.821C111.321 343.781 106.212 337.245 105.837 336.86C101.545 332.511 90.6825 326.598 84.5136 329.621C80.0747 331.795 79.0689 337.271 81.6035 341.249C84.1918 345.306 89.9047 347.056 94.4777 347.454C99.842 347.905 111.187 343.821 111.201 343.821Z" fill="#919191"/>
<path d="M598.422 437.59C593.688 435.044 586.5 425.444 586.5 425.444C586.419 425.338 594.331 422.686 594.854 422.567C600.862 421.281 613.227 422.275 616.674 428.162C619.154 432.405 616.955 437.51 612.624 439.446C608.198 441.421 602.458 439.764 598.435 437.603L598.422 437.59Z" fill="#919191"/>
<path d="M568.234 455.529C564.506 451.976 560.362 441.673 560.04 440.851C554.234 443.185 548.078 445.107 541.748 446.712C538.128 447.64 534.453 448.449 530.765 449.231C532.508 449.125 534.064 449.045 534.279 449.059C540.407 449.377 552.075 453.567 553.831 460.143C555.105 464.877 551.605 469.239 546.912 469.968C542.111 470.724 537.014 467.621 533.715 464.479C530.363 461.284 526.661 452.572 525.709 450.252C524.288 450.53 522.88 450.835 521.458 451.114C514.632 452.44 507.82 453.739 501.181 455.211C498.834 455.728 496.555 456.325 494.261 456.908C495.804 456.815 497.104 456.749 497.306 456.762C503.434 457.08 515.102 461.27 516.858 467.847C518.119 472.58 514.632 476.943 509.938 477.672C505.137 478.428 500.041 475.325 496.742 472.182C493.537 469.133 490.051 461.124 488.911 458.367C486.591 459.043 484.257 459.706 482.031 460.461C480.529 461.005 479.04 461.429 477.552 462.066C476.077 462.662 474.601 463.259 473.153 463.843C470.404 465.076 467.548 466.322 464.892 467.595C463.042 468.457 461.285 469.319 459.528 470.18C461.848 469.637 466.421 468.669 466.823 468.629C472.939 468.032 485.102 470.419 487.851 476.664C489.823 481.159 487.047 485.985 482.514 487.417C477.887 488.876 472.375 486.582 468.634 483.97C464.503 481.093 459.018 471.917 458.334 470.777C455.411 472.209 452.595 473.641 449.953 475.02C444.106 478.07 438.97 480.92 434.678 483.4L431.916 479.873C436.435 477.393 441.866 474.503 448.102 471.427C451.052 469.955 454.244 468.443 457.53 466.919C457.288 466.097 455.947 461.416 455.263 456.895C450.1 456.457 441.035 452.121 439.868 451.551C438.232 454.336 436.676 457.067 435.241 459.666C432.237 465.089 429.663 470.035 427.53 474.291L424.54 470.485C426.592 466.667 428.965 462.358 431.688 457.704C433.337 454.866 435.147 451.856 437.038 448.793C436.033 447.945 427.839 440.984 425.693 436.449C423.748 432.339 422.421 426.571 424.687 422.328C426.9 418.178 432.197 416.309 436.328 419.014C442.054 422.779 442.309 435.044 440.632 440.878C440.539 441.223 439.05 444.842 438.071 447.11C438.849 445.863 439.6 444.643 440.418 443.371C442.014 440.838 443.69 438.359 445.487 435.68C446.399 434.421 447.324 433.148 448.25 431.862C449.148 430.562 450.261 429.316 451.267 428.016C453.668 425.06 456.242 422.196 458.898 419.358C456.658 417.966 448.786 412.901 446.211 409.122C443.663 405.357 441.464 399.854 443.06 395.32C444.615 390.878 449.564 388.239 454.056 390.308C460.292 393.172 462.425 405.251 461.674 411.284C461.633 411.655 460.601 415.924 459.984 418.258C461.593 416.561 463.202 414.863 464.879 413.206C469.747 408.406 474.829 403.713 479.872 398.992C481.414 397.547 482.943 396.089 484.472 394.643C483.667 394.153 474.172 388.345 471.302 384.102C468.754 380.337 466.555 374.834 468.151 370.3C469.707 365.858 474.655 363.219 479.148 365.288C485.384 368.152 487.516 380.231 486.765 386.264C486.711 386.714 485.209 392.853 484.753 394.391C488.119 391.196 491.445 387.974 494.597 384.673C498.955 380.125 502.965 375.404 506.519 370.565C506.143 370.339 496.206 364.32 493.269 359.971C490.721 356.205 488.522 350.703 490.118 346.168C491.673 341.726 496.622 339.088 501.114 341.156C507.35 344.02 509.482 356.099 508.731 362.132C508.678 362.609 507.055 369.199 506.68 370.379C506.894 370.088 507.136 369.809 507.35 369.531C511.078 364.307 514.015 358.791 516.523 353.487C517.985 350.411 519.205 347.388 520.318 344.418C518.347 343.49 509.402 339.114 506.318 335.495C503.367 332.021 500.578 326.797 501.651 322.116C502.71 317.529 507.323 314.373 512.03 315.937C518.548 318.112 522.008 329.886 521.928 335.959C521.928 336.29 521.498 339.645 521.163 342.071C521.646 340.719 522.169 339.34 522.611 338.04C524.274 333.161 525.481 328.6 526.527 324.556C527.104 322.249 527.573 320.154 528.003 318.178C526.554 316.269 520.828 308.486 519.795 303.951C518.789 299.523 518.749 293.609 521.887 289.95C524.958 286.356 530.537 285.667 533.97 289.194C538.744 294.086 536.331 306.112 533.42 311.469C533.166 311.933 528.405 318.722 528.338 318.616C528.338 318.616 528.271 318.523 528.244 318.496C527.882 320.393 527.466 322.434 526.957 324.649C526.004 328.732 524.878 333.333 523.322 338.266C521.78 343.198 519.956 348.502 517.529 353.938C515.102 359.374 512.272 364.983 508.597 370.379C508.557 370.446 508.504 370.499 508.463 370.565C510.032 369.319 514.538 365.964 514.914 365.752C520.211 362.676 532.267 359.812 537.403 364.333C541.105 367.595 540.622 373.124 537.108 376.306C533.528 379.555 527.547 379.74 523.041 378.918C517.958 377.99 508.745 371.652 508.021 371.148C504.48 376.253 500.417 381.212 496.032 386.012C493.524 388.756 490.922 391.435 488.267 394.1C489.662 393.066 490.909 392.151 491.097 392.031C496.394 388.955 508.45 386.091 513.586 390.613C517.287 393.874 516.805 399.417 513.291 402.586C509.71 405.834 503.729 406.02 499.223 405.211C494.65 404.376 486.684 399.125 484.606 397.706C483.573 398.714 482.567 399.735 481.535 400.743C476.586 405.569 471.624 410.369 466.917 415.221C465.254 416.932 463.685 418.669 462.103 420.419C463.337 419.504 464.396 418.735 464.557 418.642C469.854 415.566 481.91 412.702 487.047 417.224C490.748 420.485 490.265 426.028 486.751 429.197C483.171 432.445 477.19 432.631 472.684 431.809C468.312 431.013 460.923 426.24 458.442 424.556C456.873 426.386 455.304 428.215 453.869 430.058C452.917 431.345 451.911 432.511 451.039 433.837C450.141 435.137 449.242 436.436 448.357 437.722C446.748 440.255 445.071 442.853 443.556 445.359C442.496 447.096 441.518 448.767 440.525 450.451C442.161 448.727 445.433 445.426 445.742 445.187C448.907 442.641 455.035 439.751 460.494 439.181C460.963 438.796 461.459 438.465 461.982 438.173C466.153 435.919 471.611 437.245 473.542 441.766C476.224 448.024 469.586 458.393 464.932 462.358C464.664 462.596 461.392 464.797 459.313 466.163C460.668 465.553 461.955 464.93 463.35 464.32C466.099 463.087 468.875 461.933 471.866 460.674C473.327 460.117 474.803 459.56 476.305 458.99C477.766 458.393 479.403 457.955 480.958 457.425C484.606 456.272 488.361 455.277 492.156 454.362C491.07 451.976 487.315 443.463 487.288 438.902C487.261 434.368 488.508 428.587 492.357 425.67C496.139 422.819 501.731 423.31 504.333 427.486C507.94 433.28 502.965 444.511 498.982 449.138C498.727 449.43 495.495 452.413 493.685 454.031C495.978 453.5 498.258 452.957 500.591 452.493C507.323 451.154 514.19 450 521.029 448.82C523.121 448.462 525.213 448.077 527.292 447.706C526.889 446.858 522.223 436.834 522.196 431.729C522.169 427.194 523.416 421.413 527.265 418.496C531.047 415.646 536.639 416.136 539.241 420.313C542.848 426.107 537.886 437.338 533.89 441.952C533.595 442.297 528.914 446.606 527.681 447.64C532.281 446.805 536.854 445.943 541.319 444.895C547.488 443.477 553.469 441.74 559.129 439.631C558.941 439.234 554.019 428.786 553.979 423.561C553.952 419.027 555.199 413.246 559.048 410.329C562.83 407.478 568.422 407.969 571.024 412.145C574.631 417.94 569.656 429.17 565.673 433.784C565.364 434.142 560.336 438.77 559.357 439.539C559.692 439.419 560.054 439.326 560.389 439.194C566.411 436.874 571.936 433.877 576.992 430.814C579.928 429.037 582.624 427.194 585.212 425.325C584.099 423.469 579.07 414.943 578.52 410.249C577.997 405.741 578.587 399.854 582.088 396.539C585.521 393.291 591.14 393.185 594.184 397.043C598.408 402.413 594.72 414.121 591.274 419.133C591.086 419.411 588.86 421.97 587.224 423.813C588.377 422.952 589.584 422.09 590.684 421.241C594.787 418.085 598.355 414.943 601.479 412.132C603.249 410.514 604.818 409.03 606.267 407.611C606.133 405.224 605.69 395.611 607.353 391.262C608.989 387.019 612.248 382.074 616.915 380.721C621.474 379.409 626.517 381.862 627.415 386.688C628.663 393.371 619.932 402.082 614.528 404.972C614.058 405.224 606.307 408.287 606.294 408.168C606.294 408.168 606.294 408.048 606.294 408.022C604.926 409.414 603.437 410.873 601.788 412.45C598.717 415.328 595.217 418.563 591.167 421.825C587.13 425.1 582.651 428.534 577.595 431.729C572.539 434.938 567.054 438.067 560.979 440.573C560.912 440.599 560.832 440.626 560.765 440.652C562.776 440.467 568.395 440.135 568.838 440.162C574.967 440.48 586.634 444.67 588.391 451.246C589.651 455.98 586.164 460.342 581.471 461.071C576.67 461.827 571.587 458.725 568.275 455.582L568.234 455.529Z" fill="#919191"/>
<path d="M521.458 343.821C521.337 343.781 526.447 337.245 526.822 336.86C531.114 332.511 541.976 326.598 548.145 329.621C552.584 331.795 553.59 337.271 551.055 341.249C548.467 345.306 542.754 347.056 538.181 347.454C532.817 347.905 521.472 343.821 521.458 343.821Z" fill="#919191"/>
<path d="M382.605 53.7126C378.313 56.9346 366.512 59.467 366.499 59.467C366.378 59.4936 367.169 51.2729 367.276 50.7558C368.55 44.8158 374.545 34.0759 381.384 33.3864C386.319 32.8826 390.115 36.9796 390.128 41.6734C390.128 46.4731 386.252 50.968 382.591 53.7126H382.605Z" fill="#919191"/>
<path d="M386.762 88.2923C381.961 90.2016 370.75 89.6978 369.865 89.6447C369.623 95.8367 368.872 102.175 367.759 108.539C367.129 112.185 366.364 115.831 365.56 119.478C366.177 117.86 366.74 116.428 366.847 116.242C369.663 110.846 378.313 102.055 385.099 103.169C389.994 103.978 392.569 108.91 391.322 113.445C390.048 118.072 385.099 121.4 380.835 123.084C376.516 124.795 366.955 124.556 364.42 124.463C364.098 125.855 363.79 127.261 363.468 128.653C361.899 135.349 360.289 142.018 358.922 148.621C358.439 150.941 358.05 153.249 357.648 155.556C358.197 154.124 358.667 152.917 358.761 152.745C361.577 147.348 370.227 138.557 377.012 139.671C381.907 140.48 384.482 145.412 383.235 149.947C381.961 154.574 377.012 157.902 372.748 159.586C368.631 161.217 359.793 161.085 356.789 160.979C356.454 163.352 356.119 165.725 355.891 168.046C355.783 169.624 355.555 171.148 355.542 172.739C355.488 174.317 355.435 175.882 355.381 177.433C355.381 180.416 355.381 183.506 355.448 186.423C355.488 188.451 355.569 190.387 355.636 192.323C356.092 190.003 357.071 185.481 357.205 185.11C359.163 179.356 366.364 169.372 373.244 169.451C378.193 169.517 381.505 174.012 380.969 178.679C380.419 183.453 376.033 187.47 372.091 189.777C367.746 192.323 357.031 193.503 355.69 193.636C355.81 196.858 355.971 199.987 356.159 202.944C356.575 209.467 357.098 215.261 357.621 220.167L353.235 221.215C352.806 216.123 352.377 210.037 352.096 203.156C351.948 199.881 351.868 196.394 351.814 192.8C350.956 192.681 346.088 191.965 341.635 190.732C339.114 195.214 331.39 201.591 330.384 202.413C332.288 205.025 334.166 207.558 335.976 209.918C339.744 214.85 343.245 219.199 346.289 222.872L341.555 223.999C338.873 220.578 335.882 216.667 332.69 212.304C330.746 209.653 328.721 206.789 326.682 203.819C325.489 204.376 315.699 208.897 310.643 208.976C306.057 209.043 300.197 207.863 297.206 204.084C294.282 200.371 294.738 194.842 298.936 192.23C304.756 188.611 316.169 193.424 320.876 197.322C321.157 197.547 323.88 200.385 325.569 202.201C324.738 200.981 323.92 199.814 323.075 198.555C321.399 196.075 319.803 193.543 318.073 190.825C317.282 189.486 316.49 188.133 315.686 186.768C314.854 185.428 314.157 183.917 313.379 182.472C311.649 179.104 310.053 175.603 308.524 172.037C306.325 173.482 298.413 178.507 293.88 179.263C289.361 180.019 283.38 179.727 279.853 176.439C276.393 173.217 275.99 167.661 279.745 164.466C284.949 160.024 296.965 163.06 302.208 166.216C302.53 166.415 306.044 169.093 307.948 170.605C307.049 168.457 306.137 166.322 305.306 164.108C302.879 157.757 300.626 151.233 298.359 144.749C297.662 142.761 296.951 140.785 296.24 138.809C295.463 139.326 286.196 145.505 281.113 146.354C276.594 147.11 270.613 146.818 267.086 143.53C263.626 140.308 263.223 134.752 266.978 131.557C272.182 127.102 284.198 130.151 289.441 133.307C289.83 133.546 294.886 137.404 296.12 138.451C294.551 134.102 292.955 129.78 291.198 125.577C288.784 119.783 286.089 114.227 283.085 109.043C282.722 109.281 273.08 115.778 267.877 116.64C263.358 117.396 257.376 117.104 253.849 113.816C250.389 110.594 249.987 105.052 253.742 101.843C258.945 97.388 270.961 100.438 276.205 103.593C276.621 103.845 282.039 108.009 282.964 108.831C282.79 108.526 282.629 108.181 282.454 107.876C279.169 102.373 275.293 97.4543 271.431 93.0258C269.191 90.4535 266.911 88.1067 264.632 85.8791C262.955 87.2713 255.258 93.5429 250.658 94.829C246.246 96.0621 240.278 96.4334 236.402 93.5429C232.607 90.7054 231.588 85.2427 234.967 81.6495C239.648 76.6641 251.932 78.3878 257.497 80.9468C257.806 81.0926 260.716 82.8428 262.821 84.1555C261.775 83.161 260.716 82.1268 259.71 81.1987C255.901 77.6983 252.187 74.7282 248.874 72.1295C246.983 70.671 245.24 69.3716 243.604 68.1915C241.243 68.7086 231.722 70.6842 227.109 69.7561C222.616 68.8412 217.145 66.4546 215.053 62.1189C213.001 57.8759 214.65 52.5591 219.317 50.9149C225.794 48.6211 235.893 55.7412 239.634 60.5543C239.956 60.9653 244.261 68.0457 244.14 68.0722C244.14 68.0722 244.019 68.0987 243.993 68.0987C245.602 69.2125 247.305 70.419 249.142 71.7847C252.508 74.3172 256.304 77.221 260.206 80.6551C264.122 84.0759 268.266 87.8945 272.276 92.3098C276.299 96.7251 280.295 101.578 283.769 107.107C283.809 107.173 283.836 107.24 283.876 107.306C283.366 105.383 282.132 99.9338 282.092 99.5095C281.435 93.4766 283.742 81.4241 290.018 78.6529C294.537 76.6641 299.446 79.3689 300.934 83.8372C302.449 88.3984 300.183 93.8611 297.568 97.6002C294.631 101.803 285.002 107.505 284.238 107.956C287.497 113.246 290.407 118.947 293.022 124.861C294.524 128.242 295.932 131.703 297.3 135.176C296.911 133.492 296.589 131.994 296.562 131.769C295.905 125.736 298.212 113.683 304.488 110.912C309.007 108.91 313.916 111.628 315.404 116.097C316.92 120.658 314.653 126.12 312.038 129.86C309.396 133.652 301.283 138.664 299.124 139.963C299.633 141.302 300.156 142.641 300.666 143.98C303.093 150.424 305.48 156.868 308.015 163.113C308.913 165.314 309.866 167.449 310.818 169.584C310.482 168.085 310.201 166.826 310.187 166.64C309.53 160.607 311.837 148.555 318.113 145.784C322.646 143.782 327.541 146.5 329.043 150.968C330.558 155.529 328.292 160.992 325.677 164.731C323.155 168.337 315.713 173.044 313.138 174.596C314.184 176.757 315.23 178.931 316.329 180.973C317.121 182.352 317.778 183.744 318.65 185.084C319.481 186.436 320.312 187.762 321.13 189.088C322.807 191.581 324.51 194.153 326.2 196.539C327.366 198.21 328.506 199.775 329.646 201.366C328.734 199.191 327.031 194.882 326.924 194.498C325.878 190.599 325.73 183.89 327.433 178.732C327.273 178.162 327.165 177.579 327.125 176.982C326.763 172.302 330.223 167.926 335.185 168.032C342.064 168.192 348.89 178.428 350.647 184.248C350.755 184.593 351.452 188.438 351.841 190.878C351.841 189.406 351.801 187.987 351.801 186.476C351.801 183.493 351.868 180.509 351.935 177.301C352.029 175.749 352.109 174.185 352.203 172.607C352.257 171.042 352.525 169.385 352.672 167.767C353.101 164.002 353.732 160.223 354.442 156.417C351.801 156.417 342.4 156.298 338.189 154.455C333.991 152.612 329.177 149.125 328.064 144.445C326.978 139.87 329.74 135.017 334.648 134.394C341.474 133.519 349.789 142.615 352.417 148.104C352.578 148.449 354.013 152.599 354.751 154.893C355.193 152.612 355.636 150.332 356.159 148.038C357.688 141.408 359.431 134.752 361.161 128.109C361.684 126.067 362.194 124.039 362.703 121.997C361.765 121.997 350.594 122.103 345.873 120.035C341.676 118.192 336.861 114.704 335.748 110.024C334.662 105.45 337.424 100.61 342.333 99.9735C349.159 99.0984 357.473 108.194 360.102 113.683C360.303 114.094 362.341 120.074 362.797 121.612C363.924 117.131 364.997 112.649 365.868 108.194C367.089 102.042 367.947 95.9428 368.322 89.9762C367.88 89.9762 356.226 90.1353 351.398 88.0138C347.201 86.1708 342.386 82.6837 341.273 78.0032C340.187 73.4289 342.95 68.5893 347.858 67.9529C354.684 67.0778 362.998 76.1735 365.627 81.6628C365.828 82.1003 368.027 88.5177 368.349 89.711C368.376 89.353 368.43 88.995 368.457 88.637C368.778 82.2594 368.296 76.0409 367.545 70.2334C367.115 66.8656 366.512 63.6569 365.855 60.5675C363.682 60.8195 353.759 61.8404 349.199 60.4084C344.827 59.0295 339.637 56.086 338.028 51.5646C336.445 47.1361 338.645 42.0181 343.459 40.8645C350.138 39.2602 359.431 47.388 362.636 52.5591C362.811 52.8375 364.272 55.9003 365.292 58.1411C364.97 56.7489 364.675 55.3037 364.339 53.9645C363.106 48.9659 361.671 44.471 360.37 40.4933C359.606 38.2393 358.881 36.2106 358.171 34.3278C355.918 33.4792 346.865 29.9258 343.54 26.6376C340.294 23.4289 337.076 18.4434 337.746 13.6967C338.403 9.04275 342.748 5.50257 347.563 6.66937C354.241 8.28698 358.694 19.7296 359.136 25.789C359.176 26.3061 358.814 34.5665 358.694 34.5267C358.694 34.5267 358.586 34.4869 358.559 34.4737C359.27 36.2769 360.021 38.2127 360.799 40.3474C362.194 44.2986 363.736 48.7802 365.077 53.7789C366.432 58.7643 367.759 64.2138 368.644 70.0876C369.529 75.9613 370.16 82.1931 369.972 88.7033C369.972 88.7829 369.958 88.8492 369.958 88.9287C370.616 87.0459 372.614 81.8351 372.815 81.4506C375.631 76.0542 384.281 67.2634 391.067 68.3771C395.962 69.186 398.537 74.1183 397.289 78.6529C396.015 83.2804 391.067 86.6084 386.802 88.2923H386.762Z" fill="#919191"/>
<path d="M264.524 84.6063C264.43 84.6991 260.501 77.4066 260.313 76.916C258.06 71.2676 257.068 59.0428 262.392 54.7203C266.227 51.6177 271.686 52.9436 274.314 56.8683C276.996 60.8725 276.272 66.733 274.743 71.0157C272.96 76.0409 264.538 84.593 264.524 84.6063Z" fill="#919191"/>
<path d="M482.246 132.962V115.818H470.793L153.069 429.952V458.419L482.246 132.962Z" fill="white"/>
<path d="M153.069 204.999V316.6L356.146 115.818H243.268L153.069 204.999Z" fill="white"/>
<path d="M433.243 546.645L482.246 498.197V386.595L320.366 546.645H433.243Z" fill="white"/>
<path d="M492.196 84.8846H143.118C135.556 84.8846 129.426 90.9456 129.426 98.4222V564.055C129.426 571.531 135.556 577.592 143.118 577.592H492.196C499.758 577.592 505.888 571.531 505.888 564.055V98.4222C505.888 90.9456 499.758 84.8846 492.196 84.8846Z" fill="#263238"/>
<path d="M482.246 115.818H153.069V546.645H482.246V115.818Z" fill="#92E3A9"/>
<path opacity="0.2" d="M129.426 160.408V298.263L345.256 84.8846H205.826L129.426 160.408Z" fill="white"/>
<path opacity="0.2" d="M505.888 101.233V96.9106C505.888 90.2678 500.444 84.8846 493.725 84.8846H486.859L129.426 438.266V473.429L505.888 101.233Z" fill="white"/>
<path opacity="0.2" d="M505.889 552.36V414.505L340.951 577.579H480.368L505.889 552.36Z" fill="white"/>
<path d="M394.835 285.269H240.466V311.151H394.835V285.269Z" fill="white" stroke="#263238" stroke-linecap="round" stroke-linejoin="round"/>
<path d="M394.835 333.466H240.466V359.348H394.835V333.466Z" fill="white" stroke="#263238" stroke-linecap="round" stroke-linejoin="round"/>
<path d="M353.182 381.968H282.146C278.561 381.968 275.655 384.841 275.655 388.385V401.432C275.655 404.976 278.561 407.849 282.146 407.849H353.182C356.766 407.849 359.673 404.976 359.673 401.432V388.385C359.673 384.841 356.766 381.968 353.182 381.968Z" fill="#263238" stroke="#263238" stroke-linecap="round" stroke-linejoin="round"/>
<path d="M344.17 203.673C344.17 212.039 340.214 219.504 334.018 224.304C329.512 227.831 323.813 229.912 317.63 229.912C311.448 229.912 305.735 227.818 301.229 224.304C295.033 219.517 291.077 212.053 291.077 203.673C291.077 189.167 302.959 177.42 317.63 177.42C332.301 177.42 344.17 189.167 344.17 203.673Z" fill="white" stroke="#263238" stroke-linecap="round" stroke-linejoin="round"/>
<path d="M325.47 207.323C329.801 203.041 329.801 196.098 325.47 191.816C321.138 187.534 314.116 187.534 309.785 191.816C305.454 196.098 305.454 203.041 309.785 207.323C314.116 211.606 321.138 211.606 325.47 207.323Z" fill="#263238" stroke="#263238" stroke-linecap="round" stroke-linejoin="round"/>
<path d="M334.018 224.304C329.512 227.831 323.813 229.913 317.63 229.913C311.448 229.913 305.735 227.818 301.229 224.304C302.879 216.852 309.597 211.27 317.63 211.27C325.663 211.27 332.369 216.852 334.018 224.304Z" fill="#263238" stroke="#263238" stroke-linecap="round" stroke-linejoin="round"/>
<path d="M301.712 260.17V248.727H303.831V258.738H306.633V260.183H301.712V260.17Z" fill="#263238"/>
<path d="M310.737 260.316C309.919 260.316 309.262 260.17 308.779 259.865C308.296 259.56 307.948 259.136 307.733 258.566C307.519 257.995 307.425 257.332 307.425 256.563V252.281C307.425 251.512 307.532 250.849 307.733 250.292C307.948 249.735 308.296 249.324 308.779 249.032C309.262 248.741 309.919 248.595 310.737 248.595C311.555 248.595 312.239 248.741 312.722 249.032C313.205 249.324 313.553 249.748 313.768 250.292C313.982 250.849 314.09 251.498 314.09 252.281V256.577C314.09 257.346 313.982 257.995 313.768 258.566C313.553 259.122 313.205 259.56 312.722 259.865C312.239 260.17 311.582 260.329 310.737 260.329V260.316ZM310.737 258.778C311.086 258.778 311.354 258.698 311.515 258.552C311.676 258.406 311.797 258.194 311.85 257.929C311.904 257.664 311.931 257.372 311.931 257.067V251.79C311.931 251.472 311.904 251.18 311.85 250.928C311.797 250.676 311.676 250.478 311.515 250.332C311.354 250.186 311.086 250.106 310.737 250.106C310.402 250.106 310.147 250.186 309.973 250.332C309.798 250.478 309.691 250.676 309.624 250.928C309.57 251.18 309.544 251.472 309.544 251.79V257.067C309.544 257.372 309.57 257.664 309.624 257.929C309.678 258.194 309.785 258.406 309.959 258.552C310.134 258.698 310.388 258.778 310.737 258.778Z" fill="#263238"/>
<path d="M318.542 260.316C317.778 260.316 317.174 260.156 316.732 259.838C316.289 259.52 315.967 259.069 315.766 258.473C315.565 257.889 315.471 257.186 315.471 256.391V252.546C315.471 251.724 315.565 251.021 315.753 250.424C315.94 249.828 316.276 249.377 316.758 249.059C317.241 248.74 317.898 248.581 318.757 248.581C319.548 248.581 320.178 248.714 320.648 248.979C321.117 249.244 321.452 249.629 321.653 250.119C321.855 250.61 321.962 251.22 321.962 251.923V252.519H319.95V251.87C319.95 251.498 319.923 251.18 319.87 250.928C319.816 250.663 319.709 250.464 319.561 250.332C319.4 250.199 319.146 250.133 318.797 250.133C318.421 250.133 318.153 250.225 317.992 250.398C317.831 250.583 317.724 250.809 317.684 251.101C317.644 251.392 317.617 251.71 317.617 252.055V256.842C317.617 257.239 317.644 257.584 317.711 257.876C317.778 258.168 317.898 258.393 318.086 258.552C318.26 258.711 318.529 258.791 318.864 258.791C319.199 258.791 319.467 258.711 319.655 258.539C319.83 258.367 319.964 258.128 320.031 257.836C320.098 257.531 320.138 257.173 320.138 256.762V255.688H318.891V254.376H322.042V260.183H320.688L320.527 259.056C320.379 259.427 320.138 259.745 319.83 259.984C319.521 260.223 319.092 260.342 318.569 260.342L318.542 260.316Z" fill="#263238"/>
<path d="M323.692 260.17V248.727H325.784V260.17H323.692Z" fill="#263238"/>
<path d="M327.554 260.17V248.727H329.029L331.845 255.264V248.727H333.589V260.17H332.194L329.365 253.328V260.17H327.567H327.554Z" fill="#263238"/>
<path d="M292.754 304.8C291.909 304.8 291.265 304.641 290.822 304.309C290.38 303.978 290.071 303.514 289.91 302.917C289.75 302.32 289.669 301.618 289.669 300.822V293.238H291.211V300.902C291.211 301.392 291.252 301.843 291.305 302.241C291.372 302.652 291.52 302.97 291.748 303.209C291.976 303.447 292.311 303.567 292.754 303.567C293.196 303.567 293.545 303.447 293.773 303.209C293.987 302.97 294.135 302.652 294.202 302.241C294.269 301.83 294.296 301.392 294.296 300.902V293.238H295.825V300.822C295.825 301.618 295.744 302.32 295.583 302.917C295.422 303.514 295.114 303.978 294.671 304.309C294.229 304.641 293.585 304.8 292.754 304.8Z" fill="#CCCCCC"/>
<path d="M300.25 304.8C299.58 304.8 299.03 304.654 298.587 304.376C298.145 304.097 297.809 303.699 297.581 303.209C297.353 302.705 297.219 302.135 297.179 301.472L298.614 301.087C298.641 301.498 298.708 301.883 298.802 302.254C298.896 302.625 299.07 302.944 299.298 303.182C299.526 303.421 299.848 303.54 300.25 303.54C300.652 303.54 300.988 303.421 301.202 303.195C301.417 302.97 301.524 302.639 301.524 302.201C301.524 301.684 301.403 301.26 301.162 300.955C300.921 300.636 300.626 300.318 300.264 300L298.319 298.303C297.943 297.971 297.662 297.613 297.474 297.216C297.286 296.818 297.206 296.341 297.206 295.77C297.206 294.935 297.447 294.285 297.93 293.821C298.413 293.357 299.083 293.132 299.915 293.132C300.371 293.132 300.773 293.185 301.122 293.304C301.47 293.424 301.766 293.609 301.993 293.848C302.221 294.086 302.409 294.405 302.557 294.776C302.691 295.147 302.785 295.585 302.838 296.089L301.47 296.46C301.444 296.089 301.39 295.731 301.296 295.426C301.216 295.107 301.055 294.856 300.84 294.657C300.626 294.458 300.317 294.365 299.915 294.365C299.513 294.365 299.204 294.471 298.976 294.683C298.748 294.895 298.641 295.214 298.641 295.625C298.641 295.969 298.694 296.261 298.815 296.486C298.936 296.712 299.124 296.937 299.392 297.176L301.35 298.873C301.792 299.244 302.168 299.695 302.503 300.225C302.838 300.743 302.999 301.366 302.999 302.082C302.999 302.652 302.879 303.129 302.637 303.54C302.396 303.951 302.074 304.269 301.658 304.482C301.242 304.694 300.76 304.813 300.223 304.813L300.25 304.8Z" fill="#CCCCCC"/>
<path d="M304.287 304.68V293.238H308.779V294.431H305.909V298.223H308.243V299.35H305.909V303.553H308.806V304.694H304.287V304.68Z" fill="#CCCCCC"/>
<path d="M310.107 304.68V293.238H312.44C313.218 293.238 313.848 293.344 314.358 293.543C314.868 293.742 315.243 294.073 315.484 294.524C315.726 294.975 315.847 295.558 315.847 296.288C315.847 296.725 315.793 297.136 315.699 297.494C315.605 297.852 315.444 298.157 315.243 298.409C315.029 298.661 314.76 298.847 314.412 298.953L316.061 304.694H314.505L312.99 299.324H311.729V304.694H310.12L310.107 304.68ZM311.716 298.17H312.333C312.789 298.17 313.164 298.117 313.446 297.998C313.728 297.879 313.942 297.693 314.076 297.415C314.21 297.136 314.278 296.765 314.278 296.274C314.278 295.611 314.157 295.121 313.902 294.829C313.647 294.537 313.164 294.378 312.427 294.378H311.716V298.17Z" fill="#CCCCCC"/>
<path d="M317.523 304.68V293.238H318.623L321.908 300.849V293.238H323.249V304.68H322.217L318.891 296.858V304.68H317.523Z" fill="#CCCCCC"/>
<path d="M324.443 304.68L326.897 293.238H328.453L330.92 304.68H329.391L328.868 301.803H326.508L325.945 304.68H324.429H324.443ZM326.736 300.65H328.667L327.702 295.492L326.749 300.65H326.736Z" fill="#CCCCCC"/>
<path d="M332.073 304.68L332.288 293.238H333.87L335.909 302.519L337.974 293.238H339.543L339.758 304.68H338.457L338.323 296.367L336.365 304.68H335.453L333.508 296.367L333.374 304.68H332.06H332.073Z" fill="#CCCCCC"/>
<path d="M341.541 304.68V293.238H346.034V294.431H343.164V298.223H345.497V299.35H343.164V303.553H346.061V304.694H341.541V304.68Z" fill="#CCCCCC"/>
<path d="M288.636 352.042V340.586H291.506C292.204 340.586 292.754 340.706 293.169 340.957C293.585 341.209 293.88 341.567 294.081 342.045C294.269 342.522 294.363 343.092 294.363 343.755C294.363 344.352 294.256 344.882 294.041 345.32C293.826 345.757 293.505 346.102 293.089 346.341C292.673 346.579 292.15 346.699 291.52 346.699H290.246V352.029H288.636V352.042ZM290.246 345.572H290.983C291.453 345.572 291.815 345.519 292.083 345.413C292.351 345.306 292.539 345.121 292.66 344.869C292.767 344.604 292.834 344.246 292.834 343.768C292.834 343.225 292.794 342.8 292.713 342.509C292.633 342.217 292.459 342.018 292.204 341.899C291.949 341.793 291.547 341.726 290.997 341.726H290.232V345.558L290.246 345.572Z" fill="#CCCCCC"/>
<path d="M294.336 352.042L296.79 340.586H298.346L300.813 352.042H299.285L298.762 349.165H296.401L295.838 352.042H294.323H294.336ZM296.629 348.011H298.56L297.595 342.853L296.643 348.011H296.629Z" fill="#CCCCCC"/>
<path d="M304.716 352.161C304.045 352.161 303.495 352.015 303.053 351.737C302.61 351.459 302.275 351.061 302.047 350.57C301.819 350.066 301.685 349.496 301.645 348.833L303.08 348.449C303.107 348.86 303.174 349.244 303.267 349.616C303.361 349.987 303.536 350.305 303.764 350.544C303.992 350.782 304.313 350.902 304.716 350.902C305.118 350.902 305.453 350.782 305.668 350.557C305.883 350.332 305.99 349.987 305.99 349.563C305.99 349.045 305.869 348.621 305.628 348.316C305.386 347.998 305.091 347.68 304.729 347.362L302.785 345.664C302.409 345.333 302.128 344.975 301.94 344.577C301.752 344.179 301.672 343.702 301.672 343.132C301.672 342.297 301.913 341.647 302.396 341.183C302.879 340.719 303.549 340.493 304.381 340.493C304.837 340.493 305.239 340.56 305.587 340.666C305.936 340.785 306.231 340.971 306.459 341.209C306.687 341.448 306.875 341.766 307.022 342.137C307.157 342.509 307.25 342.946 307.304 343.45L305.936 343.821C305.909 343.45 305.856 343.105 305.762 342.787C305.681 342.469 305.52 342.217 305.306 342.018C305.091 341.832 304.783 341.726 304.381 341.726C303.978 341.726 303.67 341.832 303.442 342.045C303.214 342.257 303.107 342.575 303.107 342.986C303.107 343.331 303.16 343.622 303.281 343.848C303.402 344.073 303.589 344.299 303.858 344.537L305.815 346.234C306.258 346.606 306.634 347.057 306.969 347.587C307.304 348.104 307.465 348.727 307.465 349.443C307.465 350.013 307.344 350.491 307.103 350.902C306.862 351.313 306.54 351.618 306.124 351.843C305.708 352.055 305.225 352.161 304.689 352.161H304.716Z" fill="#CCCCCC"/>
<path d="M311.488 352.161C310.818 352.161 310.268 352.015 309.825 351.737C309.383 351.459 309.047 351.061 308.819 350.57C308.591 350.066 308.457 349.496 308.417 348.833L309.852 348.449C309.879 348.86 309.946 349.244 310.04 349.616C310.134 349.987 310.308 350.305 310.536 350.544C310.764 350.782 311.086 350.902 311.488 350.902C311.89 350.902 312.226 350.782 312.44 350.557C312.655 350.332 312.762 349.987 312.762 349.563C312.762 349.045 312.641 348.621 312.4 348.316C312.159 347.998 311.864 347.68 311.502 347.362L309.557 345.664C309.182 345.333 308.9 344.975 308.712 344.577C308.524 344.179 308.444 343.702 308.444 343.132C308.444 342.297 308.685 341.647 309.168 341.183C309.651 340.719 310.321 340.493 311.153 340.493C311.609 340.493 312.011 340.56 312.36 340.666C312.709 340.785 313.004 340.971 313.232 341.209C313.46 341.448 313.647 341.766 313.795 342.137C313.929 342.509 314.023 342.946 314.076 343.45L312.709 343.821C312.682 343.45 312.628 343.105 312.534 342.787C312.454 342.469 312.293 342.217 312.078 342.018C311.864 341.832 311.555 341.726 311.153 341.726C310.751 341.726 310.442 341.832 310.214 342.045C309.986 342.257 309.879 342.575 309.879 342.986C309.879 343.331 309.933 343.622 310.053 343.848C310.174 344.073 310.362 344.299 310.63 344.537L312.588 346.234C313.03 346.606 313.406 347.057 313.741 347.587C314.076 348.104 314.237 348.727 314.237 349.443C314.237 350.013 314.117 350.491 313.875 350.902C313.634 351.313 313.312 351.618 312.896 351.843C312.481 352.055 311.998 352.161 311.461 352.161H311.488Z" fill="#CCCCCC"/>
<path d="M317.013 352.042L315.122 340.586H316.463L317.711 348.807L319.266 340.626H320.406L321.975 348.847L323.196 340.573H324.51L322.646 352.029H321.479L319.87 343.543L318.234 352.029H317L317.013 352.042Z" fill="#CCCCCC"/>
<path d="M328.788 352.161C328.01 352.161 327.38 352.015 326.91 351.711C326.441 351.406 326.106 350.981 325.905 350.411C325.703 349.854 325.609 349.191 325.609 348.436V344.1C325.609 343.344 325.717 342.694 325.918 342.151C326.119 341.607 326.454 341.196 326.924 340.904C327.38 340.613 328.01 340.467 328.788 340.467C329.566 340.467 330.183 340.613 330.652 340.904C331.108 341.196 331.443 341.607 331.644 342.151C331.845 342.694 331.953 343.331 331.953 344.087V348.436C331.953 349.178 331.845 349.828 331.644 350.385C331.443 350.941 331.108 351.366 330.652 351.684C330.196 351.989 329.579 352.148 328.788 352.148V352.161ZM328.788 350.902C329.217 350.902 329.539 350.809 329.753 350.637C329.968 350.464 330.115 350.212 330.196 349.907C330.276 349.589 330.303 349.218 330.303 348.793V343.782C330.303 343.357 330.263 342.986 330.196 342.681C330.115 342.376 329.968 342.137 329.753 341.978C329.539 341.819 329.204 341.726 328.788 341.726C328.372 341.726 328.037 341.806 327.809 341.978C327.581 342.137 327.433 342.376 327.353 342.681C327.272 342.986 327.232 343.357 327.232 343.782V348.793C327.232 349.218 327.272 349.589 327.353 349.907C327.433 350.225 327.581 350.464 327.809 350.637C328.037 350.809 328.359 350.902 328.788 350.902Z" fill="#CCCCCC"/>
<path d="M333.522 352.042V340.586H335.855C336.633 340.586 337.263 340.692 337.773 340.891C338.282 341.09 338.658 341.422 338.899 341.872C339.141 342.323 339.261 342.907 339.261 343.636C339.261 344.073 339.208 344.484 339.114 344.842C339.02 345.2 338.859 345.505 338.658 345.757C338.443 346.009 338.175 346.195 337.827 346.301L339.476 352.042H337.92L336.405 346.672H335.144V352.042H333.535H333.522ZM335.131 345.532H335.748C336.204 345.532 336.579 345.479 336.861 345.359C337.143 345.24 337.357 345.054 337.491 344.776C337.625 344.498 337.692 344.126 337.692 343.636C337.692 342.973 337.572 342.482 337.317 342.191C337.062 341.899 336.579 341.74 335.842 341.74H335.131V345.532Z" fill="#CCCCCC"/>
<path d="M340.951 352.042V340.586H343.472C344.331 340.586 345.015 340.719 345.511 340.971C346.007 341.236 346.369 341.62 346.584 342.138C346.798 342.655 346.906 343.304 346.906 344.073V348.29C346.906 349.099 346.798 349.788 346.584 350.345C346.369 350.902 346.021 351.326 345.538 351.604C345.055 351.896 344.411 352.042 343.607 352.042H340.965H340.951ZM342.561 350.902H343.472C344.063 350.902 344.478 350.782 344.733 350.557C344.974 350.332 345.135 350 345.189 349.563C345.243 349.125 345.269 348.608 345.269 347.998V344.285C345.269 343.689 345.229 343.211 345.162 342.84C345.082 342.469 344.921 342.204 344.666 342.031C344.411 341.859 344.009 341.779 343.446 341.779H342.574V350.902H342.561Z" fill="#CCCCCC"/>
<path d="M300.518 400.133C299.821 400.133 299.244 400 298.775 399.735C298.305 399.47 297.957 399.072 297.715 398.555C297.474 398.038 297.34 397.401 297.313 396.646L299.124 396.288C299.137 396.725 299.191 397.123 299.284 397.454C299.378 397.799 299.512 398.051 299.7 398.237C299.888 398.422 300.129 398.515 300.438 398.515C300.786 398.515 301.028 398.409 301.162 398.21C301.309 398.011 301.377 397.746 301.377 397.441C301.377 396.937 301.256 396.526 301.028 396.208C300.8 395.89 300.491 395.572 300.116 395.24L298.654 393.967C298.238 393.622 297.917 393.225 297.675 392.8C297.434 392.376 297.313 391.846 297.313 391.209C297.313 390.308 297.581 389.605 298.118 389.114C298.654 388.624 299.378 388.385 300.304 388.385C300.84 388.385 301.296 388.465 301.658 388.637C302.02 388.796 302.315 389.035 302.516 389.327C302.731 389.618 302.892 389.95 302.999 390.321C303.107 390.692 303.174 391.09 303.2 391.501L301.403 391.806C301.39 391.448 301.35 391.13 301.283 390.838C301.216 390.56 301.108 390.334 300.961 390.175C300.8 390.016 300.572 389.936 300.263 389.936C299.955 389.936 299.714 390.043 299.539 390.241C299.378 390.44 299.284 390.692 299.284 390.997C299.284 391.382 299.365 391.7 299.526 391.952C299.687 392.204 299.915 392.456 300.223 392.721L301.672 393.98C302.154 394.378 302.557 394.842 302.892 395.373C303.227 395.903 303.402 396.553 303.402 397.295C303.402 397.839 303.281 398.329 303.039 398.754C302.798 399.178 302.463 399.509 302.02 399.748C301.591 399.987 301.082 400.106 300.491 400.106L300.518 400.133Z" fill="#E5E5E5"/>
<path d="M304.609 399.974V388.531H306.701V399.974H304.609Z" fill="#E5E5E5"/>
<path d="M311.381 400.133C310.616 400.133 310.013 399.974 309.57 399.656C309.128 399.337 308.806 398.887 308.605 398.29C308.404 397.706 308.31 397.004 308.31 396.208V392.363C308.31 391.541 308.404 390.838 308.591 390.242C308.779 389.645 309.114 389.194 309.597 388.876C310.08 388.558 310.737 388.399 311.595 388.399C312.387 388.399 313.017 388.531 313.486 388.796C313.956 389.062 314.291 389.446 314.492 389.937C314.693 390.427 314.801 391.037 314.801 391.74V392.337H312.789V391.687C312.789 391.316 312.762 390.997 312.708 390.745C312.655 390.48 312.548 390.281 312.4 390.149C312.239 390.016 311.984 389.937 311.636 389.937C311.26 389.937 310.992 390.029 310.831 390.202C310.67 390.387 310.563 390.613 310.523 390.905C310.482 391.196 310.456 391.514 310.456 391.872V396.659C310.456 397.057 310.482 397.401 310.549 397.693C310.616 397.985 310.737 398.21 310.925 398.369C311.113 398.529 311.367 398.608 311.703 398.608C312.038 398.608 312.306 398.529 312.494 398.356C312.668 398.184 312.802 397.945 312.869 397.653C312.936 397.348 312.977 396.99 312.977 396.579V395.505H311.73V394.193H314.881V400H313.527L313.366 398.873C313.218 399.244 312.977 399.563 312.668 399.801C312.36 400.04 311.931 400.159 311.408 400.159L311.381 400.133Z" fill="#E5E5E5"/>
<path d="M316.477 399.974V388.531H317.952L320.768 395.054V388.531H322.512V399.974H321.117L318.287 393.132V399.974H316.49H316.477Z" fill="#E5E5E5"/>
<path d="M327.795 399.974V388.531H329.887V399.974H327.795Z" fill="#E5E5E5"/>
<path d="M331.671 399.974V388.531H333.146L335.963 395.054V388.531H337.706V399.974H336.311L333.482 393.132V399.974H331.685H331.671Z" fill="#E5E5E5"/>
<path d="M475.741 212.808C475.741 212.808 474.038 226.041 474.682 227.924C475.312 229.82 479.148 237.377 479.349 238C479.563 238.637 474.883 242.615 475.741 244.511C476.586 246.407 481.266 248.714 481.266 248.714C481.266 248.714 492.733 261.734 494.221 261.522C495.71 261.31 501.235 258.366 501.235 258.366L504.427 265.712L536.062 252.479L526.5 236.94C526.5 236.94 516.523 211.96 507.176 203.978C497.829 195.996 479.577 203.766 475.755 212.795L475.741 212.808Z" fill="white" stroke="#263238" stroke-linecap="round" stroke-linejoin="round"/>
<path d="M494.208 261.522L502.227 252.996L501.222 258.366L494.208 261.522Z" fill="#263238" stroke="#263238" stroke-linecap="round" stroke-linejoin="round"/>
<path d="M477.646 233.811C477.646 233.811 481.253 241.793 479.134 243.052C477.015 244.312 472.764 236.754 472.764 236.754L492.934 224.158" stroke="#263238" stroke-linecap="round" stroke-linejoin="round"/>
<path d="M484.23 247.879C484.23 247.879 487.422 246.407 486.135 242.416" stroke="#263238" stroke-linecap="round" stroke-linejoin="round"/>
<path d="M476.801 228.984C476.801 228.984 476.801 226.253 479.993 227.513" stroke="#263238" stroke-linecap="round" stroke-linejoin="round"/>
<path d="M479.993 235.07L482.541 239.472" stroke="#263238" stroke-linecap="round" stroke-linejoin="round"/>
<path d="M477.646 203.58C478.289 203.792 477.431 194.763 474.454 197.07C471.477 199.377 471.262 207.783 471.262 207.783C471.262 207.783 467.44 203.169 466.595 206.948C465.75 210.727 471.477 217.025 473.609 216.812C475.728 216.6 484.646 208.419 484.23 210.939C483.801 213.458 481.038 217.873 482.742 218.709C484.445 219.544 488.683 217.873 488.683 217.873C488.683 217.873 489.313 227.327 491.874 226.903C494.422 226.478 496.34 222.487 498.244 225.007C500.149 227.526 513.318 240.334 514.176 240.334C515.034 240.334 526.487 236.98 526.487 236.98C526.487 236.98 527.332 223.959 527.976 215.354C528.619 206.749 523.51 195.2 516.08 190.586C508.651 185.972 497.601 187.019 492.303 190.586C486.993 194.153 477.646 203.606 477.646 203.606V203.58Z" fill="#263238" stroke="#263238" stroke-linecap="round" stroke-linejoin="round"/>
<path d="M493.148 230.867C493.148 230.867 491.445 218.894 495.696 221.002C499.947 223.111 503.34 234.235 502.281 236.754C501.221 239.273 498.673 237.59 498.673 237.59" fill="white"/>
<path d="M493.148 230.867C493.148 230.867 491.445 218.894 495.696 221.002C499.947 223.111 503.34 234.235 502.281 236.754C501.221 239.273 498.673 237.59 498.673 237.59" stroke="#263238" stroke-linecap="round" stroke-linejoin="round"/>
<path d="M500.417 264.757L495.763 277.804C495.763 277.804 509.992 270.127 523.698 265.526C537.403 260.925 546.456 259.639 546.456 259.639L539.469 249.403C539.469 249.403 510.756 252.214 500.417 264.744V264.757Z" fill="#92E3A9" stroke="#263238" stroke-linecap="round" stroke-linejoin="round"/>
<path d="M427.53 295.28L456.859 343.927C457.074 344.285 457.516 344.471 457.932 344.365L485.464 337.682C486.094 337.523 486.403 336.82 486.081 336.264L460.641 292.628C460.453 292.31 460.105 292.124 459.742 292.151L428.321 293.821C427.584 293.861 427.168 294.657 427.53 295.28Z" fill="#263238" stroke="#263238" stroke-linecap="round" stroke-linejoin="round"/>
<path d="M430.776 297.216L457.168 340.997L482.661 334.805L459.85 295.664L430.776 297.216Z" fill="#878787" stroke="#263238" stroke-linecap="round" stroke-linejoin="round"/>
<path d="M478.947 305.171C478.947 305.171 471.182 309.268 468.339 310.541C465.496 311.814 463.94 312.848 465.75 314.373C467.561 315.911 473.77 312.331 473.77 312.331L478.678 310.289L478.933 305.171H478.947Z" fill="white" stroke="#263238" stroke-linecap="round" stroke-linejoin="round"/>
<path d="M542.043 580.178L543.8 593.477C543.8 593.477 542.043 596.367 536.491 596.95C530.939 597.534 526.849 598.396 526.849 598.396L528.378 585.468L542.057 580.191L542.043 580.178Z" fill="white" stroke="#263238" stroke-linecap="round" stroke-linejoin="round"/>
<path d="M543.8 593.477L543.545 591.554C538.315 593.569 531.985 594.219 527.319 594.391L526.849 598.396C526.849 598.396 530.939 597.534 536.491 596.95C542.043 596.367 543.8 593.477 543.8 593.477Z" fill="white" stroke="#263238" stroke-linecap="round" stroke-linejoin="round"/>
<path d="M502.281 574.688L487.073 583.943C487.073 583.943 480.355 585.68 476.546 585.972C472.751 586.263 472.751 590.307 474.494 591.753C476.238 593.198 482.058 595.651 489.407 597.242C504.024 600.424 525.079 599.271 526.836 598.396C528.593 597.534 530.054 596.088 530.349 594.922C530.644 593.755 530.349 582.485 530.349 582.485C530.349 582.485 508.128 579.886 502.281 574.675V574.688Z" fill="white" stroke="#263238" stroke-linecap="round" stroke-linejoin="round"/>
<path d="M487.368 593.477C478.799 590.904 475.272 588.809 473.864 587.391C472.979 588.783 473.368 590.798 474.507 591.74C476.264 593.185 482.071 595.638 489.42 597.229C504.038 600.411 525.092 599.257 526.849 598.382C528.485 597.574 529.866 596.261 530.269 595.147C520.492 595.969 499.612 597.149 487.368 593.477Z" fill="white" stroke="#263238" stroke-linecap="round" stroke-linejoin="round"/>
<path d="M549.996 391.448C549.996 391.448 549.996 405.701 545.195 413.352C540.394 421.002 533.715 427.871 533.715 428.931C533.715 429.992 527.305 479.342 527.305 481.994C527.305 484.646 527.037 492.283 528.646 496.248C530.242 500.212 536.384 525.285 540.126 547.719C543.867 570.154 542.258 575.696 542.258 575.696C542.258 575.696 543.854 579.661 543.854 580.708C543.854 581.755 543.049 584.672 543.049 584.672C543.049 584.672 538.771 585.998 534.775 585.998C530.778 585.998 528.365 585.468 528.365 585.468C528.365 585.468 528.096 581.238 528.901 579.13C529.706 577.022 529.169 571.214 529.169 569.889C529.169 568.563 519.017 500.199 519.017 494.922C519.017 489.645 518.749 433.678 518.749 433.678L516.349 394.869C516.349 394.869 530.229 394.338 549.982 391.435L549.996 391.448Z" fill="#92E3A9" stroke="#263238" stroke-linecap="round" stroke-linejoin="round"/>
<path d="M531.047 421.281C531.047 421.281 524.636 432.896 524.1 433.957C523.564 435.017 523.564 444.246 523.564 446.367C523.564 448.488 522.222 488.597 522.491 494.139C522.759 499.682 527.023 516.839 528.365 527.141C529.706 537.43 532.106 567.529 532.374 568.324C532.643 569.12 533.715 572.806 533.179 575.192C532.643 577.566 531.315 580.204 531.315 580.204C531.315 580.204 532.12 584.686 531.583 586.012C531.047 587.338 523.845 588.65 513.693 585.746C503.541 582.843 499.277 576.505 499.277 576.505C499.277 576.505 499.813 575.179 499.813 572.54C499.813 569.902 502.482 569.372 502.482 569.372L497.413 533.996C497.413 533.996 492.612 522.912 492.344 521.055C492.075 519.212 493.417 514.718 493.148 512.875C492.88 511.032 489.675 507.067 489.407 505.224C489.139 503.381 480.328 473.813 479.791 447.68C479.255 421.546 480.261 397.242 480.261 397.242C480.261 397.242 487.006 400.703 507.833 399.377C528.66 398.051 536.934 397.799 546.818 393.569" fill="#92E3A9"/>
<path d="M531.047 421.281C531.047 421.281 524.636 432.896 524.1 433.957C523.564 435.017 523.564 444.246 523.564 446.367C523.564 448.488 522.222 488.597 522.491 494.139C522.759 499.682 527.023 516.839 528.365 527.141C529.706 537.43 532.106 567.529 532.374 568.324C532.643 569.12 533.715 572.806 533.179 575.192C532.643 577.566 531.315 580.204 531.315 580.204C531.315 580.204 532.12 584.686 531.583 586.012C531.047 587.338 523.845 588.65 513.693 585.746C503.541 582.843 499.277 576.505 499.277 576.505C499.277 576.505 499.813 575.179 499.813 572.54C499.813 569.902 502.482 569.372 502.482 569.372L497.413 533.996C497.413 533.996 492.612 522.912 492.344 521.055C492.075 519.212 493.417 514.718 493.148 512.875C492.88 511.032 489.675 507.067 489.407 505.224C489.139 503.381 480.328 473.813 479.791 447.68C479.255 421.546 480.261 397.242 480.261 397.242C480.261 397.242 487.006 400.703 507.833 399.377C528.66 398.051 536.934 397.799 546.818 393.569" stroke="#263238" stroke-linecap="round" stroke-linejoin="round"/>
<path d="M509.053 553.063L510.756 570.658C510.756 570.658 508.423 572.103 509.295 574.993C510.166 577.884 510.756 579.621 510.756 579.621" stroke="#263238" stroke-linecap="round" stroke-linejoin="round"/>
<path d="M493.738 464.877C493.94 466.15 494.154 467.396 494.396 468.589C499.076 492.297 504.333 510.223 504.628 511.085C504.923 511.946 501.114 515.129 502.576 516.866C504.038 518.603 505.795 519.464 505.795 519.464L508.477 547.123" stroke="#263238" stroke-linecap="round" stroke-linejoin="round"/>
<path d="M492.049 404.428C492.049 404.428 490.346 433.85 492.746 457.213" stroke="#263238" stroke-linecap="round" stroke-linejoin="round"/>
<path d="M485.33 403.845C485.33 403.845 484.458 414.253 490.305 419.451" stroke="#263238" stroke-linecap="round" stroke-linejoin="round"/>
<path d="M530.068 405.29C523.349 408.181 508.718 408.473 508.718 408.473L510.475 412.808C510.475 412.808 520.707 412.225 524.797 410.78" stroke="#263238" stroke-linecap="round" stroke-linejoin="round"/>
<path d="M480.247 397.229C480.247 397.229 483.868 403.872 512.057 402.347C540.246 400.809 551.109 396.208 551.377 393.914C551.632 391.607 550.854 386.237 550.854 386.237C550.854 386.237 497.574 390.069 480.234 397.229H480.247Z" fill="#C2C2C2" stroke="#263238" stroke-linecap="round" stroke-linejoin="round"/>
<path d="M495.763 277.804C495.763 277.804 479.979 284.964 479.724 287.271C479.47 289.578 471.195 351.458 471.195 351.458L458.777 337.139C458.777 337.139 459.032 332.021 458.254 329.979C457.476 327.937 457.221 326.399 455.411 325.63C453.6 324.861 447.646 323.323 446.104 322.05C444.562 320.777 440.15 316.68 439.117 318.218C438.084 319.756 436.019 322.315 436.529 324.105C437.052 325.895 439.117 329.475 439.117 330.496C439.117 331.517 439.117 339.194 442.483 342.774C445.849 346.354 450.757 347.892 450.757 347.892C450.757 347.892 458.777 368.868 461.62 372.951C464.463 377.049 476.358 386.502 476.358 386.502C476.358 386.502 473.515 393.145 474.293 393.662C475.071 394.179 478.692 399.549 479.724 399.549C480.757 399.549 511.803 394.431 514.123 394.179C516.456 393.927 539.723 394.179 541.534 393.41C543.344 392.641 549.299 390.082 550.586 389.061C551.873 388.04 553.952 386.25 552.919 382.153C551.887 378.056 550.854 349.165 550.854 346.606C550.854 344.047 556.031 323.84 558.351 315.911C560.684 307.982 565.069 284.712 565.338 280.88C565.592 277.048 562.495 268.099 561.462 267.582C560.429 267.064 546.456 259.653 546.456 259.653C546.456 259.653 523.43 261.443 495.763 277.804Z" fill="#C2C2C2" stroke="#263238" stroke-linecap="round" stroke-linejoin="round"/>
<path d="M476.372 386.489C476.372 386.489 485.424 384.951 486.98 383.678C488.535 382.405 502.241 342.761 502.764 340.453C503.287 338.146 504.051 310.276 504.051 310.276" stroke="#263238" stroke-linecap="round" stroke-linejoin="round"/>
<path d="M503.783 327.672L508.182 312.079" stroke="#263238" stroke-linecap="round" stroke-linejoin="round"/>
<path d="M470.163 366.799C469.385 362.45 471.195 351.458 471.195 351.458C471.195 351.458 473.006 362.198 476.372 366.547" stroke="#263238" stroke-linecap="round" stroke-linejoin="round"/>
<path d="M458.777 337.139C458.777 337.139 459.032 332.021 458.254 329.979C457.476 327.937 457.221 326.399 455.411 325.63C453.6 324.861 447.646 323.323 446.104 322.05C444.548 320.777 440.15 316.68 439.117 318.218C438.084 319.756 436.019 322.315 436.529 324.105C437.052 325.895 439.117 329.475 439.117 330.496C439.117 331.517 439.117 339.194 442.483 342.774C445.849 346.354 450.757 347.892 450.757 347.892C450.757 347.892 451.2 349.072 451.924 350.902C453.493 347.136 456.698 342.509 462.948 341.965L458.777 337.152V337.139Z" fill="white" stroke="#263238" stroke-linecap="round" stroke-linejoin="round"/>
<path d="M454.633 355.807C454.633 355.807 456.443 349.417 463.94 346.858" stroke="#263238" stroke-linecap="round" stroke-linejoin="round"/>
<path d="M514.136 394.166L540.26 386.489" stroke="#263238" stroke-linecap="round" stroke-linejoin="round"/>
<path d="M545.168 326.319C545.168 326.319 528.633 343.994 515.222 353.712" stroke="#263238" stroke-linecap="round" stroke-linejoin="round"/>
<path d="M536.666 339.578C536.666 339.578 524.154 351.949 518.789 355.927" stroke="#263238" stroke-linecap="round" stroke-linejoin="round"/>
</g>
<defs>
<clipPath id="clip0_6_13071">
<rect width="634" height="600" fill="white"/>
</clipPath>
</defs>
</svg>
